<mxfile host="Electron" modified="2024-02-19T02:21:00.909Z" agent="Mozilla/5.0 (Windows NT 10.0; Win64; x64) AppleWebKit/537.36 (KHTML, like Gecko) draw.io/22.1.2 Chrome/114.0.5735.289 Electron/25.9.4 Safari/537.36" etag="JTpdCf8-JsOYau4kbT3-" version="22.1.2" type="device" pages="4">
  <diagram id="HdBmZyNQVWWH1xDq0qJn" name="Trang-3">
    <mxGraphModel dx="1036" dy="654" grid="1" gridSize="10" guides="1" tooltips="1" connect="1" arrows="1" fold="1" page="1" pageScale="1" pageWidth="850" pageHeight="1100" math="0" shadow="0">
      <root>
        <mxCell id="0" />
        <mxCell id="1" parent="0" />
        <mxCell id="E5iO_I-67Zxdor4Z4W5H-1" value="App bán cà phê" style="shape=umlFrame;whiteSpace=wrap;html=1;pointerEvents=0;fillColor=#FFFFFF;" parent="1" vertex="1">
          <mxGeometry x="510" y="60" width="730" height="1130" as="geometry" />
        </mxCell>
        <mxCell id="E5iO_I-67Zxdor4Z4W5H-2" value="Quản lý" style="shape=umlActor;verticalLabelPosition=bottom;verticalAlign=top;html=1;" parent="1" vertex="1">
          <mxGeometry x="1340" y="790" width="30" height="60" as="geometry" />
        </mxCell>
        <mxCell id="E5iO_I-67Zxdor4Z4W5H-3" value="Đăng Ký" style="ellipse;whiteSpace=wrap;html=1;" parent="1" vertex="1">
          <mxGeometry x="600" y="128" width="90" height="70" as="geometry" />
        </mxCell>
        <mxCell id="E5iO_I-67Zxdor4Z4W5H-4" value="Đăng nhập" style="ellipse;whiteSpace=wrap;html=1;" parent="1" vertex="1">
          <mxGeometry x="858.75" y="910" width="86.25" height="70" as="geometry" />
        </mxCell>
        <mxCell id="E5iO_I-67Zxdor4Z4W5H-5" value="Khách hàng" style="shape=umlActor;verticalLabelPosition=bottom;verticalAlign=top;html=1;" parent="1" vertex="1">
          <mxGeometry x="380" y="800" width="30" height="60" as="geometry" />
        </mxCell>
        <mxCell id="E5iO_I-67Zxdor4Z4W5H-6" value="Nhân viên pha chế" style="shape=umlActor;verticalLabelPosition=bottom;verticalAlign=top;html=1;" parent="1" vertex="1">
          <mxGeometry x="1330" y="1090" width="30" height="60" as="geometry" />
        </mxCell>
        <mxCell id="E5iO_I-67Zxdor4Z4W5H-7" value="" style="endArrow=open;endFill=1;endSize=12;html=1;rounded=0;entryX=0;entryY=1;entryDx=0;entryDy=0;" parent="1" source="E5iO_I-67Zxdor4Z4W5H-5" target="E5iO_I-67Zxdor4Z4W5H-3" edge="1">
          <mxGeometry width="160" relative="1" as="geometry">
            <mxPoint x="810" y="1060" as="sourcePoint" />
            <mxPoint x="970" y="1060" as="targetPoint" />
          </mxGeometry>
        </mxCell>
        <mxCell id="E5iO_I-67Zxdor4Z4W5H-8" value="" style="endArrow=open;endFill=1;endSize=12;html=1;rounded=0;" parent="1" source="E5iO_I-67Zxdor4Z4W5H-5" target="E5iO_I-67Zxdor4Z4W5H-4" edge="1">
          <mxGeometry width="160" relative="1" as="geometry">
            <mxPoint x="470" y="995" as="sourcePoint" />
            <mxPoint x="723" y="905" as="targetPoint" />
          </mxGeometry>
        </mxCell>
        <mxCell id="E5iO_I-67Zxdor4Z4W5H-9" value="" style="endArrow=open;endFill=1;endSize=12;html=1;rounded=0;" parent="1" source="E5iO_I-67Zxdor4Z4W5H-6" target="E5iO_I-67Zxdor4Z4W5H-4" edge="1">
          <mxGeometry width="160" relative="1" as="geometry">
            <mxPoint x="480" y="1005" as="sourcePoint" />
            <mxPoint x="733" y="915" as="targetPoint" />
          </mxGeometry>
        </mxCell>
        <mxCell id="E5iO_I-67Zxdor4Z4W5H-10" value="" style="endArrow=open;endFill=1;endSize=12;html=1;rounded=0;" parent="1" source="E5iO_I-67Zxdor4Z4W5H-2" target="E5iO_I-67Zxdor4Z4W5H-4" edge="1">
          <mxGeometry width="160" relative="1" as="geometry">
            <mxPoint x="490" y="1015" as="sourcePoint" />
            <mxPoint x="743" y="925" as="targetPoint" />
          </mxGeometry>
        </mxCell>
        <mxCell id="E5iO_I-67Zxdor4Z4W5H-11" value="Đổi thông tin tài khoản cả nhân" style="ellipse;whiteSpace=wrap;html=1;" parent="1" vertex="1">
          <mxGeometry x="597.5" y="214" width="95" height="70" as="geometry" />
        </mxCell>
        <mxCell id="E5iO_I-67Zxdor4Z4W5H-12" value="" style="endArrow=open;endFill=1;endSize=12;html=1;rounded=0;entryX=0;entryY=1;entryDx=0;entryDy=0;" parent="1" source="E5iO_I-67Zxdor4Z4W5H-5" target="E5iO_I-67Zxdor4Z4W5H-11" edge="1">
          <mxGeometry width="160" relative="1" as="geometry">
            <mxPoint x="420" y="999" as="sourcePoint" />
            <mxPoint x="838" y="987" as="targetPoint" />
          </mxGeometry>
        </mxCell>
        <mxCell id="E5iO_I-67Zxdor4Z4W5H-15" value="Đăng xuất" style="ellipse;whiteSpace=wrap;html=1;" parent="1" vertex="1">
          <mxGeometry x="850.31" y="1020" width="103.13" height="70" as="geometry" />
        </mxCell>
        <mxCell id="E5iO_I-67Zxdor4Z4W5H-17" value="" style="endArrow=open;endFill=1;endSize=12;html=1;rounded=0;" parent="1" source="E5iO_I-67Zxdor4Z4W5H-6" target="E5iO_I-67Zxdor4Z4W5H-15" edge="1">
          <mxGeometry width="160" relative="1" as="geometry">
            <mxPoint x="1310" y="1144" as="sourcePoint" />
            <mxPoint x="949" y="1005" as="targetPoint" />
          </mxGeometry>
        </mxCell>
        <mxCell id="E5iO_I-67Zxdor4Z4W5H-18" value="" style="endArrow=open;endFill=1;endSize=12;html=1;rounded=0;" parent="1" source="E5iO_I-67Zxdor4Z4W5H-2" target="E5iO_I-67Zxdor4Z4W5H-15" edge="1">
          <mxGeometry width="160" relative="1" as="geometry">
            <mxPoint x="1320" y="1154" as="sourcePoint" />
            <mxPoint x="959" y="1015" as="targetPoint" />
          </mxGeometry>
        </mxCell>
        <mxCell id="E5iO_I-67Zxdor4Z4W5H-19" value="" style="endArrow=open;endFill=1;endSize=12;html=1;rounded=0;" parent="1" source="E5iO_I-67Zxdor4Z4W5H-5" target="E5iO_I-67Zxdor4Z4W5H-15" edge="1">
          <mxGeometry width="160" relative="1" as="geometry">
            <mxPoint x="450" y="1130" as="sourcePoint" />
            <mxPoint x="969" y="1025" as="targetPoint" />
          </mxGeometry>
        </mxCell>
        <mxCell id="E5iO_I-67Zxdor4Z4W5H-20" value="&amp;lt;&amp;lt;include&amp;gt;&amp;gt;" style="endArrow=open;endSize=12;dashed=1;html=1;rounded=0;exitX=1;exitY=1;exitDx=0;exitDy=0;" parent="1" source="E5iO_I-67Zxdor4Z4W5H-11" target="E5iO_I-67Zxdor4Z4W5H-4" edge="1">
          <mxGeometry x="-0.4729" y="6" width="160" relative="1" as="geometry">
            <mxPoint x="657" y="283" as="sourcePoint" />
            <mxPoint x="899" y="1020" as="targetPoint" />
            <mxPoint as="offset" />
          </mxGeometry>
        </mxCell>
        <mxCell id="E5iO_I-67Zxdor4Z4W5H-21" value="Reset mật khẩu user" style="ellipse;whiteSpace=wrap;html=1;" parent="1" vertex="1">
          <mxGeometry x="1113.75" y="470" width="90" height="70" as="geometry" />
        </mxCell>
        <mxCell id="E5iO_I-67Zxdor4Z4W5H-22" value="&amp;lt;&amp;lt;include&amp;gt;&amp;gt;" style="endArrow=open;endSize=12;dashed=1;html=1;rounded=0;" parent="1" source="E5iO_I-67Zxdor4Z4W5H-21" target="E5iO_I-67Zxdor4Z4W5H-4" edge="1">
          <mxGeometry x="-0.4067" y="3" width="160" relative="1" as="geometry">
            <mxPoint x="899" y="910" as="sourcePoint" />
            <mxPoint x="899" y="950" as="targetPoint" />
            <mxPoint as="offset" />
          </mxGeometry>
        </mxCell>
        <mxCell id="E5iO_I-67Zxdor4Z4W5H-23" value="&amp;lt;&amp;lt;include&amp;gt;&amp;gt;" style="endArrow=open;endSize=12;dashed=1;html=1;rounded=0;" parent="1" source="E5iO_I-67Zxdor4Z4W5H-21" target="E5iO_I-67Zxdor4Z4W5H-3" edge="1">
          <mxGeometry x="-0.631" y="8" width="160" relative="1" as="geometry">
            <mxPoint x="1138" y="715" as="sourcePoint" />
            <mxPoint x="937" y="849" as="targetPoint" />
            <mxPoint as="offset" />
          </mxGeometry>
        </mxCell>
        <mxCell id="E5iO_I-67Zxdor4Z4W5H-24" value="" style="endArrow=open;endFill=1;endSize=12;html=1;rounded=0;" parent="1" source="E5iO_I-67Zxdor4Z4W5H-2" target="E5iO_I-67Zxdor4Z4W5H-21" edge="1">
          <mxGeometry width="160" relative="1" as="geometry">
            <mxPoint x="1310" y="822" as="sourcePoint" />
            <mxPoint x="954" y="868" as="targetPoint" />
          </mxGeometry>
        </mxCell>
        <mxCell id="E5iO_I-67Zxdor4Z4W5H-25" value="Quản lý sản phẩm" style="ellipse;whiteSpace=wrap;html=1;" parent="1" vertex="1">
          <mxGeometry x="1110" y="760" width="97.5" height="60" as="geometry" />
        </mxCell>
        <mxCell id="E5iO_I-67Zxdor4Z4W5H-26" value="" style="endArrow=open;endFill=1;endSize=12;html=1;rounded=0;" parent="1" source="E5iO_I-67Zxdor4Z4W5H-2" target="E5iO_I-67Zxdor4Z4W5H-25" edge="1">
          <mxGeometry width="160" relative="1" as="geometry">
            <mxPoint x="1310" y="822" as="sourcePoint" />
            <mxPoint x="954" y="868" as="targetPoint" />
          </mxGeometry>
        </mxCell>
        <mxCell id="E5iO_I-67Zxdor4Z4W5H-27" value="&amp;lt;&amp;lt;include&amp;gt;&amp;gt;" style="endArrow=open;endSize=12;dashed=1;html=1;rounded=0;" parent="1" source="E5iO_I-67Zxdor4Z4W5H-25" target="E5iO_I-67Zxdor4Z4W5H-4" edge="1">
          <mxGeometry width="160" relative="1" as="geometry">
            <mxPoint x="1148" y="719" as="sourcePoint" />
            <mxPoint x="928" y="954" as="targetPoint" />
          </mxGeometry>
        </mxCell>
        <mxCell id="E5iO_I-67Zxdor4Z4W5H-28" value="Quản lý danh mục sản phẩm" style="ellipse;whiteSpace=wrap;html=1;" parent="1" vertex="1">
          <mxGeometry x="1110" y="655" width="97.5" height="70" as="geometry" />
        </mxCell>
        <mxCell id="E5iO_I-67Zxdor4Z4W5H-29" value="" style="endArrow=open;endFill=1;endSize=12;html=1;rounded=0;" parent="1" source="E5iO_I-67Zxdor4Z4W5H-2" target="E5iO_I-67Zxdor4Z4W5H-28" edge="1">
          <mxGeometry width="160" relative="1" as="geometry">
            <mxPoint x="1310" y="807" as="sourcePoint" />
            <mxPoint x="1209" y="718" as="targetPoint" />
          </mxGeometry>
        </mxCell>
        <mxCell id="E5iO_I-67Zxdor4Z4W5H-30" value="&amp;lt;&amp;lt;include&amp;gt;&amp;gt;" style="endArrow=open;endSize=12;dashed=1;html=1;rounded=0;" parent="1" source="E5iO_I-67Zxdor4Z4W5H-28" target="E5iO_I-67Zxdor4Z4W5H-4" edge="1">
          <mxGeometry x="-0.6914" y="1" width="160" relative="1" as="geometry">
            <mxPoint x="1126" y="704" as="sourcePoint" />
            <mxPoint x="784" y="810" as="targetPoint" />
            <mxPoint as="offset" />
          </mxGeometry>
        </mxCell>
        <mxCell id="E5iO_I-67Zxdor4Z4W5H-31" value="Thống kê" style="ellipse;whiteSpace=wrap;html=1;" parent="1" vertex="1">
          <mxGeometry x="1113.75" y="950" width="90" height="70" as="geometry" />
        </mxCell>
        <mxCell id="E5iO_I-67Zxdor4Z4W5H-32" value="" style="endArrow=open;endFill=1;endSize=12;html=1;rounded=0;" parent="1" source="E5iO_I-67Zxdor4Z4W5H-2" target="E5iO_I-67Zxdor4Z4W5H-31" edge="1">
          <mxGeometry width="160" relative="1" as="geometry">
            <mxPoint x="1310" y="830" as="sourcePoint" />
            <mxPoint x="960" y="1075" as="targetPoint" />
          </mxGeometry>
        </mxCell>
        <mxCell id="E5iO_I-67Zxdor4Z4W5H-33" value="&amp;lt;&amp;lt;include&amp;gt;&amp;gt;" style="endArrow=open;endSize=12;dashed=1;html=1;rounded=0;" parent="1" source="E5iO_I-67Zxdor4Z4W5H-31" target="E5iO_I-67Zxdor4Z4W5H-4" edge="1">
          <mxGeometry width="160" relative="1" as="geometry">
            <mxPoint x="1140" y="822" as="sourcePoint" />
            <mxPoint x="959" y="957" as="targetPoint" />
          </mxGeometry>
        </mxCell>
        <mxCell id="E5iO_I-67Zxdor4Z4W5H-34" value="Quản lý trạng thái đơn hàng" style="ellipse;whiteSpace=wrap;html=1;" parent="1" vertex="1">
          <mxGeometry x="1102.5" y="1100" width="112.5" height="70" as="geometry" />
        </mxCell>
        <mxCell id="E5iO_I-67Zxdor4Z4W5H-35" value="" style="endArrow=open;endFill=1;endSize=12;html=1;rounded=0;" parent="1" source="E5iO_I-67Zxdor4Z4W5H-2" target="E5iO_I-67Zxdor4Z4W5H-34" edge="1">
          <mxGeometry width="160" relative="1" as="geometry">
            <mxPoint x="1310" y="838" as="sourcePoint" />
            <mxPoint x="1212" y="954" as="targetPoint" />
          </mxGeometry>
        </mxCell>
        <mxCell id="E5iO_I-67Zxdor4Z4W5H-36" value="&amp;lt;&amp;lt;include&amp;gt;&amp;gt;" style="endArrow=open;endSize=12;dashed=1;html=1;rounded=0;" parent="1" source="E5iO_I-67Zxdor4Z4W5H-34" target="E5iO_I-67Zxdor4Z4W5H-4" edge="1">
          <mxGeometry width="160" relative="1" as="geometry">
            <mxPoint x="1103" y="985" as="sourcePoint" />
            <mxPoint x="983" y="985" as="targetPoint" />
          </mxGeometry>
        </mxCell>
        <mxCell id="E5iO_I-67Zxdor4Z4W5H-37" value="" style="endArrow=open;endFill=1;endSize=12;html=1;rounded=0;" parent="1" source="E5iO_I-67Zxdor4Z4W5H-6" target="E5iO_I-67Zxdor4Z4W5H-34" edge="1">
          <mxGeometry width="160" relative="1" as="geometry">
            <mxPoint x="1300" y="1265" as="sourcePoint" />
            <mxPoint x="924" y="895" as="targetPoint" />
          </mxGeometry>
        </mxCell>
        <mxCell id="E5iO_I-67Zxdor4Z4W5H-38" value="Hủy đơn hàng của User" style="ellipse;whiteSpace=wrap;html=1;" parent="1" vertex="1">
          <mxGeometry x="1110" y="574" width="97.5" height="70" as="geometry" />
        </mxCell>
        <mxCell id="E5iO_I-67Zxdor4Z4W5H-39" value="" style="endArrow=open;endFill=1;endSize=12;html=1;rounded=0;" parent="1" source="E5iO_I-67Zxdor4Z4W5H-2" target="E5iO_I-67Zxdor4Z4W5H-38" edge="1">
          <mxGeometry width="160" relative="1" as="geometry">
            <mxPoint x="1310" y="818" as="sourcePoint" />
            <mxPoint x="1207" y="801" as="targetPoint" />
          </mxGeometry>
        </mxCell>
        <mxCell id="E5iO_I-67Zxdor4Z4W5H-40" value="&amp;lt;&amp;lt;include&amp;gt;&amp;gt;" style="endArrow=open;endSize=12;dashed=1;html=1;rounded=0;" parent="1" source="E5iO_I-67Zxdor4Z4W5H-38" target="E5iO_I-67Zxdor4Z4W5H-4" edge="1">
          <mxGeometry x="0.0922" width="160" relative="1" as="geometry">
            <mxPoint x="1063" y="706" as="sourcePoint" />
            <mxPoint x="931" y="924" as="targetPoint" />
            <mxPoint as="offset" />
          </mxGeometry>
        </mxCell>
        <mxCell id="E5iO_I-67Zxdor4Z4W5H-41" value="" style="endArrow=open;endFill=1;endSize=12;html=1;rounded=0;" parent="1" source="E5iO_I-67Zxdor4Z4W5H-2" target="E5iO_I-67Zxdor4Z4W5H-42" edge="1">
          <mxGeometry width="160" relative="1" as="geometry">
            <mxPoint x="1310" y="790" as="sourcePoint" />
            <mxPoint x="1198" y="568" as="targetPoint" />
          </mxGeometry>
        </mxCell>
        <mxCell id="E5iO_I-67Zxdor4Z4W5H-42" value="Cấp tài khoản nhân viên" style="ellipse;whiteSpace=wrap;html=1;" parent="1" vertex="1">
          <mxGeometry x="1106.25" y="340" width="105" height="60" as="geometry" />
        </mxCell>
        <mxCell id="E5iO_I-67Zxdor4Z4W5H-43" value="&amp;lt;&amp;lt;include&amp;gt;&amp;gt;" style="endArrow=open;endSize=12;dashed=1;html=1;rounded=0;" parent="1" source="E5iO_I-67Zxdor4Z4W5H-42" target="E5iO_I-67Zxdor4Z4W5H-4" edge="1">
          <mxGeometry x="-0.3805" y="5" width="160" relative="1" as="geometry">
            <mxPoint x="1157" y="511" as="sourcePoint" />
            <mxPoint x="771" y="798" as="targetPoint" />
            <mxPoint as="offset" />
          </mxGeometry>
        </mxCell>
        <mxCell id="E5iO_I-67Zxdor4Z4W5H-44" value="Đặt hàng" style="ellipse;whiteSpace=wrap;html=1;" parent="1" vertex="1">
          <mxGeometry x="600" y="690" width="90" height="50" as="geometry" />
        </mxCell>
        <mxCell id="E5iO_I-67Zxdor4Z4W5H-45" value="" style="endArrow=open;endFill=1;endSize=12;html=1;rounded=0;" parent="1" source="E5iO_I-67Zxdor4Z4W5H-5" target="E5iO_I-67Zxdor4Z4W5H-44" edge="1">
          <mxGeometry width="160" relative="1" as="geometry">
            <mxPoint x="470" y="1002" as="sourcePoint" />
            <mxPoint x="861" y="1058" as="targetPoint" />
          </mxGeometry>
        </mxCell>
        <mxCell id="E5iO_I-67Zxdor4Z4W5H-46" value="&amp;lt;&amp;lt;include&amp;gt;&amp;gt;" style="endArrow=open;endSize=12;dashed=1;html=1;rounded=0;" parent="1" source="E5iO_I-67Zxdor4Z4W5H-44" target="E5iO_I-67Zxdor4Z4W5H-4" edge="1">
          <mxGeometry width="160" relative="1" as="geometry">
            <mxPoint x="1141" y="1046" as="sourcePoint" />
            <mxPoint x="951" y="970" as="targetPoint" />
          </mxGeometry>
        </mxCell>
        <mxCell id="E5iO_I-67Zxdor4Z4W5H-47" value="Thêm sản phẩm vào giỏ" style="ellipse;whiteSpace=wrap;html=1;" parent="1" vertex="1">
          <mxGeometry x="605" y="430" width="80" height="60" as="geometry" />
        </mxCell>
        <mxCell id="E5iO_I-67Zxdor4Z4W5H-49" value="" style="endArrow=open;endFill=1;endSize=12;html=1;rounded=0;" parent="1" source="E5iO_I-67Zxdor4Z4W5H-5" target="E5iO_I-67Zxdor4Z4W5H-47" edge="1">
          <mxGeometry width="160" relative="1" as="geometry">
            <mxPoint x="470" y="1008" as="sourcePoint" />
            <mxPoint x="573" y="1063" as="targetPoint" />
          </mxGeometry>
        </mxCell>
        <mxCell id="E5iO_I-67Zxdor4Z4W5H-50" value="&amp;lt;&amp;lt;include&amp;gt;&amp;gt;" style="endArrow=open;endSize=12;dashed=1;html=1;rounded=0;" parent="1" source="E5iO_I-67Zxdor4Z4W5H-47" target="E5iO_I-67Zxdor4Z4W5H-4" edge="1">
          <mxGeometry x="-0.4341" y="1" width="160" relative="1" as="geometry">
            <mxPoint x="615" y="1120" as="sourcePoint" />
            <mxPoint x="615" y="1150" as="targetPoint" />
            <mxPoint as="offset" />
          </mxGeometry>
        </mxCell>
        <mxCell id="E5iO_I-67Zxdor4Z4W5H-51" value="Xem sản phẩm" style="ellipse;whiteSpace=wrap;html=1;" parent="1" vertex="1">
          <mxGeometry x="590" y="310" width="110" height="70" as="geometry" />
        </mxCell>
        <mxCell id="E5iO_I-67Zxdor4Z4W5H-52" value="&amp;lt;&amp;lt;include&amp;gt;&amp;gt;" style="endArrow=open;endSize=12;dashed=1;html=1;rounded=0;" parent="1" source="E5iO_I-67Zxdor4Z4W5H-51" target="E5iO_I-67Zxdor4Z4W5H-4" edge="1">
          <mxGeometry x="-0.3876" y="-1" width="160" relative="1" as="geometry">
            <mxPoint x="650" y="1158" as="sourcePoint" />
            <mxPoint x="881" y="979" as="targetPoint" />
            <mxPoint as="offset" />
          </mxGeometry>
        </mxCell>
        <mxCell id="E5iO_I-67Zxdor4Z4W5H-53" value="" style="endArrow=open;endFill=1;endSize=12;html=1;rounded=0;" parent="1" source="E5iO_I-67Zxdor4Z4W5H-5" target="E5iO_I-67Zxdor4Z4W5H-51" edge="1">
          <mxGeometry width="160" relative="1" as="geometry">
            <mxPoint x="470" y="1017" as="sourcePoint" />
            <mxPoint x="588" y="1154" as="targetPoint" />
          </mxGeometry>
        </mxCell>
        <mxCell id="E5iO_I-67Zxdor4Z4W5H-54" value="&amp;lt;&amp;lt;include&amp;gt;&amp;gt;" style="endArrow=open;endSize=12;dashed=1;html=1;rounded=0;" parent="1" source="E5iO_I-67Zxdor4Z4W5H-47" target="E5iO_I-67Zxdor4Z4W5H-51" edge="1">
          <mxGeometry x="0.2195" y="7" width="160" relative="1" as="geometry">
            <mxPoint x="615" y="1120" as="sourcePoint" />
            <mxPoint x="615" y="1150" as="targetPoint" />
            <mxPoint as="offset" />
          </mxGeometry>
        </mxCell>
        <mxCell id="E5iO_I-67Zxdor4Z4W5H-55" value="Feedback đơn hàng" style="ellipse;whiteSpace=wrap;html=1;" parent="1" vertex="1">
          <mxGeometry x="590" y="800" width="110" height="70" as="geometry" />
        </mxCell>
        <mxCell id="E5iO_I-67Zxdor4Z4W5H-56" value="&amp;lt;&amp;lt;include&amp;gt;&amp;gt;" style="endArrow=open;endSize=12;dashed=1;html=1;rounded=0;" parent="1" source="E5iO_I-67Zxdor4Z4W5H-55" target="E5iO_I-67Zxdor4Z4W5H-44" edge="1">
          <mxGeometry x="0.0663" width="160" relative="1" as="geometry">
            <mxPoint x="1130" y="504" as="sourcePoint" />
            <mxPoint x="676" y="393" as="targetPoint" />
            <mxPoint as="offset" />
          </mxGeometry>
        </mxCell>
        <mxCell id="E5iO_I-67Zxdor4Z4W5H-57" value="&amp;lt;&amp;lt;include&amp;gt;&amp;gt;" style="endArrow=open;endSize=12;dashed=1;html=1;rounded=0;" parent="1" source="E5iO_I-67Zxdor4Z4W5H-55" target="E5iO_I-67Zxdor4Z4W5H-4" edge="1">
          <mxGeometry x="-0.631" y="8" width="160" relative="1" as="geometry">
            <mxPoint x="1140" y="514" as="sourcePoint" />
            <mxPoint x="686" y="403" as="targetPoint" />
            <mxPoint as="offset" />
          </mxGeometry>
        </mxCell>
        <mxCell id="E5iO_I-67Zxdor4Z4W5H-58" value="" style="endArrow=open;endFill=1;endSize=12;html=1;rounded=0;" parent="1" source="E5iO_I-67Zxdor4Z4W5H-5" target="E5iO_I-67Zxdor4Z4W5H-55" edge="1">
          <mxGeometry width="160" relative="1" as="geometry">
            <mxPoint x="420" y="843" as="sourcePoint" />
            <mxPoint x="870" y="946" as="targetPoint" />
          </mxGeometry>
        </mxCell>
        <mxCell id="E5iO_I-67Zxdor4Z4W5H-59" value="Xem lịch sử đặt hàng" style="ellipse;whiteSpace=wrap;html=1;" parent="1" vertex="1">
          <mxGeometry x="850.31" y="690" width="105" height="70" as="geometry" />
        </mxCell>
        <mxCell id="E5iO_I-67Zxdor4Z4W5H-60" value="" style="endArrow=open;endFill=1;endSize=12;html=1;rounded=0;" parent="1" source="E5iO_I-67Zxdor4Z4W5H-5" target="E5iO_I-67Zxdor4Z4W5H-59" edge="1">
          <mxGeometry width="160" relative="1" as="geometry">
            <mxPoint x="420" y="837" as="sourcePoint" />
            <mxPoint x="573" y="806" as="targetPoint" />
          </mxGeometry>
        </mxCell>
        <mxCell id="E5iO_I-67Zxdor4Z4W5H-61" value="&amp;lt;&amp;lt;extend&amp;gt;&amp;gt;" style="endArrow=open;endSize=12;dashed=1;html=1;rounded=0;" parent="1" source="E5iO_I-67Zxdor4Z4W5H-59" target="E5iO_I-67Zxdor4Z4W5H-44" edge="1">
          <mxGeometry x="-0.6646" y="5" width="160" relative="1" as="geometry">
            <mxPoint x="646" y="542" as="sourcePoint" />
            <mxPoint x="892" y="924" as="targetPoint" />
            <mxPoint as="offset" />
          </mxGeometry>
        </mxCell>
        <mxCell id="E5iO_I-67Zxdor4Z4W5H-62" value="&amp;lt;&amp;lt;include&amp;gt;&amp;gt;" style="endArrow=open;endSize=12;dashed=1;html=1;rounded=0;" parent="1" source="E5iO_I-67Zxdor4Z4W5H-59" target="E5iO_I-67Zxdor4Z4W5H-4" edge="1">
          <mxGeometry width="160" relative="1" as="geometry">
            <mxPoint x="646" y="542" as="sourcePoint" />
            <mxPoint x="892" y="924" as="targetPoint" />
          </mxGeometry>
        </mxCell>
        <mxCell id="E5iO_I-67Zxdor4Z4W5H-63" value="Xem giỏ hàng" style="ellipse;whiteSpace=wrap;html=1;" parent="1" vertex="1">
          <mxGeometry x="605" y="534" width="80" height="50" as="geometry" />
        </mxCell>
        <mxCell id="E5iO_I-67Zxdor4Z4W5H-65" value="" style="endArrow=open;endFill=1;endSize=12;html=1;rounded=0;" parent="1" source="E5iO_I-67Zxdor4Z4W5H-5" target="E5iO_I-67Zxdor4Z4W5H-63" edge="1">
          <mxGeometry width="160" relative="1" as="geometry">
            <mxPoint x="420" y="824" as="sourcePoint" />
            <mxPoint x="630" y="597" as="targetPoint" />
          </mxGeometry>
        </mxCell>
        <mxCell id="E5iO_I-67Zxdor4Z4W5H-66" value="&amp;lt;&amp;lt;include&amp;gt;&amp;gt;" style="endArrow=open;endSize=12;dashed=1;html=1;rounded=0;" parent="1" source="E5iO_I-67Zxdor4Z4W5H-63" target="E5iO_I-67Zxdor4Z4W5H-4" edge="1">
          <mxGeometry x="-0.5091" y="7" width="160" relative="1" as="geometry">
            <mxPoint x="643" y="448" as="sourcePoint" />
            <mxPoint x="895" y="923" as="targetPoint" />
            <mxPoint x="-1" as="offset" />
          </mxGeometry>
        </mxCell>
        <mxCell id="E5iO_I-67Zxdor4Z4W5H-67" value="System Admin" style="shape=umlActor;verticalLabelPosition=bottom;verticalAlign=top;html=1;" parent="1" vertex="1">
          <mxGeometry x="380" y="1040" width="30" height="60" as="geometry" />
        </mxCell>
        <mxCell id="E5iO_I-67Zxdor4Z4W5H-68" value="Quản lý tài khoản Admin" style="ellipse;whiteSpace=wrap;html=1;" parent="1" vertex="1">
          <mxGeometry x="593.435" y="980" width="103.13" height="70" as="geometry" />
        </mxCell>
        <mxCell id="E5iO_I-67Zxdor4Z4W5H-69" value="" style="endArrow=open;endFill=1;endSize=12;html=1;rounded=0;" parent="1" source="E5iO_I-67Zxdor4Z4W5H-67" target="E5iO_I-67Zxdor4Z4W5H-68" edge="1">
          <mxGeometry width="160" relative="1" as="geometry">
            <mxPoint x="420" y="847" as="sourcePoint" />
            <mxPoint x="869" y="1046" as="targetPoint" />
          </mxGeometry>
        </mxCell>
        <mxCell id="E5iO_I-67Zxdor4Z4W5H-70" value="" style="endArrow=open;endFill=1;endSize=12;html=1;rounded=0;" parent="1" source="E5iO_I-67Zxdor4Z4W5H-67" target="E5iO_I-67Zxdor4Z4W5H-15" edge="1">
          <mxGeometry width="160" relative="1" as="geometry">
            <mxPoint x="420" y="1083" as="sourcePoint" />
            <mxPoint x="598" y="1124" as="targetPoint" />
          </mxGeometry>
        </mxCell>
        <mxCell id="E5iO_I-67Zxdor4Z4W5H-71" value="&amp;lt;&amp;lt;include&amp;gt;&amp;gt;" style="endArrow=open;endSize=12;dashed=1;html=1;rounded=0;" parent="1" source="E5iO_I-67Zxdor4Z4W5H-68" target="E5iO_I-67Zxdor4Z4W5H-4" edge="1">
          <mxGeometry x="-0.631" y="8" width="160" relative="1" as="geometry">
            <mxPoint x="682" y="864" as="sourcePoint" />
            <mxPoint x="873" y="940" as="targetPoint" />
            <mxPoint as="offset" />
          </mxGeometry>
        </mxCell>
        <mxCell id="2VcVh4cr-JVuqnso3Km3-1" value="Lựa sản phẩm" style="ellipse;whiteSpace=wrap;html=1;" parent="1" vertex="1">
          <mxGeometry x="605" y="620" width="80" height="50" as="geometry" />
        </mxCell>
        <mxCell id="2VcVh4cr-JVuqnso3Km3-3" value="&amp;lt;&amp;lt;include&amp;gt;&amp;gt;" style="endArrow=open;endSize=12;dashed=1;html=1;rounded=0;" parent="1" source="2VcVh4cr-JVuqnso3Km3-1" target="E5iO_I-67Zxdor4Z4W5H-4" edge="1">
          <mxGeometry x="-0.0735" y="-3" width="160" relative="1" as="geometry">
            <mxPoint x="676" y="618" as="sourcePoint" />
            <mxPoint x="891" y="925" as="targetPoint" />
            <mxPoint as="offset" />
          </mxGeometry>
        </mxCell>
        <mxCell id="2VcVh4cr-JVuqnso3Km3-4" value="" style="endArrow=open;endFill=1;endSize=12;html=1;rounded=0;entryX=0;entryY=1;entryDx=0;entryDy=0;" parent="1" source="E5iO_I-67Zxdor4Z4W5H-5" target="2VcVh4cr-JVuqnso3Km3-1" edge="1">
          <mxGeometry width="160" relative="1" as="geometry">
            <mxPoint x="420" y="833" as="sourcePoint" />
            <mxPoint x="562" y="762" as="targetPoint" />
          </mxGeometry>
        </mxCell>
        <mxCell id="2VcVh4cr-JVuqnso3Km3-5" value="&amp;lt;&amp;lt;include&amp;gt;&amp;gt;" style="endArrow=open;endSize=12;dashed=1;html=1;rounded=0;" parent="1" source="E5iO_I-67Zxdor4Z4W5H-44" target="2VcVh4cr-JVuqnso3Km3-1" edge="1">
          <mxGeometry x="-0.0735" y="-3" width="160" relative="1" as="geometry">
            <mxPoint x="659" y="667" as="sourcePoint" />
            <mxPoint x="887" y="926" as="targetPoint" />
            <mxPoint as="offset" />
          </mxGeometry>
        </mxCell>
      </root>
    </mxGraphModel>
  </diagram>
  <diagram id="agnNcrmlCwjX0OnSe81p" name="Trang-2">
    <mxGraphModel dx="1290" dy="669" grid="1" gridSize="10" guides="1" tooltips="1" connect="1" arrows="1" fold="1" page="1" pageScale="1" pageWidth="850" pageHeight="1100" math="0" shadow="0">
      <root>
        <mxCell id="0" />
        <mxCell id="1" parent="0" />
        <mxCell id="D8winEGUPDT1M1GrLegt-7" value="User" style="swimlane;fontStyle=1;align=center;verticalAlign=top;childLayout=stackLayout;horizontal=1;startSize=26;horizontalStack=0;resizeParent=1;resizeParentMax=0;resizeLast=0;collapsible=1;marginBottom=0;whiteSpace=wrap;html=1;" parent="1" vertex="1">
          <mxGeometry x="430" y="660" width="160" height="216" as="geometry" />
        </mxCell>
        <mxCell id="D8winEGUPDT1M1GrLegt-8" value="username: String" style="text;strokeColor=none;fillColor=none;align=left;verticalAlign=top;spacingLeft=4;spacingRight=4;overflow=hidden;rotatable=0;points=[[0,0.5],[1,0.5]];portConstraint=eastwest;whiteSpace=wrap;html=1;" parent="D8winEGUPDT1M1GrLegt-7" vertex="1">
          <mxGeometry y="26" width="160" height="26" as="geometry" />
        </mxCell>
        <mxCell id="D8winEGUPDT1M1GrLegt-9" value="userid: String" style="text;strokeColor=none;fillColor=none;align=left;verticalAlign=top;spacingLeft=4;spacingRight=4;overflow=hidden;rotatable=0;points=[[0,0.5],[1,0.5]];portConstraint=eastwest;whiteSpace=wrap;html=1;" parent="D8winEGUPDT1M1GrLegt-7" vertex="1">
          <mxGeometry y="52" width="160" height="26" as="geometry" />
        </mxCell>
        <mxCell id="D8winEGUPDT1M1GrLegt-10" value="usertype: int" style="text;strokeColor=none;fillColor=none;align=left;verticalAlign=top;spacingLeft=4;spacingRight=4;overflow=hidden;rotatable=0;points=[[0,0.5],[1,0.5]];portConstraint=eastwest;whiteSpace=wrap;html=1;" parent="D8winEGUPDT1M1GrLegt-7" vertex="1">
          <mxGeometry y="78" width="160" height="26" as="geometry" />
        </mxCell>
        <mxCell id="D8winEGUPDT1M1GrLegt-11" value="" style="line;strokeWidth=1;fillColor=none;align=left;verticalAlign=middle;spacingTop=-1;spacingLeft=3;spacingRight=3;rotatable=0;labelPosition=right;points=[];portConstraint=eastwest;strokeColor=inherit;" parent="D8winEGUPDT1M1GrLegt-7" vertex="1">
          <mxGeometry y="104" width="160" height="8" as="geometry" />
        </mxCell>
        <mxCell id="D8winEGUPDT1M1GrLegt-12" value="login(): int" style="text;strokeColor=none;fillColor=none;align=left;verticalAlign=top;spacingLeft=4;spacingRight=4;overflow=hidden;rotatable=0;points=[[0,0.5],[1,0.5]];portConstraint=eastwest;whiteSpace=wrap;html=1;" parent="D8winEGUPDT1M1GrLegt-7" vertex="1">
          <mxGeometry y="112" width="160" height="26" as="geometry" />
        </mxCell>
        <mxCell id="D8winEGUPDT1M1GrLegt-13" value="logout(): void" style="text;strokeColor=none;fillColor=none;align=left;verticalAlign=top;spacingLeft=4;spacingRight=4;overflow=hidden;rotatable=0;points=[[0,0.5],[1,0.5]];portConstraint=eastwest;whiteSpace=wrap;html=1;" parent="D8winEGUPDT1M1GrLegt-7" vertex="1">
          <mxGeometry y="138" width="160" height="26" as="geometry" />
        </mxCell>
        <mxCell id="D8winEGUPDT1M1GrLegt-14" value="changepassword(): bool" style="text;strokeColor=none;fillColor=none;align=left;verticalAlign=top;spacingLeft=4;spacingRight=4;overflow=hidden;rotatable=0;points=[[0,0.5],[1,0.5]];portConstraint=eastwest;whiteSpace=wrap;html=1;" parent="D8winEGUPDT1M1GrLegt-7" vertex="1">
          <mxGeometry y="164" width="160" height="26" as="geometry" />
        </mxCell>
        <mxCell id="D8winEGUPDT1M1GrLegt-15" value="changenick(): bool" style="text;strokeColor=none;fillColor=none;align=left;verticalAlign=top;spacingLeft=4;spacingRight=4;overflow=hidden;rotatable=0;points=[[0,0.5],[1,0.5]];portConstraint=eastwest;whiteSpace=wrap;html=1;" parent="D8winEGUPDT1M1GrLegt-7" vertex="1">
          <mxGeometry y="190" width="160" height="26" as="geometry" />
        </mxCell>
        <mxCell id="D8winEGUPDT1M1GrLegt-16" value="Customer" style="swimlane;fontStyle=1;align=center;verticalAlign=top;childLayout=stackLayout;horizontal=1;startSize=26;horizontalStack=0;resizeParent=1;resizeParentMax=0;resizeLast=0;collapsible=1;marginBottom=0;whiteSpace=wrap;html=1;" parent="1" vertex="1">
          <mxGeometry x="150" y="660" width="160" height="216" as="geometry" />
        </mxCell>
        <mxCell id="D8winEGUPDT1M1GrLegt-17" value="" style="line;strokeWidth=1;fillColor=none;align=left;verticalAlign=middle;spacingTop=-1;spacingLeft=3;spacingRight=3;rotatable=0;labelPosition=right;points=[];portConstraint=eastwest;strokeColor=inherit;" parent="D8winEGUPDT1M1GrLegt-16" vertex="1">
          <mxGeometry y="26" width="160" height="8" as="geometry" />
        </mxCell>
        <mxCell id="D8winEGUPDT1M1GrLegt-18" value="register(): bool" style="text;strokeColor=none;fillColor=none;align=left;verticalAlign=top;spacingLeft=4;spacingRight=4;overflow=hidden;rotatable=0;points=[[0,0.5],[1,0.5]];portConstraint=eastwest;whiteSpace=wrap;html=1;" parent="D8winEGUPDT1M1GrLegt-16" vertex="1">
          <mxGeometry y="34" width="160" height="26" as="geometry" />
        </mxCell>
        <mxCell id="D8winEGUPDT1M1GrLegt-19" value="placeorder(): bool" style="text;strokeColor=none;fillColor=none;align=left;verticalAlign=top;spacingLeft=4;spacingRight=4;overflow=hidden;rotatable=0;points=[[0,0.5],[1,0.5]];portConstraint=eastwest;whiteSpace=wrap;html=1;" parent="D8winEGUPDT1M1GrLegt-16" vertex="1">
          <mxGeometry y="60" width="160" height="26" as="geometry" />
        </mxCell>
        <mxCell id="D8winEGUPDT1M1GrLegt-20" value="addtocart(): bool" style="text;strokeColor=none;fillColor=none;align=left;verticalAlign=top;spacingLeft=4;spacingRight=4;overflow=hidden;rotatable=0;points=[[0,0.5],[1,0.5]];portConstraint=eastwest;whiteSpace=wrap;html=1;" parent="D8winEGUPDT1M1GrLegt-16" vertex="1">
          <mxGeometry y="86" width="160" height="26" as="geometry" />
        </mxCell>
        <mxCell id="D8winEGUPDT1M1GrLegt-21" value="viewmenu(): void" style="text;strokeColor=none;fillColor=none;align=left;verticalAlign=top;spacingLeft=4;spacingRight=4;overflow=hidden;rotatable=0;points=[[0,0.5],[1,0.5]];portConstraint=eastwest;whiteSpace=wrap;html=1;" parent="D8winEGUPDT1M1GrLegt-16" vertex="1">
          <mxGeometry y="112" width="160" height="26" as="geometry" />
        </mxCell>
        <mxCell id="D8winEGUPDT1M1GrLegt-22" value="viewcart(): void" style="text;strokeColor=none;fillColor=none;align=left;verticalAlign=top;spacingLeft=4;spacingRight=4;overflow=hidden;rotatable=0;points=[[0,0.5],[1,0.5]];portConstraint=eastwest;whiteSpace=wrap;html=1;" parent="D8winEGUPDT1M1GrLegt-16" vertex="1">
          <mxGeometry y="138" width="160" height="26" as="geometry" />
        </mxCell>
        <mxCell id="D8winEGUPDT1M1GrLegt-23" value="viewproduct(): void" style="text;strokeColor=none;fillColor=none;align=left;verticalAlign=top;spacingLeft=4;spacingRight=4;overflow=hidden;rotatable=0;points=[[0,0.5],[1,0.5]];portConstraint=eastwest;whiteSpace=wrap;html=1;" parent="D8winEGUPDT1M1GrLegt-16" vertex="1">
          <mxGeometry y="164" width="160" height="26" as="geometry" />
        </mxCell>
        <mxCell id="D8winEGUPDT1M1GrLegt-24" value="review(): bool" style="text;strokeColor=none;fillColor=none;align=left;verticalAlign=top;spacingLeft=4;spacingRight=4;overflow=hidden;rotatable=0;points=[[0,0.5],[1,0.5]];portConstraint=eastwest;whiteSpace=wrap;html=1;" parent="D8winEGUPDT1M1GrLegt-16" vertex="1">
          <mxGeometry y="190" width="160" height="26" as="geometry" />
        </mxCell>
        <mxCell id="D8winEGUPDT1M1GrLegt-25" value="Employee" style="swimlane;fontStyle=1;align=center;verticalAlign=top;childLayout=stackLayout;horizontal=1;startSize=26;horizontalStack=0;resizeParent=1;resizeParentMax=0;resizeLast=0;collapsible=1;marginBottom=0;whiteSpace=wrap;html=1;" parent="1" vertex="1">
          <mxGeometry x="530" y="494" width="160" height="60" as="geometry" />
        </mxCell>
        <mxCell id="D8winEGUPDT1M1GrLegt-26" value="" style="line;strokeWidth=1;fillColor=none;align=left;verticalAlign=middle;spacingTop=-1;spacingLeft=3;spacingRight=3;rotatable=0;labelPosition=right;points=[];portConstraint=eastwest;strokeColor=inherit;" parent="D8winEGUPDT1M1GrLegt-25" vertex="1">
          <mxGeometry y="26" width="160" height="8" as="geometry" />
        </mxCell>
        <mxCell id="D8winEGUPDT1M1GrLegt-27" value="ChangeOrderStatus(): bool" style="text;strokeColor=none;fillColor=none;align=left;verticalAlign=top;spacingLeft=4;spacingRight=4;overflow=hidden;rotatable=0;points=[[0,0.5],[1,0.5]];portConstraint=eastwest;whiteSpace=wrap;html=1;" parent="D8winEGUPDT1M1GrLegt-25" vertex="1">
          <mxGeometry y="34" width="160" height="26" as="geometry" />
        </mxCell>
        <mxCell id="D8winEGUPDT1M1GrLegt-28" value="Admin" style="swimlane;fontStyle=1;align=center;verticalAlign=top;childLayout=stackLayout;horizontal=1;startSize=26;horizontalStack=0;resizeParent=1;resizeParentMax=0;resizeLast=0;collapsible=1;marginBottom=0;whiteSpace=wrap;html=1;" parent="1" vertex="1">
          <mxGeometry x="690" y="600" width="180" height="346" as="geometry" />
        </mxCell>
        <mxCell id="D8winEGUPDT1M1GrLegt-29" value="" style="line;strokeWidth=1;fillColor=none;align=left;verticalAlign=middle;spacingTop=-1;spacingLeft=3;spacingRight=3;rotatable=0;labelPosition=right;points=[];portConstraint=eastwest;strokeColor=inherit;" parent="D8winEGUPDT1M1GrLegt-28" vertex="1">
          <mxGeometry y="26" width="180" height="8" as="geometry" />
        </mxCell>
        <mxCell id="D8winEGUPDT1M1GrLegt-30" value="deleteorder(): bool" style="text;strokeColor=none;fillColor=none;align=left;verticalAlign=top;spacingLeft=4;spacingRight=4;overflow=hidden;rotatable=0;points=[[0,0.5],[1,0.5]];portConstraint=eastwest;whiteSpace=wrap;html=1;" parent="D8winEGUPDT1M1GrLegt-28" vertex="1">
          <mxGeometry y="34" width="180" height="26" as="geometry" />
        </mxCell>
        <mxCell id="D8winEGUPDT1M1GrLegt-31" value="checkstatistics(): bool" style="text;strokeColor=none;fillColor=none;align=left;verticalAlign=top;spacingLeft=4;spacingRight=4;overflow=hidden;rotatable=0;points=[[0,0.5],[1,0.5]];portConstraint=eastwest;whiteSpace=wrap;html=1;" parent="D8winEGUPDT1M1GrLegt-28" vertex="1">
          <mxGeometry y="60" width="180" height="26" as="geometry" />
        </mxCell>
        <mxCell id="D8winEGUPDT1M1GrLegt-32" value="addcategory(): bool" style="text;strokeColor=none;fillColor=none;align=left;verticalAlign=top;spacingLeft=4;spacingRight=4;overflow=hidden;rotatable=0;points=[[0,0.5],[1,0.5]];portConstraint=eastwest;whiteSpace=wrap;html=1;" parent="D8winEGUPDT1M1GrLegt-28" vertex="1">
          <mxGeometry y="86" width="180" height="26" as="geometry" />
        </mxCell>
        <mxCell id="D8winEGUPDT1M1GrLegt-33" value="deletecategory(): bool" style="text;strokeColor=none;fillColor=none;align=left;verticalAlign=top;spacingLeft=4;spacingRight=4;overflow=hidden;rotatable=0;points=[[0,0.5],[1,0.5]];portConstraint=eastwest;whiteSpace=wrap;html=1;" parent="D8winEGUPDT1M1GrLegt-28" vertex="1">
          <mxGeometry y="112" width="180" height="26" as="geometry" />
        </mxCell>
        <mxCell id="D8winEGUPDT1M1GrLegt-34" value="updatecategory(): bool" style="text;strokeColor=none;fillColor=none;align=left;verticalAlign=top;spacingLeft=4;spacingRight=4;overflow=hidden;rotatable=0;points=[[0,0.5],[1,0.5]];portConstraint=eastwest;whiteSpace=wrap;html=1;" parent="D8winEGUPDT1M1GrLegt-28" vertex="1">
          <mxGeometry y="138" width="180" height="26" as="geometry" />
        </mxCell>
        <mxCell id="D8winEGUPDT1M1GrLegt-35" value="adddrinks(): bool" style="text;strokeColor=none;fillColor=none;align=left;verticalAlign=top;spacingLeft=4;spacingRight=4;overflow=hidden;rotatable=0;points=[[0,0.5],[1,0.5]];portConstraint=eastwest;whiteSpace=wrap;html=1;" parent="D8winEGUPDT1M1GrLegt-28" vertex="1">
          <mxGeometry y="164" width="180" height="26" as="geometry" />
        </mxCell>
        <mxCell id="D8winEGUPDT1M1GrLegt-36" value="deletedrinks(): bool" style="text;strokeColor=none;fillColor=none;align=left;verticalAlign=top;spacingLeft=4;spacingRight=4;overflow=hidden;rotatable=0;points=[[0,0.5],[1,0.5]];portConstraint=eastwest;whiteSpace=wrap;html=1;" parent="D8winEGUPDT1M1GrLegt-28" vertex="1">
          <mxGeometry y="190" width="180" height="26" as="geometry" />
        </mxCell>
        <mxCell id="D8winEGUPDT1M1GrLegt-37" value="updatedrinks(): bool" style="text;strokeColor=none;fillColor=none;align=left;verticalAlign=top;spacingLeft=4;spacingRight=4;overflow=hidden;rotatable=0;points=[[0,0.5],[1,0.5]];portConstraint=eastwest;whiteSpace=wrap;html=1;" parent="D8winEGUPDT1M1GrLegt-28" vertex="1">
          <mxGeometry y="216" width="180" height="26" as="geometry" />
        </mxCell>
        <mxCell id="D8winEGUPDT1M1GrLegt-38" value="createemployee(): bool" style="text;strokeColor=none;fillColor=none;align=left;verticalAlign=top;spacingLeft=4;spacingRight=4;overflow=hidden;rotatable=0;points=[[0,0.5],[1,0.5]];portConstraint=eastwest;whiteSpace=wrap;html=1;" parent="D8winEGUPDT1M1GrLegt-28" vertex="1">
          <mxGeometry y="242" width="180" height="26" as="geometry" />
        </mxCell>
        <mxCell id="D8winEGUPDT1M1GrLegt-39" value="deleteemployee(): bool" style="text;strokeColor=none;fillColor=none;align=left;verticalAlign=top;spacingLeft=4;spacingRight=4;overflow=hidden;rotatable=0;points=[[0,0.5],[1,0.5]];portConstraint=eastwest;whiteSpace=wrap;html=1;" parent="D8winEGUPDT1M1GrLegt-28" vertex="1">
          <mxGeometry y="268" width="180" height="26" as="geometry" />
        </mxCell>
        <mxCell id="D8winEGUPDT1M1GrLegt-40" value="updateemployee(): bool" style="text;strokeColor=none;fillColor=none;align=left;verticalAlign=top;spacingLeft=4;spacingRight=4;overflow=hidden;rotatable=0;points=[[0,0.5],[1,0.5]];portConstraint=eastwest;whiteSpace=wrap;html=1;" parent="D8winEGUPDT1M1GrLegt-28" vertex="1">
          <mxGeometry y="294" width="180" height="26" as="geometry" />
        </mxCell>
        <mxCell id="D8winEGUPDT1M1GrLegt-41" value="resetcustomerpassword();bool" style="text;strokeColor=none;fillColor=none;align=left;verticalAlign=top;spacingLeft=4;spacingRight=4;overflow=hidden;rotatable=0;points=[[0,0.5],[1,0.5]];portConstraint=eastwest;whiteSpace=wrap;html=1;" parent="D8winEGUPDT1M1GrLegt-28" vertex="1">
          <mxGeometry y="320" width="180" height="26" as="geometry" />
        </mxCell>
        <mxCell id="D8winEGUPDT1M1GrLegt-42" value="ServerAdmin" style="swimlane;fontStyle=1;align=center;verticalAlign=top;childLayout=stackLayout;horizontal=1;startSize=26;horizontalStack=0;resizeParent=1;resizeParentMax=0;resizeLast=0;collapsible=1;marginBottom=0;whiteSpace=wrap;html=1;" parent="1" vertex="1">
          <mxGeometry x="320" y="468" width="160" height="112" as="geometry" />
        </mxCell>
        <mxCell id="D8winEGUPDT1M1GrLegt-43" value="" style="line;strokeWidth=1;fillColor=none;align=left;verticalAlign=middle;spacingTop=-1;spacingLeft=3;spacingRight=3;rotatable=0;labelPosition=right;points=[];portConstraint=eastwest;strokeColor=inherit;" parent="D8winEGUPDT1M1GrLegt-42" vertex="1">
          <mxGeometry y="26" width="160" height="8" as="geometry" />
        </mxCell>
        <mxCell id="D8winEGUPDT1M1GrLegt-44" value="deleteadmin(): bool" style="text;strokeColor=none;fillColor=none;align=left;verticalAlign=top;spacingLeft=4;spacingRight=4;overflow=hidden;rotatable=0;points=[[0,0.5],[1,0.5]];portConstraint=eastwest;whiteSpace=wrap;html=1;" parent="D8winEGUPDT1M1GrLegt-42" vertex="1">
          <mxGeometry y="34" width="160" height="26" as="geometry" />
        </mxCell>
        <mxCell id="D8winEGUPDT1M1GrLegt-45" value="createadmin(): bool" style="text;strokeColor=none;fillColor=none;align=left;verticalAlign=top;spacingLeft=4;spacingRight=4;overflow=hidden;rotatable=0;points=[[0,0.5],[1,0.5]];portConstraint=eastwest;whiteSpace=wrap;html=1;" parent="D8winEGUPDT1M1GrLegt-42" vertex="1">
          <mxGeometry y="60" width="160" height="26" as="geometry" />
        </mxCell>
        <mxCell id="D8winEGUPDT1M1GrLegt-46" value="updateadmin(): bool" style="text;strokeColor=none;fillColor=none;align=left;verticalAlign=top;spacingLeft=4;spacingRight=4;overflow=hidden;rotatable=0;points=[[0,0.5],[1,0.5]];portConstraint=eastwest;whiteSpace=wrap;html=1;" parent="D8winEGUPDT1M1GrLegt-42" vertex="1">
          <mxGeometry y="86" width="160" height="26" as="geometry" />
        </mxCell>
        <mxCell id="D8winEGUPDT1M1GrLegt-47" value="Extends" style="endArrow=block;endSize=16;endFill=0;html=1;rounded=0;" parent="1" source="D8winEGUPDT1M1GrLegt-42" target="D8winEGUPDT1M1GrLegt-7" edge="1">
          <mxGeometry width="160" relative="1" as="geometry">
            <mxPoint x="500" y="810" as="sourcePoint" />
            <mxPoint x="660" y="810" as="targetPoint" />
          </mxGeometry>
        </mxCell>
        <mxCell id="D8winEGUPDT1M1GrLegt-48" value="Extends" style="endArrow=block;endSize=16;endFill=0;html=1;rounded=0;" parent="1" source="D8winEGUPDT1M1GrLegt-28" target="D8winEGUPDT1M1GrLegt-7" edge="1">
          <mxGeometry width="160" relative="1" as="geometry">
            <mxPoint x="520" y="860" as="sourcePoint" />
            <mxPoint x="520" y="808" as="targetPoint" />
          </mxGeometry>
        </mxCell>
        <mxCell id="D8winEGUPDT1M1GrLegt-49" value="Extends" style="endArrow=block;endSize=16;endFill=0;html=1;rounded=0;" parent="1" source="D8winEGUPDT1M1GrLegt-25" target="D8winEGUPDT1M1GrLegt-7" edge="1">
          <mxGeometry width="160" relative="1" as="geometry">
            <mxPoint x="530" y="870" as="sourcePoint" />
            <mxPoint x="530" y="818" as="targetPoint" />
          </mxGeometry>
        </mxCell>
        <mxCell id="D8winEGUPDT1M1GrLegt-50" value="Extends" style="endArrow=block;endSize=16;endFill=0;html=1;rounded=0;" parent="1" source="D8winEGUPDT1M1GrLegt-16" target="D8winEGUPDT1M1GrLegt-7" edge="1">
          <mxGeometry width="160" relative="1" as="geometry">
            <mxPoint x="540" y="880" as="sourcePoint" />
            <mxPoint x="540" y="828" as="targetPoint" />
          </mxGeometry>
        </mxCell>
        <mxCell id="D8winEGUPDT1M1GrLegt-51" value="Extends" style="endArrow=block;endSize=16;endFill=0;html=1;rounded=0;" parent="1" source="D8winEGUPDT1M1GrLegt-28" target="D8winEGUPDT1M1GrLegt-25" edge="1">
          <mxGeometry width="160" relative="1" as="geometry">
            <mxPoint x="520" y="598" as="sourcePoint" />
            <mxPoint x="520" y="670" as="targetPoint" />
          </mxGeometry>
        </mxCell>
      </root>
    </mxGraphModel>
  </diagram>
  <diagram name="Trang-1" id="FXUXpsfm9QEIHioOaw1L">
    <mxGraphModel dx="5954" dy="3716" grid="1" gridSize="10" guides="1" tooltips="1" connect="1" arrows="1" fold="1" page="1" pageScale="1" pageWidth="850" pageHeight="1100" math="0" shadow="0">
      <root>
        <mxCell id="0" />
        <mxCell id="1" parent="0" />
        <mxCell id="_uaLchvtrCkmkdotETUY-1" value="" style="ellipse;fillColor=strokeColor;html=1;" parent="1" vertex="1">
          <mxGeometry x="-67.5" y="-1075" width="30" height="30" as="geometry" />
        </mxCell>
        <mxCell id="_uaLchvtrCkmkdotETUY-2" value="Hiển thị form đăng nhập" style="html=1;align=center;verticalAlign=top;rounded=1;absoluteArcSize=1;arcSize=10;dashed=0;whiteSpace=wrap;" parent="1" vertex="1">
          <mxGeometry x="132.5" y="-1080" width="140" height="40" as="geometry" />
        </mxCell>
        <mxCell id="_uaLchvtrCkmkdotETUY-3" value="" style="endArrow=open;startArrow=none;endFill=0;startFill=0;endSize=8;html=1;verticalAlign=bottom;labelBackgroundColor=none;strokeWidth=1;rounded=0;exitX=1;exitY=0.5;exitDx=0;exitDy=0;entryX=0;entryY=0.5;entryDx=0;entryDy=0;" parent="1" source="_uaLchvtrCkmkdotETUY-1" target="_uaLchvtrCkmkdotETUY-119" edge="1">
          <mxGeometry width="160" relative="1" as="geometry">
            <mxPoint x="82.5" y="-855" as="sourcePoint" />
            <mxPoint x="242.5" y="-855" as="targetPoint" />
          </mxGeometry>
        </mxCell>
        <mxCell id="_uaLchvtrCkmkdotETUY-5" value="user đăng nhập" style="text;html=1;strokeColor=none;fillColor=none;align=center;verticalAlign=middle;whiteSpace=wrap;rounded=0;" parent="1" vertex="1">
          <mxGeometry x="-110" y="-1045" width="115" height="30" as="geometry" />
        </mxCell>
        <mxCell id="_uaLchvtrCkmkdotETUY-7" value="" style="endArrow=open;html=1;rounded=0;align=center;verticalAlign=top;endFill=0;labelBackgroundColor=none;endSize=6;exitX=0.5;exitY=1;exitDx=0;exitDy=0;entryX=0.5;entryY=0;entryDx=0;entryDy=0;" parent="1" source="_uaLchvtrCkmkdotETUY-2" target="_uaLchvtrCkmkdotETUY-15" edge="1">
          <mxGeometry relative="1" as="geometry">
            <mxPoint x="202.5" y="-995" as="targetPoint" />
            <mxPoint x="86.49999999990837" y="-853" as="sourcePoint" />
          </mxGeometry>
        </mxCell>
        <mxCell id="_uaLchvtrCkmkdotETUY-15" value="Nhập user name, email, password&amp;nbsp;" style="html=1;align=center;verticalAlign=top;rounded=1;absoluteArcSize=1;arcSize=10;dashed=0;whiteSpace=wrap;" parent="1" vertex="1">
          <mxGeometry x="132.5" y="-975" width="140" height="40" as="geometry" />
        </mxCell>
        <mxCell id="_uaLchvtrCkmkdotETUY-16" value="" style="strokeWidth=2;html=1;shape=mxgraph.flowchart.decision;whiteSpace=wrap;fillColor=#004C99;" parent="1" vertex="1">
          <mxGeometry x="187.5" y="-895" width="30" height="30" as="geometry" />
        </mxCell>
        <mxCell id="_uaLchvtrCkmkdotETUY-17" value="" style="endArrow=open;html=1;rounded=0;align=center;verticalAlign=top;endFill=0;labelBackgroundColor=none;endSize=6;exitX=0.5;exitY=1;exitDx=0;exitDy=0;entryX=0.5;entryY=0;entryDx=0;entryDy=0;entryPerimeter=0;" parent="1" source="_uaLchvtrCkmkdotETUY-15" target="_uaLchvtrCkmkdotETUY-16" edge="1">
          <mxGeometry relative="1" as="geometry">
            <mxPoint x="247.5" y="-840" as="targetPoint" />
            <mxPoint x="247.5" y="-885" as="sourcePoint" />
          </mxGeometry>
        </mxCell>
        <mxCell id="_uaLchvtrCkmkdotETUY-18" value="[valid]." style="endArrow=open;html=1;rounded=0;align=center;verticalAlign=bottom;endFill=0;labelBackgroundColor=none;exitX=0;exitY=0.5;exitDx=0;exitDy=0;exitPerimeter=0;" parent="1" source="_uaLchvtrCkmkdotETUY-16" edge="1">
          <mxGeometry relative="1" as="geometry">
            <mxPoint x="182.5" y="-885" as="sourcePoint" />
            <mxPoint x="107.5" y="-835" as="targetPoint" />
            <Array as="points">
              <mxPoint x="107.5" y="-880" />
            </Array>
          </mxGeometry>
        </mxCell>
        <mxCell id="_uaLchvtrCkmkdotETUY-19" value="" style="resizable=0;html=1;align=center;verticalAlign=top;labelBackgroundColor=none;" parent="_uaLchvtrCkmkdotETUY-18" connectable="0" vertex="1">
          <mxGeometry relative="1" as="geometry" />
        </mxCell>
        <mxCell id="_uaLchvtrCkmkdotETUY-20" value="Hiện trang chủ" style="html=1;align=center;verticalAlign=top;rounded=1;absoluteArcSize=1;arcSize=10;dashed=0;whiteSpace=wrap;" parent="1" vertex="1">
          <mxGeometry x="42.5" y="-835" width="140" height="40" as="geometry" />
        </mxCell>
        <mxCell id="_uaLchvtrCkmkdotETUY-21" value="[invalid]." style="endArrow=open;html=1;rounded=0;align=center;verticalAlign=bottom;endFill=0;labelBackgroundColor=none;exitX=1;exitY=0.5;exitDx=0;exitDy=0;exitPerimeter=0;" parent="1" source="_uaLchvtrCkmkdotETUY-16" edge="1">
          <mxGeometry x="0.0021" relative="1" as="geometry">
            <mxPoint x="227.5" y="-880" as="sourcePoint" />
            <mxPoint x="307.5" y="-835" as="targetPoint" />
            <Array as="points">
              <mxPoint x="307.5" y="-880" />
            </Array>
            <mxPoint as="offset" />
          </mxGeometry>
        </mxCell>
        <mxCell id="_uaLchvtrCkmkdotETUY-22" value="" style="resizable=0;html=1;align=center;verticalAlign=top;labelBackgroundColor=none;" parent="_uaLchvtrCkmkdotETUY-21" connectable="0" vertex="1">
          <mxGeometry relative="1" as="geometry" />
        </mxCell>
        <mxCell id="_uaLchvtrCkmkdotETUY-23" value="Thông báo sai&lt;br&gt;user name, email, password" style="html=1;align=center;verticalAlign=top;rounded=1;absoluteArcSize=1;arcSize=10;dashed=0;whiteSpace=wrap;" parent="1" vertex="1">
          <mxGeometry x="237.5" y="-835" width="160" height="40" as="geometry" />
        </mxCell>
        <mxCell id="_uaLchvtrCkmkdotETUY-30" value="&lt;font size=&quot;1&quot;&gt;Check?&lt;/font&gt;" style="text;html=1;strokeColor=none;fillColor=none;align=center;verticalAlign=middle;whiteSpace=wrap;rounded=0;" parent="1" vertex="1">
          <mxGeometry x="112.5" y="-865" width="170" height="20" as="geometry" />
        </mxCell>
        <mxCell id="_uaLchvtrCkmkdotETUY-31" value="Hiển thị form để nhập email" style="html=1;align=center;verticalAlign=top;rounded=1;absoluteArcSize=1;arcSize=10;dashed=0;whiteSpace=wrap;" parent="1" vertex="1">
          <mxGeometry x="685" y="-820" width="140" height="40" as="geometry" />
        </mxCell>
        <mxCell id="_uaLchvtrCkmkdotETUY-32" value="" style="endArrow=open;html=1;rounded=0;align=center;verticalAlign=top;endFill=0;labelBackgroundColor=none;endSize=6;exitX=0.5;exitY=1;exitDx=0;exitDy=0;entryX=0.5;entryY=0;entryDx=0;entryDy=0;" parent="1" source="_uaLchvtrCkmkdotETUY-31" target="_uaLchvtrCkmkdotETUY-33" edge="1">
          <mxGeometry relative="1" as="geometry">
            <mxPoint x="770" y="-680" as="targetPoint" />
            <mxPoint x="530" y="-855" as="sourcePoint" />
          </mxGeometry>
        </mxCell>
        <mxCell id="_uaLchvtrCkmkdotETUY-33" value="Nhập email" style="html=1;align=center;verticalAlign=top;rounded=1;absoluteArcSize=1;arcSize=10;dashed=0;whiteSpace=wrap;" parent="1" vertex="1">
          <mxGeometry x="700" y="-750" width="110" height="30" as="geometry" />
        </mxCell>
        <mxCell id="_uaLchvtrCkmkdotETUY-34" style="edgeStyle=orthogonalEdgeStyle;rounded=0;orthogonalLoop=1;jettySize=auto;html=1;exitX=0.5;exitY=1;exitDx=0;exitDy=0;" parent="1" source="_uaLchvtrCkmkdotETUY-33" target="_uaLchvtrCkmkdotETUY-33" edge="1">
          <mxGeometry relative="1" as="geometry" />
        </mxCell>
        <mxCell id="_uaLchvtrCkmkdotETUY-35" value="Kiểm tra email hợp lệ" style="html=1;align=center;verticalAlign=top;rounded=1;absoluteArcSize=1;arcSize=10;dashed=0;whiteSpace=wrap;" parent="1" vertex="1">
          <mxGeometry x="685" y="-690" width="140" height="40" as="geometry" />
        </mxCell>
        <mxCell id="_uaLchvtrCkmkdotETUY-36" value="" style="endArrow=open;html=1;rounded=0;align=center;verticalAlign=top;endFill=0;labelBackgroundColor=none;endSize=6;exitX=0.5;exitY=1;exitDx=0;exitDy=0;entryX=0.5;entryY=0;entryDx=0;entryDy=0;" parent="1" source="_uaLchvtrCkmkdotETUY-33" target="_uaLchvtrCkmkdotETUY-35" edge="1">
          <mxGeometry relative="1" as="geometry">
            <mxPoint x="780" y="-670" as="targetPoint" />
            <mxPoint x="780" y="-700" as="sourcePoint" />
          </mxGeometry>
        </mxCell>
        <mxCell id="_uaLchvtrCkmkdotETUY-37" value="" style="strokeWidth=2;html=1;shape=mxgraph.flowchart.decision;whiteSpace=wrap;fillColor=#004C99;" parent="1" vertex="1">
          <mxGeometry x="740" y="-620" width="30" height="30" as="geometry" />
        </mxCell>
        <mxCell id="_uaLchvtrCkmkdotETUY-38" value="" style="endArrow=open;html=1;rounded=0;align=center;verticalAlign=top;endFill=0;labelBackgroundColor=none;endSize=6;exitX=0.5;exitY=1;exitDx=0;exitDy=0;entryX=0.5;entryY=0;entryDx=0;entryDy=0;entryPerimeter=0;" parent="1" source="_uaLchvtrCkmkdotETUY-35" target="_uaLchvtrCkmkdotETUY-37" edge="1">
          <mxGeometry relative="1" as="geometry">
            <mxPoint x="430" y="-670" as="targetPoint" />
            <mxPoint x="430" y="-710" as="sourcePoint" />
          </mxGeometry>
        </mxCell>
        <mxCell id="_uaLchvtrCkmkdotETUY-39" value="[invalid]." style="endArrow=open;html=1;rounded=0;align=center;verticalAlign=bottom;endFill=0;labelBackgroundColor=none;exitX=1;exitY=0.5;exitDx=0;exitDy=0;exitPerimeter=0;entryX=0.519;entryY=0;entryDx=0;entryDy=0;entryPerimeter=0;" parent="1" source="_uaLchvtrCkmkdotETUY-37" target="_uaLchvtrCkmkdotETUY-44" edge="1">
          <mxGeometry x="0.0021" relative="1" as="geometry">
            <mxPoint x="800" y="-540" as="sourcePoint" />
            <mxPoint x="880" y="-500" as="targetPoint" />
            <Array as="points">
              <mxPoint x="880" y="-605" />
            </Array>
            <mxPoint as="offset" />
          </mxGeometry>
        </mxCell>
        <mxCell id="_uaLchvtrCkmkdotETUY-40" value="" style="resizable=0;html=1;align=center;verticalAlign=top;labelBackgroundColor=none;" parent="_uaLchvtrCkmkdotETUY-39" connectable="0" vertex="1">
          <mxGeometry relative="1" as="geometry" />
        </mxCell>
        <mxCell id="_uaLchvtrCkmkdotETUY-41" value="[valid]." style="endArrow=open;html=1;rounded=0;align=center;verticalAlign=bottom;endFill=0;labelBackgroundColor=none;exitX=0;exitY=0.5;exitDx=0;exitDy=0;exitPerimeter=0;entryX=0.5;entryY=0;entryDx=0;entryDy=0;" parent="1" source="_uaLchvtrCkmkdotETUY-37" target="_uaLchvtrCkmkdotETUY-43" edge="1">
          <mxGeometry relative="1" as="geometry">
            <mxPoint x="565" y="-540" as="sourcePoint" />
            <mxPoint x="490" y="-495" as="targetPoint" />
            <Array as="points">
              <mxPoint x="660" y="-605" />
            </Array>
          </mxGeometry>
        </mxCell>
        <mxCell id="_uaLchvtrCkmkdotETUY-42" value="" style="resizable=0;html=1;align=center;verticalAlign=top;labelBackgroundColor=none;" parent="_uaLchvtrCkmkdotETUY-41" connectable="0" vertex="1">
          <mxGeometry relative="1" as="geometry" />
        </mxCell>
        <mxCell id="_uaLchvtrCkmkdotETUY-43" value="Hiển thị form đổi mật khẩu&amp;nbsp;" style="html=1;align=center;verticalAlign=top;rounded=1;absoluteArcSize=1;arcSize=10;dashed=0;whiteSpace=wrap;" parent="1" vertex="1">
          <mxGeometry x="610" y="-580" width="100" height="40" as="geometry" />
        </mxCell>
        <mxCell id="_uaLchvtrCkmkdotETUY-44" value="Hiển thị lỗi và màn hình nhập lại email&amp;nbsp;" style="html=1;align=center;verticalAlign=top;rounded=1;absoluteArcSize=1;arcSize=10;dashed=0;whiteSpace=wrap;" parent="1" vertex="1">
          <mxGeometry x="810" y="-580" width="135" height="40" as="geometry" />
        </mxCell>
        <mxCell id="_uaLchvtrCkmkdotETUY-45" value="" style="endArrow=open;html=1;rounded=0;align=center;verticalAlign=bottom;endFill=0;labelBackgroundColor=none;exitX=1;exitY=0.5;exitDx=0;exitDy=0;entryX=0.999;entryY=0.622;entryDx=0;entryDy=0;entryPerimeter=0;" parent="1" edge="1">
          <mxGeometry x="-0.037" relative="1" as="geometry">
            <mxPoint x="397.5" y="-812.5" as="sourcePoint" />
            <mxPoint x="267.5" y="-947.5" as="targetPoint" />
            <Array as="points">
              <mxPoint x="407.5" y="-812.5" />
              <mxPoint x="407.5" y="-947.5" />
            </Array>
            <mxPoint as="offset" />
          </mxGeometry>
        </mxCell>
        <mxCell id="_uaLchvtrCkmkdotETUY-46" value="" style="resizable=0;html=1;align=center;verticalAlign=top;labelBackgroundColor=none;" parent="_uaLchvtrCkmkdotETUY-45" connectable="0" vertex="1">
          <mxGeometry relative="1" as="geometry">
            <mxPoint x="35" y="140" as="offset" />
          </mxGeometry>
        </mxCell>
        <mxCell id="_uaLchvtrCkmkdotETUY-48" value="Điền thông tin&amp;nbsp;" style="html=1;align=center;verticalAlign=top;rounded=1;absoluteArcSize=1;arcSize=10;dashed=0;whiteSpace=wrap;" parent="1" vertex="1">
          <mxGeometry x="610" y="-507.29999999999995" width="100" height="30" as="geometry" />
        </mxCell>
        <mxCell id="_uaLchvtrCkmkdotETUY-49" value="" style="strokeWidth=2;html=1;shape=mxgraph.flowchart.decision;whiteSpace=wrap;fillColor=#004C99;" parent="1" vertex="1">
          <mxGeometry x="645" y="-457.29999999999995" width="30" height="30" as="geometry" />
        </mxCell>
        <mxCell id="_uaLchvtrCkmkdotETUY-50" value="" style="endArrow=open;html=1;rounded=0;align=center;verticalAlign=top;endFill=0;labelBackgroundColor=none;endSize=6;entryX=0.5;entryY=0;entryDx=0;entryDy=0;exitX=0.5;exitY=1;exitDx=0;exitDy=0;" parent="1" source="_uaLchvtrCkmkdotETUY-43" target="_uaLchvtrCkmkdotETUY-48" edge="1">
          <mxGeometry relative="1" as="geometry">
            <mxPoint x="770" y="-540" as="targetPoint" />
            <mxPoint x="660" y="-460" as="sourcePoint" />
          </mxGeometry>
        </mxCell>
        <mxCell id="_uaLchvtrCkmkdotETUY-51" value="" style="endArrow=open;html=1;rounded=0;align=center;verticalAlign=top;endFill=0;labelBackgroundColor=none;endSize=6;exitX=0.5;exitY=1;exitDx=0;exitDy=0;entryX=0.5;entryY=0;entryDx=0;entryDy=0;entryPerimeter=0;" parent="1" source="_uaLchvtrCkmkdotETUY-48" target="_uaLchvtrCkmkdotETUY-49" edge="1">
          <mxGeometry relative="1" as="geometry">
            <mxPoint x="780" y="-607.3" as="targetPoint" />
            <mxPoint x="780" y="-637.3" as="sourcePoint" />
          </mxGeometry>
        </mxCell>
        <mxCell id="_uaLchvtrCkmkdotETUY-60" value="[Confirm]." style="endArrow=open;html=1;rounded=0;align=center;verticalAlign=bottom;endFill=0;labelBackgroundColor=none;exitX=1;exitY=0.5;exitDx=0;exitDy=0;exitPerimeter=0;" parent="1" source="_uaLchvtrCkmkdotETUY-49" edge="1">
          <mxGeometry relative="1" as="geometry">
            <mxPoint x="775" y="-407.29999999999995" as="sourcePoint" />
            <mxPoint x="740" y="-442.29999999999995" as="targetPoint" />
            <Array as="points" />
            <mxPoint as="offset" />
          </mxGeometry>
        </mxCell>
        <mxCell id="_uaLchvtrCkmkdotETUY-61" value="" style="resizable=0;html=1;align=center;verticalAlign=top;labelBackgroundColor=none;" parent="_uaLchvtrCkmkdotETUY-60" connectable="0" vertex="1">
          <mxGeometry relative="1" as="geometry" />
        </mxCell>
        <mxCell id="_uaLchvtrCkmkdotETUY-62" value="" style="strokeWidth=2;html=1;shape=mxgraph.flowchart.decision;whiteSpace=wrap;fillColor=#004C99;" parent="1" vertex="1">
          <mxGeometry x="740" y="-457.29999999999995" width="30" height="30" as="geometry" />
        </mxCell>
        <mxCell id="_uaLchvtrCkmkdotETUY-63" value="&lt;font size=&quot;1&quot;&gt;Check?&lt;/font&gt;" style="text;html=1;strokeColor=none;fillColor=none;align=center;verticalAlign=middle;whiteSpace=wrap;rounded=0;" parent="1" vertex="1">
          <mxGeometry x="765" y="-452.29999999999995" width="60" height="20" as="geometry" />
        </mxCell>
        <mxCell id="_uaLchvtrCkmkdotETUY-64" value="[False]." style="endArrow=open;html=1;rounded=0;align=center;verticalAlign=bottom;endFill=0;labelBackgroundColor=none;exitX=0.5;exitY=0;exitDx=0;exitDy=0;exitPerimeter=0;entryX=0.5;entryY=1;entryDx=0;entryDy=0;" parent="1" source="_uaLchvtrCkmkdotETUY-62" target="_uaLchvtrCkmkdotETUY-68" edge="1">
          <mxGeometry relative="1" as="geometry">
            <mxPoint x="730" y="-415.23" as="sourcePoint" />
            <mxPoint x="755" y="-430" as="targetPoint" />
            <Array as="points" />
            <mxPoint as="offset" />
          </mxGeometry>
        </mxCell>
        <mxCell id="_uaLchvtrCkmkdotETUY-65" value="" style="resizable=0;html=1;align=center;verticalAlign=top;labelBackgroundColor=none;" parent="_uaLchvtrCkmkdotETUY-64" connectable="0" vertex="1">
          <mxGeometry relative="1" as="geometry" />
        </mxCell>
        <mxCell id="_uaLchvtrCkmkdotETUY-66" value="[True]." style="endArrow=open;html=1;rounded=0;align=center;verticalAlign=bottom;endFill=0;labelBackgroundColor=none;exitX=0.5;exitY=1;exitDx=0;exitDy=0;exitPerimeter=0;" parent="1" source="_uaLchvtrCkmkdotETUY-62" edge="1">
          <mxGeometry relative="1" as="geometry">
            <mxPoint x="765" y="-447.29999999999995" as="sourcePoint" />
            <mxPoint x="755" y="-377.29999999999995" as="targetPoint" />
            <Array as="points" />
            <mxPoint as="offset" />
          </mxGeometry>
        </mxCell>
        <mxCell id="_uaLchvtrCkmkdotETUY-67" value="" style="resizable=0;html=1;align=center;verticalAlign=top;labelBackgroundColor=none;" parent="_uaLchvtrCkmkdotETUY-66" connectable="0" vertex="1">
          <mxGeometry relative="1" as="geometry" />
        </mxCell>
        <mxCell id="_uaLchvtrCkmkdotETUY-68" value="Báo lỗi" style="html=1;align=center;verticalAlign=top;rounded=1;absoluteArcSize=1;arcSize=10;dashed=0;whiteSpace=wrap;" parent="1" vertex="1">
          <mxGeometry x="727.5" y="-575" width="55" height="30" as="geometry" />
        </mxCell>
        <mxCell id="_uaLchvtrCkmkdotETUY-73" value="Thay đổi mật khẩu&amp;nbsp;" style="html=1;align=center;verticalAlign=top;rounded=1;absoluteArcSize=1;arcSize=10;dashed=0;whiteSpace=wrap;" parent="1" vertex="1">
          <mxGeometry x="695" y="-377.29999999999995" width="120" height="30" as="geometry" />
        </mxCell>
        <mxCell id="_uaLchvtrCkmkdotETUY-74" value="Báo thành công" style="html=1;align=center;verticalAlign=top;rounded=1;absoluteArcSize=1;arcSize=10;dashed=0;whiteSpace=wrap;" parent="1" vertex="1">
          <mxGeometry x="695" y="-307.29999999999995" width="120" height="30" as="geometry" />
        </mxCell>
        <mxCell id="_uaLchvtrCkmkdotETUY-75" value="" style="endArrow=open;html=1;rounded=0;align=center;verticalAlign=top;endFill=0;labelBackgroundColor=none;endSize=6;exitX=0.5;exitY=1;exitDx=0;exitDy=0;entryX=0.5;entryY=0;entryDx=0;entryDy=0;" parent="1" source="_uaLchvtrCkmkdotETUY-73" target="_uaLchvtrCkmkdotETUY-74" edge="1">
          <mxGeometry relative="1" as="geometry">
            <mxPoint x="670" y="-497.29999999999995" as="targetPoint" />
            <mxPoint x="670" y="-527.3" as="sourcePoint" />
          </mxGeometry>
        </mxCell>
        <mxCell id="_uaLchvtrCkmkdotETUY-76" value="" style="endArrow=open;html=1;rounded=0;align=center;verticalAlign=top;endFill=0;labelBackgroundColor=none;endSize=6;exitX=0.5;exitY=1;exitDx=0;exitDy=0;entryX=0.5;entryY=0;entryDx=0;entryDy=0;" parent="1" source="_uaLchvtrCkmkdotETUY-20" target="_uaLchvtrCkmkdotETUY-78" edge="1">
          <mxGeometry relative="1" as="geometry">
            <mxPoint x="17.5" y="-615" as="targetPoint" />
            <mxPoint x="212.5" y="-1030" as="sourcePoint" />
          </mxGeometry>
        </mxCell>
        <mxCell id="_uaLchvtrCkmkdotETUY-78" value="" style="ellipse;html=1;shape=endState;fillColor=strokeColor;" parent="1" vertex="1">
          <mxGeometry x="97.5" y="-715" width="30" height="30" as="geometry" />
        </mxCell>
        <mxCell id="_uaLchvtrCkmkdotETUY-79" value="user kết thúc đăng nhập" style="text;html=1;strokeColor=none;fillColor=none;align=center;verticalAlign=middle;whiteSpace=wrap;rounded=0;" parent="1" vertex="1">
          <mxGeometry x="68.75" y="-675" width="87.5" height="30" as="geometry" />
        </mxCell>
        <mxCell id="_uaLchvtrCkmkdotETUY-81" value="" style="ellipse;fillColor=strokeColor;html=1;" parent="1" vertex="1">
          <mxGeometry x="-797.5" y="-1055" width="30" height="30" as="geometry" />
        </mxCell>
        <mxCell id="_uaLchvtrCkmkdotETUY-82" value="user đăng kí" style="text;html=1;strokeColor=none;fillColor=none;align=center;verticalAlign=middle;whiteSpace=wrap;rounded=0;" parent="1" vertex="1">
          <mxGeometry x="-840" y="-1030" width="115" height="30" as="geometry" />
        </mxCell>
        <mxCell id="_uaLchvtrCkmkdotETUY-83" value="Hiển thị form đăng kí" style="html=1;align=center;verticalAlign=top;rounded=1;absoluteArcSize=1;arcSize=10;dashed=0;whiteSpace=wrap;" parent="1" vertex="1">
          <mxGeometry x="-567.5" y="-1060" width="140" height="40" as="geometry" />
        </mxCell>
        <mxCell id="_uaLchvtrCkmkdotETUY-85" value="Điền thông tin đăng kí" style="html=1;align=center;verticalAlign=top;rounded=1;absoluteArcSize=1;arcSize=10;dashed=0;whiteSpace=wrap;" parent="1" vertex="1">
          <mxGeometry x="-567.5" y="-995" width="140" height="40" as="geometry" />
        </mxCell>
        <mxCell id="_uaLchvtrCkmkdotETUY-86" value="" style="strokeWidth=2;html=1;shape=mxgraph.flowchart.decision;whiteSpace=wrap;fillColor=#004C99;" parent="1" vertex="1">
          <mxGeometry x="-512.5" y="-935" width="30" height="30" as="geometry" />
        </mxCell>
        <mxCell id="_uaLchvtrCkmkdotETUY-87" value="" style="endArrow=open;startArrow=none;endFill=0;startFill=0;endSize=8;html=1;verticalAlign=bottom;labelBackgroundColor=none;strokeWidth=1;rounded=0;exitX=0.5;exitY=1;exitDx=0;exitDy=0;" parent="1" source="_uaLchvtrCkmkdotETUY-83" target="_uaLchvtrCkmkdotETUY-85" edge="1">
          <mxGeometry width="160" relative="1" as="geometry">
            <mxPoint x="-627.5" y="-1040" as="sourcePoint" />
            <mxPoint x="-557.5" y="-1040" as="targetPoint" />
          </mxGeometry>
        </mxCell>
        <mxCell id="_uaLchvtrCkmkdotETUY-88" value="" style="endArrow=open;startArrow=none;endFill=0;startFill=0;endSize=8;html=1;verticalAlign=bottom;labelBackgroundColor=none;strokeWidth=1;rounded=0;exitX=0.5;exitY=1;exitDx=0;exitDy=0;entryX=0.5;entryY=0;entryDx=0;entryDy=0;entryPerimeter=0;" parent="1" source="_uaLchvtrCkmkdotETUY-85" target="_uaLchvtrCkmkdotETUY-86" edge="1">
          <mxGeometry width="160" relative="1" as="geometry">
            <mxPoint x="-617.5" y="-1030" as="sourcePoint" />
            <mxPoint x="-547.5" y="-1030" as="targetPoint" />
          </mxGeometry>
        </mxCell>
        <mxCell id="_uaLchvtrCkmkdotETUY-89" value="Báo lỗi như sau:&lt;br&gt;Tên đăng nhập đã tồn tại&lt;br&gt;Email đã tồn tại&amp;nbsp;&lt;br&gt;Mật khẩu đã tồn tại&lt;br&gt;Mặt khẩu phải dài từ 8-32 kí và phải có ít nhất 1 kí tự đặt biệt" style="html=1;align=left;verticalAlign=top;rounded=1;absoluteArcSize=1;arcSize=10;dashed=0;whiteSpace=wrap;" parent="1" vertex="1">
          <mxGeometry x="-767.5" y="-935" width="155" height="110" as="geometry" />
        </mxCell>
        <mxCell id="_uaLchvtrCkmkdotETUY-90" value="[Fales]" style="endArrow=open;html=1;rounded=0;align=center;verticalAlign=bottom;endFill=0;labelBackgroundColor=none;entryX=0.996;entryY=0.139;entryDx=0;entryDy=0;exitX=0;exitY=0.5;exitDx=0;exitDy=0;exitPerimeter=0;entryPerimeter=0;" parent="1" source="_uaLchvtrCkmkdotETUY-86" target="_uaLchvtrCkmkdotETUY-89" edge="1">
          <mxGeometry relative="1" as="geometry">
            <mxPoint x="-507.5" y="-785" as="sourcePoint" />
            <mxPoint x="-417.5" y="-915" as="targetPoint" />
          </mxGeometry>
        </mxCell>
        <mxCell id="_uaLchvtrCkmkdotETUY-91" value="" style="resizable=0;html=1;align=center;verticalAlign=top;labelBackgroundColor=none;" parent="_uaLchvtrCkmkdotETUY-90" connectable="0" vertex="1">
          <mxGeometry relative="1" as="geometry" />
        </mxCell>
        <mxCell id="_uaLchvtrCkmkdotETUY-92" value="" style="endArrow=open;startArrow=none;endFill=0;startFill=0;endSize=8;html=1;verticalAlign=bottom;labelBackgroundColor=none;strokeWidth=1;rounded=0;exitX=0.5;exitY=0;exitDx=0;exitDy=0;entryX=0;entryY=0.5;entryDx=0;entryDy=0;" parent="1" source="_uaLchvtrCkmkdotETUY-89" target="_uaLchvtrCkmkdotETUY-85" edge="1">
          <mxGeometry width="160" relative="1" as="geometry">
            <mxPoint x="-627.5" y="-1040" as="sourcePoint" />
            <mxPoint x="-557.5" y="-1040" as="targetPoint" />
            <Array as="points">
              <mxPoint x="-689.5" y="-975" />
            </Array>
          </mxGeometry>
        </mxCell>
        <mxCell id="_uaLchvtrCkmkdotETUY-93" value="&lt;font size=&quot;1&quot;&gt;Check?&lt;/font&gt;" style="text;html=1;strokeColor=none;fillColor=none;align=center;verticalAlign=middle;whiteSpace=wrap;rounded=0;" parent="1" vertex="1">
          <mxGeometry x="-520" y="-905" width="45" height="20" as="geometry" />
        </mxCell>
        <mxCell id="_uaLchvtrCkmkdotETUY-94" value="[True]" style="endArrow=open;html=1;rounded=0;align=center;verticalAlign=bottom;endFill=0;labelBackgroundColor=none;exitX=1;exitY=0.5;exitDx=0;exitDy=0;exitPerimeter=0;" parent="1" source="_uaLchvtrCkmkdotETUY-86" edge="1">
          <mxGeometry x="-0.003" relative="1" as="geometry">
            <mxPoint x="-356.5" y="-920.4" as="sourcePoint" />
            <mxPoint x="-397.5" y="-920" as="targetPoint" />
            <mxPoint as="offset" />
          </mxGeometry>
        </mxCell>
        <mxCell id="_uaLchvtrCkmkdotETUY-95" value="" style="resizable=0;html=1;align=center;verticalAlign=top;labelBackgroundColor=none;" parent="_uaLchvtrCkmkdotETUY-94" connectable="0" vertex="1">
          <mxGeometry relative="1" as="geometry" />
        </mxCell>
        <mxCell id="_uaLchvtrCkmkdotETUY-96" value="Thêm tài khoản" style="html=1;align=center;verticalAlign=top;rounded=1;absoluteArcSize=1;arcSize=10;dashed=0;whiteSpace=wrap;" parent="1" vertex="1">
          <mxGeometry x="-397.5" y="-935" width="130" height="30" as="geometry" />
        </mxCell>
        <mxCell id="_uaLchvtrCkmkdotETUY-99" value="Gửi email kích hoạt" style="html=1;align=center;verticalAlign=top;rounded=1;absoluteArcSize=1;arcSize=10;dashed=0;whiteSpace=wrap;" parent="1" vertex="1">
          <mxGeometry x="-397.5" y="-875" width="130" height="30" as="geometry" />
        </mxCell>
        <mxCell id="_uaLchvtrCkmkdotETUY-100" value="" style="endArrow=open;startArrow=none;endFill=0;startFill=0;endSize=8;html=1;verticalAlign=bottom;labelBackgroundColor=none;strokeWidth=1;rounded=0;exitX=0.538;exitY=1;exitDx=0;exitDy=0;exitPerimeter=0;entryX=0.533;entryY=-0.005;entryDx=0;entryDy=0;entryPerimeter=0;" parent="1" source="_uaLchvtrCkmkdotETUY-96" target="_uaLchvtrCkmkdotETUY-99" edge="1">
          <mxGeometry width="160" relative="1" as="geometry">
            <mxPoint x="-327.5" y="-897.5" as="sourcePoint" />
            <mxPoint x="-327.5" y="-872.5" as="targetPoint" />
          </mxGeometry>
        </mxCell>
        <mxCell id="_uaLchvtrCkmkdotETUY-101" value="Thông báo kích hoạt thành công&amp;nbsp;" style="html=1;align=center;verticalAlign=top;rounded=1;absoluteArcSize=1;arcSize=10;dashed=0;whiteSpace=wrap;" parent="1" vertex="1">
          <mxGeometry x="-397.5" y="-815" width="130" height="40" as="geometry" />
        </mxCell>
        <mxCell id="_uaLchvtrCkmkdotETUY-102" value="" style="endArrow=open;startArrow=none;endFill=0;startFill=0;endSize=8;html=1;verticalAlign=bottom;labelBackgroundColor=none;strokeWidth=1;rounded=0;exitX=0.5;exitY=1;exitDx=0;exitDy=0;entryX=0.5;entryY=0;entryDx=0;entryDy=0;" parent="1" source="_uaLchvtrCkmkdotETUY-99" target="_uaLchvtrCkmkdotETUY-101" edge="1">
          <mxGeometry width="160" relative="1" as="geometry">
            <mxPoint x="-317.5" y="-895" as="sourcePoint" />
            <mxPoint x="-317.5" y="-866" as="targetPoint" />
          </mxGeometry>
        </mxCell>
        <mxCell id="_uaLchvtrCkmkdotETUY-103" value="" style="endArrow=open;startArrow=none;endFill=0;startFill=0;endSize=8;html=1;verticalAlign=bottom;labelBackgroundColor=none;strokeWidth=1;rounded=0;exitX=0.5;exitY=1;exitDx=0;exitDy=0;" parent="1" source="_uaLchvtrCkmkdotETUY-101" edge="1">
          <mxGeometry width="160" relative="1" as="geometry">
            <mxPoint x="-322.5" y="-835" as="sourcePoint" />
            <mxPoint x="-332.5" y="-735" as="targetPoint" />
          </mxGeometry>
        </mxCell>
        <mxCell id="_uaLchvtrCkmkdotETUY-104" value="Hiện form đăng nhập" style="html=1;align=center;verticalAlign=top;rounded=1;absoluteArcSize=1;arcSize=10;dashed=0;whiteSpace=wrap;" parent="1" vertex="1">
          <mxGeometry x="-402.5" y="-735" width="130" height="40" as="geometry" />
        </mxCell>
        <mxCell id="_uaLchvtrCkmkdotETUY-105" value="" style="ellipse;html=1;shape=endState;fillColor=strokeColor;" parent="1" vertex="1">
          <mxGeometry x="-352.5" y="-665" width="30" height="30" as="geometry" />
        </mxCell>
        <mxCell id="_uaLchvtrCkmkdotETUY-106" value="" style="endArrow=open;startArrow=none;endFill=0;startFill=0;endSize=8;html=1;verticalAlign=bottom;labelBackgroundColor=none;strokeWidth=1;rounded=0;exitX=0.5;exitY=1;exitDx=0;exitDy=0;entryX=0.5;entryY=0;entryDx=0;entryDy=0;" parent="1" source="_uaLchvtrCkmkdotETUY-104" target="_uaLchvtrCkmkdotETUY-105" edge="1">
          <mxGeometry width="160" relative="1" as="geometry">
            <mxPoint x="-322.5" y="-765" as="sourcePoint" />
            <mxPoint x="-322.5" y="-725" as="targetPoint" />
          </mxGeometry>
        </mxCell>
        <mxCell id="_uaLchvtrCkmkdotETUY-119" value="Mở app" style="html=1;align=center;verticalAlign=top;rounded=1;absoluteArcSize=1;arcSize=10;dashed=0;whiteSpace=wrap;" parent="1" vertex="1">
          <mxGeometry x="5" y="-1075" width="70" height="30" as="geometry" />
        </mxCell>
        <mxCell id="_uaLchvtrCkmkdotETUY-120" value="" style="endArrow=open;startArrow=none;endFill=0;startFill=0;endSize=8;html=1;verticalAlign=bottom;labelBackgroundColor=none;strokeWidth=1;rounded=0;exitX=1;exitY=0.5;exitDx=0;exitDy=0;entryX=0;entryY=0.5;entryDx=0;entryDy=0;" parent="1" source="_uaLchvtrCkmkdotETUY-119" target="_uaLchvtrCkmkdotETUY-2" edge="1">
          <mxGeometry width="160" relative="1" as="geometry">
            <mxPoint x="-27.5" y="-1050" as="sourcePoint" />
            <mxPoint x="15.5" y="-1050" as="targetPoint" />
          </mxGeometry>
        </mxCell>
        <mxCell id="_uaLchvtrCkmkdotETUY-121" value="Mở app" style="html=1;align=center;verticalAlign=top;rounded=1;absoluteArcSize=1;arcSize=10;dashed=0;whiteSpace=wrap;" parent="1" vertex="1">
          <mxGeometry x="-702.5" y="-1055" width="70" height="30" as="geometry" />
        </mxCell>
        <mxCell id="_uaLchvtrCkmkdotETUY-122" value="" style="endArrow=open;startArrow=none;endFill=0;startFill=0;endSize=8;html=1;verticalAlign=bottom;labelBackgroundColor=none;strokeWidth=1;rounded=0;exitX=1;exitY=0.5;exitDx=0;exitDy=0;entryX=0;entryY=0.5;entryDx=0;entryDy=0;" parent="1" source="_uaLchvtrCkmkdotETUY-81" target="_uaLchvtrCkmkdotETUY-121" edge="1">
          <mxGeometry width="160" relative="1" as="geometry">
            <mxPoint x="-357.5" y="-1030" as="sourcePoint" />
            <mxPoint x="-707.5" y="-1040" as="targetPoint" />
          </mxGeometry>
        </mxCell>
        <mxCell id="_uaLchvtrCkmkdotETUY-125" value="" style="endArrow=open;startArrow=none;endFill=0;startFill=0;endSize=8;html=1;verticalAlign=bottom;labelBackgroundColor=none;strokeWidth=1;rounded=0;exitX=1;exitY=0.5;exitDx=0;exitDy=0;entryX=0;entryY=0.5;entryDx=0;entryDy=0;" parent="1" source="_uaLchvtrCkmkdotETUY-121" target="_uaLchvtrCkmkdotETUY-83" edge="1">
          <mxGeometry width="160" relative="1" as="geometry">
            <mxPoint x="-757.5" y="-1040" as="sourcePoint" />
            <mxPoint x="-692.5" y="-1040" as="targetPoint" />
          </mxGeometry>
        </mxCell>
        <mxCell id="_uaLchvtrCkmkdotETUY-126" value="" style="ellipse;fillColor=strokeColor;html=1;" parent="1" vertex="1">
          <mxGeometry x="740" y="-1075" width="30" height="30" as="geometry" />
        </mxCell>
        <mxCell id="_uaLchvtrCkmkdotETUY-127" value="Chọn quên mật khẩu" style="html=1;align=center;verticalAlign=top;rounded=1;absoluteArcSize=1;arcSize=10;dashed=0;whiteSpace=wrap;" parent="1" vertex="1">
          <mxGeometry x="685" y="-880" width="140" height="40" as="geometry" />
        </mxCell>
        <mxCell id="_uaLchvtrCkmkdotETUY-128" value="" style="endArrow=open;startArrow=none;endFill=0;startFill=0;endSize=8;html=1;verticalAlign=bottom;labelBackgroundColor=none;strokeWidth=1;rounded=0;exitX=0.5;exitY=1;exitDx=0;exitDy=0;entryX=0.5;entryY=0;entryDx=0;entryDy=0;" parent="1" source="_uaLchvtrCkmkdotETUY-132" target="_uaLchvtrCkmkdotETUY-127" edge="1">
          <mxGeometry width="160" relative="1" as="geometry">
            <mxPoint x="782.5" y="-870" as="sourcePoint" />
            <mxPoint x="753" y="-1055" as="targetPoint" />
          </mxGeometry>
        </mxCell>
        <mxCell id="_uaLchvtrCkmkdotETUY-129" value="" style="endArrow=open;startArrow=none;endFill=0;startFill=0;endSize=8;html=1;verticalAlign=bottom;labelBackgroundColor=none;strokeWidth=1;rounded=0;exitX=0.5;exitY=1;exitDx=0;exitDy=0;entryX=0.5;entryY=0;entryDx=0;entryDy=0;" parent="1" source="_uaLchvtrCkmkdotETUY-127" target="_uaLchvtrCkmkdotETUY-31" edge="1">
          <mxGeometry width="160" relative="1" as="geometry">
            <mxPoint x="748" y="-1075" as="sourcePoint" />
            <mxPoint x="748" y="-1045" as="targetPoint" />
          </mxGeometry>
        </mxCell>
        <mxCell id="_uaLchvtrCkmkdotETUY-130" value="user quên MK" style="text;html=1;strokeColor=none;fillColor=none;align=center;verticalAlign=middle;whiteSpace=wrap;rounded=0;" parent="1" vertex="1">
          <mxGeometry x="770" y="-1080" width="115" height="30" as="geometry" />
        </mxCell>
        <mxCell id="_uaLchvtrCkmkdotETUY-131" value="Mở app" style="html=1;align=center;verticalAlign=top;rounded=1;absoluteArcSize=1;arcSize=10;dashed=0;whiteSpace=wrap;" parent="1" vertex="1">
          <mxGeometry x="720" y="-1000" width="70" height="30" as="geometry" />
        </mxCell>
        <mxCell id="_uaLchvtrCkmkdotETUY-132" value="Hiển thị form đăng nhập" style="html=1;align=center;verticalAlign=top;rounded=1;absoluteArcSize=1;arcSize=10;dashed=0;whiteSpace=wrap;" parent="1" vertex="1">
          <mxGeometry x="685" y="-940" width="140" height="40" as="geometry" />
        </mxCell>
        <mxCell id="_uaLchvtrCkmkdotETUY-133" value="" style="endArrow=open;startArrow=none;endFill=0;startFill=0;endSize=8;html=1;verticalAlign=bottom;labelBackgroundColor=none;strokeWidth=1;rounded=0;exitX=0.5;exitY=1;exitDx=0;exitDy=0;entryX=0.5;entryY=0;entryDx=0;entryDy=0;" parent="1" source="_uaLchvtrCkmkdotETUY-131" target="_uaLchvtrCkmkdotETUY-132" edge="1">
          <mxGeometry width="160" relative="1" as="geometry">
            <mxPoint x="780" y="-890" as="sourcePoint" />
            <mxPoint x="778" y="-820" as="targetPoint" />
          </mxGeometry>
        </mxCell>
        <mxCell id="_uaLchvtrCkmkdotETUY-134" value="" style="endArrow=open;startArrow=none;endFill=0;startFill=0;endSize=8;html=1;verticalAlign=bottom;labelBackgroundColor=none;strokeWidth=1;rounded=0;exitX=0.5;exitY=1;exitDx=0;exitDy=0;entryX=0.5;entryY=0;entryDx=0;entryDy=0;" parent="1" source="_uaLchvtrCkmkdotETUY-126" target="_uaLchvtrCkmkdotETUY-131" edge="1">
          <mxGeometry width="160" relative="1" as="geometry">
            <mxPoint x="765" y="-960" as="sourcePoint" />
            <mxPoint x="780" y="-930" as="targetPoint" />
          </mxGeometry>
        </mxCell>
        <mxCell id="_uaLchvtrCkmkdotETUY-137" value="" style="endArrow=open;html=1;rounded=0;align=center;verticalAlign=top;endFill=0;labelBackgroundColor=none;endSize=6;exitX=0;exitY=0.5;exitDx=0;exitDy=0;entryX=1;entryY=0.5;entryDx=0;entryDy=0;" parent="1" source="_uaLchvtrCkmkdotETUY-68" target="_uaLchvtrCkmkdotETUY-43" edge="1">
          <mxGeometry relative="1" as="geometry">
            <mxPoint x="765" y="-610" as="targetPoint" />
            <mxPoint x="765" y="-640" as="sourcePoint" />
          </mxGeometry>
        </mxCell>
        <mxCell id="_uaLchvtrCkmkdotETUY-138" value="" style="ellipse;fillColor=strokeColor;html=1;" parent="1" vertex="1">
          <mxGeometry x="1020" y="-1070" width="30" height="30" as="geometry" />
        </mxCell>
        <mxCell id="_uaLchvtrCkmkdotETUY-139" value="user chọn hàng" style="text;html=1;strokeColor=none;fillColor=none;align=center;verticalAlign=middle;whiteSpace=wrap;rounded=0;" parent="1" vertex="1">
          <mxGeometry x="982.5" y="-1035" width="115" height="30" as="geometry" />
        </mxCell>
        <mxCell id="_uaLchvtrCkmkdotETUY-140" value="Mở app" style="html=1;align=center;verticalAlign=top;rounded=1;absoluteArcSize=1;arcSize=10;dashed=0;whiteSpace=wrap;" parent="1" vertex="1">
          <mxGeometry x="1077.5" y="-1070" width="70" height="30" as="geometry" />
        </mxCell>
        <mxCell id="_uaLchvtrCkmkdotETUY-141" value="Hiển thị Menu có sẵn" style="html=1;align=center;verticalAlign=top;rounded=1;absoluteArcSize=1;arcSize=10;dashed=0;whiteSpace=wrap;" parent="1" vertex="1">
          <mxGeometry x="1280" y="-1075" width="140" height="40" as="geometry" />
        </mxCell>
        <mxCell id="_uaLchvtrCkmkdotETUY-142" value="" style="endArrow=open;startArrow=none;endFill=0;startFill=0;endSize=8;html=1;verticalAlign=bottom;labelBackgroundColor=none;strokeWidth=1;rounded=0;exitX=1;exitY=0.5;exitDx=0;exitDy=0;entryX=0;entryY=0.5;entryDx=0;entryDy=0;" parent="1" source="_uaLchvtrCkmkdotETUY-138" target="_uaLchvtrCkmkdotETUY-140" edge="1">
          <mxGeometry width="160" relative="1" as="geometry">
            <mxPoint x="1060.5" y="-1495" as="sourcePoint" />
            <mxPoint x="1125.5" y="-1495" as="targetPoint" />
          </mxGeometry>
        </mxCell>
        <mxCell id="_uaLchvtrCkmkdotETUY-143" value="" style="endArrow=open;startArrow=none;endFill=0;startFill=0;endSize=8;html=1;verticalAlign=bottom;labelBackgroundColor=none;strokeWidth=1;rounded=0;exitX=1;exitY=0.5;exitDx=0;exitDy=0;entryX=0;entryY=0.5;entryDx=0;entryDy=0;" parent="1" source="_uaLchvtrCkmkdotETUY-140" target="_uaLchvtrCkmkdotETUY-191" edge="1">
          <mxGeometry width="160" relative="1" as="geometry">
            <mxPoint x="1060.5" y="-1045" as="sourcePoint" />
            <mxPoint x="1117.5" y="-1045" as="targetPoint" />
          </mxGeometry>
        </mxCell>
        <mxCell id="_uaLchvtrCkmkdotETUY-145" value="" style="endArrow=open;startArrow=none;endFill=0;startFill=0;endSize=8;html=1;verticalAlign=bottom;labelBackgroundColor=none;strokeWidth=1;rounded=0;exitX=0.5;exitY=1;exitDx=0;exitDy=0;entryX=0.5;entryY=0;entryDx=0;entryDy=0;entryPerimeter=0;" parent="1" source="_uaLchvtrCkmkdotETUY-141" target="_uaLchvtrCkmkdotETUY-148" edge="1">
          <mxGeometry width="160" relative="1" as="geometry">
            <mxPoint x="1250" y="-1045" as="sourcePoint" />
            <mxPoint x="1350" y="-1003" as="targetPoint" />
          </mxGeometry>
        </mxCell>
        <mxCell id="_uaLchvtrCkmkdotETUY-146" value="Tìm kiếm sản phẩm bằng thanh tìm kiếm" style="html=1;align=center;verticalAlign=top;rounded=1;absoluteArcSize=1;arcSize=10;dashed=0;whiteSpace=wrap;" parent="1" vertex="1">
          <mxGeometry x="1155" y="-982.3" width="140" height="40" as="geometry" />
        </mxCell>
        <mxCell id="_uaLchvtrCkmkdotETUY-147" value="tìm kiếm sản phẩm bằng&amp;nbsp;&lt;br&gt;list item" style="html=1;align=center;verticalAlign=top;rounded=1;absoluteArcSize=1;arcSize=10;dashed=0;whiteSpace=wrap;" parent="1" vertex="1">
          <mxGeometry x="1397.5" y="-982.3" width="140" height="40" as="geometry" />
        </mxCell>
        <mxCell id="_uaLchvtrCkmkdotETUY-148" value="" style="strokeWidth=2;html=1;shape=mxgraph.flowchart.decision;whiteSpace=wrap;fillColor=#FFFFFF;" parent="1" vertex="1">
          <mxGeometry x="1335" y="-1010" width="30" height="30" as="geometry" />
        </mxCell>
        <mxCell id="_uaLchvtrCkmkdotETUY-149" value="" style="endArrow=open;startArrow=none;endFill=0;startFill=0;endSize=8;html=1;verticalAlign=bottom;labelBackgroundColor=none;strokeWidth=1;rounded=0;exitX=0;exitY=0.5;exitDx=0;exitDy=0;entryX=1;entryY=0.5;entryDx=0;entryDy=0;exitPerimeter=0;" parent="1" source="_uaLchvtrCkmkdotETUY-148" target="_uaLchvtrCkmkdotETUY-146" edge="1">
          <mxGeometry width="160" relative="1" as="geometry">
            <mxPoint x="1250" y="-1045" as="sourcePoint" />
            <mxPoint x="1300.2800000000002" y="-964.78" as="targetPoint" />
          </mxGeometry>
        </mxCell>
        <mxCell id="_uaLchvtrCkmkdotETUY-152" value="" style="endArrow=open;startArrow=none;endFill=0;startFill=0;endSize=8;html=1;verticalAlign=bottom;labelBackgroundColor=none;strokeWidth=1;rounded=0;exitX=1;exitY=0.5;exitDx=0;exitDy=0;entryX=0;entryY=0.5;entryDx=0;entryDy=0;exitPerimeter=0;" parent="1" source="_uaLchvtrCkmkdotETUY-148" target="_uaLchvtrCkmkdotETUY-147" edge="1">
          <mxGeometry width="160" relative="1" as="geometry">
            <mxPoint x="1345" y="-985" as="sourcePoint" />
            <mxPoint x="1293" y="-985" as="targetPoint" />
          </mxGeometry>
        </mxCell>
        <mxCell id="_uaLchvtrCkmkdotETUY-153" value="" style="strokeWidth=2;html=1;shape=mxgraph.flowchart.decision;whiteSpace=wrap;fillColor=#FFFFFF;" parent="1" vertex="1">
          <mxGeometry x="1335" y="-892.3" width="30" height="30" as="geometry" />
        </mxCell>
        <mxCell id="_uaLchvtrCkmkdotETUY-154" value="" style="endArrow=open;startArrow=none;endFill=0;startFill=0;endSize=8;html=1;verticalAlign=bottom;labelBackgroundColor=none;strokeWidth=1;rounded=0;exitX=0.5;exitY=1;exitDx=0;exitDy=0;entryX=0;entryY=0.5;entryDx=0;entryDy=0;entryPerimeter=0;" parent="1" source="_uaLchvtrCkmkdotETUY-146" target="_uaLchvtrCkmkdotETUY-153" edge="1">
          <mxGeometry width="160" relative="1" as="geometry">
            <mxPoint x="1230" y="-942.3" as="sourcePoint" />
            <mxPoint x="1310" y="-955" as="targetPoint" />
          </mxGeometry>
        </mxCell>
        <mxCell id="_uaLchvtrCkmkdotETUY-155" value="" style="endArrow=open;startArrow=none;endFill=0;startFill=0;endSize=8;html=1;verticalAlign=bottom;labelBackgroundColor=none;strokeWidth=1;rounded=0;entryX=1;entryY=0.5;entryDx=0;entryDy=0;entryPerimeter=0;exitX=0.5;exitY=1;exitDx=0;exitDy=0;" parent="1" source="_uaLchvtrCkmkdotETUY-147" target="_uaLchvtrCkmkdotETUY-153" edge="1">
          <mxGeometry width="160" relative="1" as="geometry">
            <mxPoint x="1480" y="-925" as="sourcePoint" />
            <mxPoint x="1320" y="-945" as="targetPoint" />
          </mxGeometry>
        </mxCell>
        <mxCell id="_uaLchvtrCkmkdotETUY-156" value="List menu" style="html=1;align=center;verticalAlign=top;rounded=1;absoluteArcSize=1;arcSize=10;dashed=0;whiteSpace=wrap;" parent="1" vertex="1">
          <mxGeometry x="1295" y="-842.3" width="110" height="40" as="geometry" />
        </mxCell>
        <mxCell id="_uaLchvtrCkmkdotETUY-157" value="Lựa chọn" style="text;html=1;strokeColor=none;fillColor=none;align=center;verticalAlign=middle;whiteSpace=wrap;rounded=0;" parent="1" vertex="1">
          <mxGeometry x="1316.25" y="-982.3" width="67.5" height="30" as="geometry" />
        </mxCell>
        <mxCell id="_uaLchvtrCkmkdotETUY-158" value="" style="endArrow=open;startArrow=none;endFill=0;startFill=0;endSize=8;html=1;verticalAlign=bottom;labelBackgroundColor=none;strokeWidth=1;rounded=0;exitX=0.5;exitY=1;exitDx=0;exitDy=0;entryX=0.5;entryY=0;entryDx=0;entryDy=0;exitPerimeter=0;" parent="1" source="_uaLchvtrCkmkdotETUY-153" target="_uaLchvtrCkmkdotETUY-156" edge="1">
          <mxGeometry width="160" relative="1" as="geometry">
            <mxPoint x="1240" y="-932" as="sourcePoint" />
            <mxPoint x="1345" y="-867" as="targetPoint" />
          </mxGeometry>
        </mxCell>
        <mxCell id="_uaLchvtrCkmkdotETUY-159" value="chọn sản phẩm để xem thông tin sản phẩm" style="html=1;align=center;verticalAlign=top;rounded=1;absoluteArcSize=1;arcSize=10;dashed=0;whiteSpace=wrap;" parent="1" vertex="1">
          <mxGeometry x="1280" y="-777.3" width="140" height="40" as="geometry" />
        </mxCell>
        <mxCell id="_uaLchvtrCkmkdotETUY-160" value="" style="endArrow=open;startArrow=none;endFill=0;startFill=0;endSize=8;html=1;verticalAlign=bottom;labelBackgroundColor=none;strokeWidth=1;rounded=0;exitX=0.5;exitY=1;exitDx=0;exitDy=0;entryX=0.5;entryY=0;entryDx=0;entryDy=0;" parent="1" source="_uaLchvtrCkmkdotETUY-156" target="_uaLchvtrCkmkdotETUY-159" edge="1">
          <mxGeometry width="160" relative="1" as="geometry">
            <mxPoint x="1240" y="-932" as="sourcePoint" />
            <mxPoint x="1345" y="-867" as="targetPoint" />
          </mxGeometry>
        </mxCell>
        <mxCell id="_uaLchvtrCkmkdotETUY-161" value="người dùng thêm sản phẩm vào giỏ hàng" style="html=1;align=center;verticalAlign=top;rounded=1;absoluteArcSize=1;arcSize=10;dashed=0;whiteSpace=wrap;" parent="1" vertex="1">
          <mxGeometry x="1147.5" y="-655" width="140" height="40" as="geometry" />
        </mxCell>
        <mxCell id="_uaLchvtrCkmkdotETUY-162" value="" style="endArrow=open;startArrow=none;endFill=0;startFill=0;endSize=8;html=1;verticalAlign=bottom;labelBackgroundColor=none;strokeWidth=1;rounded=0;exitX=0.5;exitY=1;exitDx=0;exitDy=0;entryX=0.5;entryY=0;entryDx=0;entryDy=0;exitPerimeter=0;" parent="1" source="_uaLchvtrCkmkdotETUY-163" edge="1">
          <mxGeometry width="160" relative="1" as="geometry">
            <mxPoint x="1360" y="-792" as="sourcePoint" />
            <mxPoint x="1280" y="-655" as="targetPoint" />
          </mxGeometry>
        </mxCell>
        <mxCell id="_uaLchvtrCkmkdotETUY-163" value="" style="strokeWidth=2;html=1;shape=mxgraph.flowchart.decision;whiteSpace=wrap;fillColor=#FFFFFF;" parent="1" vertex="1">
          <mxGeometry x="1335" y="-715" width="30" height="30" as="geometry" />
        </mxCell>
        <mxCell id="_uaLchvtrCkmkdotETUY-164" value="" style="endArrow=open;startArrow=none;endFill=0;startFill=0;endSize=8;html=1;verticalAlign=bottom;labelBackgroundColor=none;strokeWidth=1;rounded=0;exitX=0.5;exitY=1;exitDx=0;exitDy=0;entryX=0.5;entryY=0;entryDx=0;entryDy=0;entryPerimeter=0;" parent="1" source="_uaLchvtrCkmkdotETUY-159" target="_uaLchvtrCkmkdotETUY-163" edge="1">
          <mxGeometry width="160" relative="1" as="geometry">
            <mxPoint x="1240" y="-932" as="sourcePoint" />
            <mxPoint x="1345" y="-867" as="targetPoint" />
          </mxGeometry>
        </mxCell>
        <mxCell id="_uaLchvtrCkmkdotETUY-165" value="Tiếp tục chọn sản phẩm" style="html=1;align=center;verticalAlign=top;rounded=1;absoluteArcSize=1;arcSize=10;dashed=0;whiteSpace=wrap;" parent="1" vertex="1">
          <mxGeometry x="1365" y="-655" width="136.25" height="40" as="geometry" />
        </mxCell>
        <mxCell id="_uaLchvtrCkmkdotETUY-166" value="" style="endArrow=open;startArrow=none;endFill=0;startFill=0;endSize=8;html=1;verticalAlign=bottom;labelBackgroundColor=none;strokeWidth=1;rounded=0;exitX=0.5;exitY=1;exitDx=0;exitDy=0;entryX=0.5;entryY=0;entryDx=0;entryDy=0;exitPerimeter=0;" parent="1" source="_uaLchvtrCkmkdotETUY-163" target="_uaLchvtrCkmkdotETUY-165" edge="1">
          <mxGeometry width="160" relative="1" as="geometry">
            <mxPoint x="1360" y="-675" as="sourcePoint" />
            <mxPoint x="1290" y="-645" as="targetPoint" />
          </mxGeometry>
        </mxCell>
        <mxCell id="_uaLchvtrCkmkdotETUY-167" value="" style="endArrow=open;startArrow=none;endFill=0;startFill=0;endSize=8;html=1;verticalAlign=bottom;labelBackgroundColor=none;strokeWidth=1;rounded=0;exitX=1;exitY=0.5;exitDx=0;exitDy=0;entryX=1;entryY=0.5;entryDx=0;entryDy=0;" parent="1" source="_uaLchvtrCkmkdotETUY-165" target="_uaLchvtrCkmkdotETUY-141" edge="1">
          <mxGeometry width="160" relative="1" as="geometry">
            <mxPoint x="1478" y="-932" as="sourcePoint" />
            <mxPoint x="1590" y="-695" as="targetPoint" />
            <Array as="points">
              <mxPoint x="1560" y="-635" />
              <mxPoint x="1560" y="-1055" />
            </Array>
          </mxGeometry>
        </mxCell>
        <mxCell id="_uaLchvtrCkmkdotETUY-172" value="Lựa chọn" style="text;html=1;strokeColor=none;fillColor=none;align=center;verticalAlign=middle;whiteSpace=wrap;rounded=0;" parent="1" vertex="1">
          <mxGeometry x="1367.5" y="-715" width="67.5" height="30" as="geometry" />
        </mxCell>
        <mxCell id="_uaLchvtrCkmkdotETUY-173" value="" style="ellipse;html=1;shape=endState;fillColor=strokeColor;" parent="1" vertex="1">
          <mxGeometry x="1265" y="-575" width="30" height="30" as="geometry" />
        </mxCell>
        <mxCell id="_uaLchvtrCkmkdotETUY-174" value="" style="endArrow=open;startArrow=none;endFill=0;startFill=0;endSize=8;html=1;verticalAlign=bottom;labelBackgroundColor=none;strokeWidth=1;rounded=0;exitX=0.5;exitY=1;exitDx=0;exitDy=0;entryX=0.5;entryY=0;entryDx=0;entryDy=0;" parent="1" target="_uaLchvtrCkmkdotETUY-173" edge="1">
          <mxGeometry width="160" relative="1" as="geometry">
            <mxPoint x="1280" y="-615" as="sourcePoint" />
            <mxPoint x="1290" y="-645" as="targetPoint" />
          </mxGeometry>
        </mxCell>
        <mxCell id="_uaLchvtrCkmkdotETUY-175" value="user kết thúc chọn hàng" style="text;html=1;strokeColor=none;fillColor=none;align=center;verticalAlign=middle;whiteSpace=wrap;rounded=0;" parent="1" vertex="1">
          <mxGeometry x="1140" y="-545" width="147.5" height="30" as="geometry" />
        </mxCell>
        <mxCell id="_uaLchvtrCkmkdotETUY-176" value="user kết thúc đăng kí" style="text;html=1;strokeColor=none;fillColor=none;align=center;verticalAlign=middle;whiteSpace=wrap;rounded=0;" parent="1" vertex="1">
          <mxGeometry x="-378.75" y="-635" width="87.5" height="30" as="geometry" />
        </mxCell>
        <mxCell id="_uaLchvtrCkmkdotETUY-177" value="" style="ellipse;fillColor=strokeColor;html=1;" parent="1" vertex="1">
          <mxGeometry x="1740" y="-1087.3" width="30" height="30" as="geometry" />
        </mxCell>
        <mxCell id="_uaLchvtrCkmkdotETUY-178" value="user chỉnh sửa giỏ hàng" style="text;html=1;strokeColor=none;fillColor=none;align=center;verticalAlign=middle;whiteSpace=wrap;rounded=0;" parent="1" vertex="1">
          <mxGeometry x="1707.5" y="-1057.3" width="132.5" height="30" as="geometry" />
        </mxCell>
        <mxCell id="_uaLchvtrCkmkdotETUY-179" value="Vào giỏ hàng" style="html=1;align=center;verticalAlign=top;rounded=1;absoluteArcSize=1;arcSize=10;dashed=0;whiteSpace=wrap;" parent="1" vertex="1">
          <mxGeometry x="2040" y="-1087.3" width="140" height="40" as="geometry" />
        </mxCell>
        <mxCell id="_uaLchvtrCkmkdotETUY-180" value="" style="endArrow=open;startArrow=none;endFill=0;startFill=0;endSize=8;html=1;verticalAlign=bottom;labelBackgroundColor=none;strokeWidth=1;rounded=0;exitX=1;exitY=0.5;exitDx=0;exitDy=0;entryX=-0.008;entryY=0.407;entryDx=0;entryDy=0;entryPerimeter=0;" parent="1" source="_uaLchvtrCkmkdotETUY-177" target="_uaLchvtrCkmkdotETUY-193" edge="1">
          <mxGeometry width="160" relative="1" as="geometry">
            <mxPoint x="1930" y="-1002.3" as="sourcePoint" />
            <mxPoint x="1820" y="-1072" as="targetPoint" />
          </mxGeometry>
        </mxCell>
        <mxCell id="_uaLchvtrCkmkdotETUY-181" value="người dùng có thể" style="strokeWidth=2;html=1;shape=mxgraph.flowchart.decision;whiteSpace=wrap;fillColor=#FFFFFF;" parent="1" vertex="1">
          <mxGeometry x="2050" y="-1032.3" width="120" height="80" as="geometry" />
        </mxCell>
        <mxCell id="_uaLchvtrCkmkdotETUY-182" value="" style="endArrow=open;startArrow=none;endFill=0;startFill=0;endSize=8;html=1;verticalAlign=bottom;labelBackgroundColor=none;strokeWidth=1;rounded=0;exitX=0.5;exitY=1;exitDx=0;exitDy=0;entryX=0.5;entryY=0;entryDx=0;entryDy=0;entryPerimeter=0;" parent="1" source="_uaLchvtrCkmkdotETUY-179" target="_uaLchvtrCkmkdotETUY-181" edge="1">
          <mxGeometry width="160" relative="1" as="geometry">
            <mxPoint x="1950" y="-1062.3" as="sourcePoint" />
            <mxPoint x="2052" y="-1062.3" as="targetPoint" />
          </mxGeometry>
        </mxCell>
        <mxCell id="_uaLchvtrCkmkdotETUY-183" value="" style="endArrow=open;startArrow=none;endFill=0;startFill=0;endSize=8;html=1;verticalAlign=bottom;labelBackgroundColor=none;strokeWidth=1;rounded=0;exitX=0.5;exitY=1;exitDx=0;exitDy=0;exitPerimeter=0;entryX=1;entryY=0.5;entryDx=0;entryDy=0;" parent="1" source="_uaLchvtrCkmkdotETUY-181" target="_uaLchvtrCkmkdotETUY-187" edge="1">
          <mxGeometry width="160" relative="1" as="geometry">
            <mxPoint x="1970" y="-852.3" as="sourcePoint" />
            <mxPoint x="2010" y="-927.3" as="targetPoint" />
          </mxGeometry>
        </mxCell>
        <mxCell id="_uaLchvtrCkmkdotETUY-184" value="" style="endArrow=open;startArrow=none;endFill=0;startFill=0;endSize=8;html=1;verticalAlign=bottom;labelBackgroundColor=none;strokeWidth=1;rounded=0;exitX=0.5;exitY=1;exitDx=0;exitDy=0;exitPerimeter=0;entryX=1;entryY=0;entryDx=0;entryDy=0;" parent="1" source="_uaLchvtrCkmkdotETUY-181" target="_uaLchvtrCkmkdotETUY-188" edge="1">
          <mxGeometry width="160" relative="1" as="geometry">
            <mxPoint x="2120" y="-942.3" as="sourcePoint" />
            <mxPoint x="2070" y="-897.3" as="targetPoint" />
          </mxGeometry>
        </mxCell>
        <mxCell id="_uaLchvtrCkmkdotETUY-185" value="" style="endArrow=open;startArrow=none;endFill=0;startFill=0;endSize=8;html=1;verticalAlign=bottom;labelBackgroundColor=none;strokeWidth=1;rounded=0;exitX=0.5;exitY=1;exitDx=0;exitDy=0;exitPerimeter=0;entryX=0;entryY=0;entryDx=0;entryDy=0;" parent="1" source="_uaLchvtrCkmkdotETUY-181" target="_uaLchvtrCkmkdotETUY-189" edge="1">
          <mxGeometry width="160" relative="1" as="geometry">
            <mxPoint x="2120" y="-942.3" as="sourcePoint" />
            <mxPoint x="2130" y="-897.3" as="targetPoint" />
          </mxGeometry>
        </mxCell>
        <mxCell id="_uaLchvtrCkmkdotETUY-186" value="" style="endArrow=open;startArrow=none;endFill=0;startFill=0;endSize=8;html=1;verticalAlign=bottom;labelBackgroundColor=none;strokeWidth=1;rounded=0;exitX=0.5;exitY=1;exitDx=0;exitDy=0;exitPerimeter=0;entryX=0;entryY=0.5;entryDx=0;entryDy=0;" parent="1" source="_uaLchvtrCkmkdotETUY-181" target="_uaLchvtrCkmkdotETUY-190" edge="1">
          <mxGeometry width="160" relative="1" as="geometry">
            <mxPoint x="2110" y="-957.3" as="sourcePoint" />
            <mxPoint x="2260" y="-917.3" as="targetPoint" />
          </mxGeometry>
        </mxCell>
        <mxCell id="_uaLchvtrCkmkdotETUY-187" value="Chỉnh số lượng sản phẩm&amp;nbsp;" style="html=1;align=center;verticalAlign=top;rounded=1;absoluteArcSize=1;arcSize=10;dashed=0;whiteSpace=wrap;" parent="1" vertex="1">
          <mxGeometry x="1750" y="-942.3" width="140" height="40" as="geometry" />
        </mxCell>
        <mxCell id="_uaLchvtrCkmkdotETUY-188" value="Xóa sản phẩm" style="html=1;align=center;verticalAlign=top;rounded=1;absoluteArcSize=1;arcSize=10;dashed=0;whiteSpace=wrap;" parent="1" vertex="1">
          <mxGeometry x="1940" y="-889.5999999999999" width="140" height="40" as="geometry" />
        </mxCell>
        <mxCell id="_uaLchvtrCkmkdotETUY-189" value="chọn kích thước và nhu cầu sản phẩm" style="html=1;align=center;verticalAlign=top;rounded=1;absoluteArcSize=1;arcSize=10;dashed=0;whiteSpace=wrap;" parent="1" vertex="1">
          <mxGeometry x="2120" y="-887.3" width="140" height="40" as="geometry" />
        </mxCell>
        <mxCell id="_uaLchvtrCkmkdotETUY-190" value="Đánh giá và bình luận" style="html=1;align=center;verticalAlign=top;rounded=1;absoluteArcSize=1;arcSize=10;dashed=0;whiteSpace=wrap;" parent="1" vertex="1">
          <mxGeometry x="2290" y="-939.9999999999999" width="140" height="40" as="geometry" />
        </mxCell>
        <mxCell id="_uaLchvtrCkmkdotETUY-191" value="&amp;nbsp;Đăng nhập" style="html=1;align=center;verticalAlign=top;rounded=1;absoluteArcSize=1;arcSize=10;dashed=0;whiteSpace=wrap;" parent="1" vertex="1">
          <mxGeometry x="1182.5" y="-1072.5" width="70" height="35" as="geometry" />
        </mxCell>
        <mxCell id="_uaLchvtrCkmkdotETUY-192" value="" style="endArrow=open;startArrow=none;endFill=0;startFill=0;endSize=8;html=1;verticalAlign=bottom;labelBackgroundColor=none;strokeWidth=1;rounded=0;exitX=1;exitY=0.5;exitDx=0;exitDy=0;entryX=0;entryY=0.5;entryDx=0;entryDy=0;" parent="1" source="_uaLchvtrCkmkdotETUY-191" target="_uaLchvtrCkmkdotETUY-141" edge="1">
          <mxGeometry width="160" relative="1" as="geometry">
            <mxPoint x="1158" y="-1045" as="sourcePoint" />
            <mxPoint x="1193" y="-1045" as="targetPoint" />
          </mxGeometry>
        </mxCell>
        <mxCell id="_uaLchvtrCkmkdotETUY-193" value="Mở app" style="html=1;align=center;verticalAlign=top;rounded=1;absoluteArcSize=1;arcSize=10;dashed=0;whiteSpace=wrap;" parent="1" vertex="1">
          <mxGeometry x="1810" y="-1085" width="70" height="30" as="geometry" />
        </mxCell>
        <mxCell id="_uaLchvtrCkmkdotETUY-194" value="&amp;nbsp;Đăng nhập" style="html=1;align=center;verticalAlign=top;rounded=1;absoluteArcSize=1;arcSize=10;dashed=0;whiteSpace=wrap;" parent="1" vertex="1">
          <mxGeometry x="1920" y="-1087.5" width="70" height="35" as="geometry" />
        </mxCell>
        <mxCell id="_uaLchvtrCkmkdotETUY-195" value="" style="endArrow=open;startArrow=none;endFill=0;startFill=0;endSize=8;html=1;verticalAlign=bottom;labelBackgroundColor=none;strokeWidth=1;rounded=0;exitX=1;exitY=0.5;exitDx=0;exitDy=0;entryX=0;entryY=0.5;entryDx=0;entryDy=0;" parent="1" source="_uaLchvtrCkmkdotETUY-193" target="_uaLchvtrCkmkdotETUY-194" edge="1">
          <mxGeometry width="160" relative="1" as="geometry">
            <mxPoint x="1780" y="-1062" as="sourcePoint" />
            <mxPoint x="1819" y="-1063" as="targetPoint" />
          </mxGeometry>
        </mxCell>
        <mxCell id="_uaLchvtrCkmkdotETUY-196" value="" style="endArrow=open;startArrow=none;endFill=0;startFill=0;endSize=8;html=1;verticalAlign=bottom;labelBackgroundColor=none;strokeWidth=1;rounded=0;exitX=1;exitY=0.5;exitDx=0;exitDy=0;entryX=0;entryY=0.5;entryDx=0;entryDy=0;" parent="1" source="_uaLchvtrCkmkdotETUY-194" target="_uaLchvtrCkmkdotETUY-179" edge="1">
          <mxGeometry width="160" relative="1" as="geometry">
            <mxPoint x="1890" y="-1060" as="sourcePoint" />
            <mxPoint x="1930" y="-1060" as="targetPoint" />
          </mxGeometry>
        </mxCell>
        <mxCell id="_uaLchvtrCkmkdotETUY-197" value="" style="strokeWidth=2;html=1;shape=mxgraph.flowchart.decision;whiteSpace=wrap;fillColor=#FFFFFF;" parent="1" vertex="1">
          <mxGeometry x="2090" y="-780" width="30" height="30" as="geometry" />
        </mxCell>
        <mxCell id="_uaLchvtrCkmkdotETUY-198" value="" style="endArrow=open;startArrow=none;endFill=0;startFill=0;endSize=8;html=1;verticalAlign=bottom;labelBackgroundColor=none;strokeWidth=1;rounded=0;exitX=0.75;exitY=1;exitDx=0;exitDy=0;entryX=0.5;entryY=0;entryDx=0;entryDy=0;entryPerimeter=0;" parent="1" source="_uaLchvtrCkmkdotETUY-190" target="_uaLchvtrCkmkdotETUY-197" edge="1">
          <mxGeometry width="160" relative="1" as="geometry">
            <mxPoint x="2120" y="-942" as="sourcePoint" />
            <mxPoint x="2225" y="-910" as="targetPoint" />
          </mxGeometry>
        </mxCell>
        <mxCell id="_uaLchvtrCkmkdotETUY-199" value="" style="endArrow=open;startArrow=none;endFill=0;startFill=0;endSize=8;html=1;verticalAlign=bottom;labelBackgroundColor=none;strokeWidth=1;rounded=0;exitX=0.25;exitY=1;exitDx=0;exitDy=0;entryX=0.5;entryY=0;entryDx=0;entryDy=0;entryPerimeter=0;" parent="1" source="_uaLchvtrCkmkdotETUY-187" target="_uaLchvtrCkmkdotETUY-197" edge="1">
          <mxGeometry width="160" relative="1" as="geometry">
            <mxPoint x="2405" y="-890" as="sourcePoint" />
            <mxPoint x="2115" y="-770" as="targetPoint" />
          </mxGeometry>
        </mxCell>
        <mxCell id="_uaLchvtrCkmkdotETUY-200" value="" style="endArrow=open;startArrow=none;endFill=0;startFill=0;endSize=8;html=1;verticalAlign=bottom;labelBackgroundColor=none;strokeWidth=1;rounded=0;exitX=0.5;exitY=1;exitDx=0;exitDy=0;entryX=0.5;entryY=0;entryDx=0;entryDy=0;entryPerimeter=0;" parent="1" source="_uaLchvtrCkmkdotETUY-188" target="_uaLchvtrCkmkdotETUY-197" edge="1">
          <mxGeometry width="160" relative="1" as="geometry">
            <mxPoint x="1795" y="-892" as="sourcePoint" />
            <mxPoint x="2115" y="-770" as="targetPoint" />
          </mxGeometry>
        </mxCell>
        <mxCell id="_uaLchvtrCkmkdotETUY-201" value="" style="endArrow=open;startArrow=none;endFill=0;startFill=0;endSize=8;html=1;verticalAlign=bottom;labelBackgroundColor=none;strokeWidth=1;rounded=0;exitX=0.5;exitY=1;exitDx=0;exitDy=0;entryX=0.5;entryY=0;entryDx=0;entryDy=0;entryPerimeter=0;" parent="1" source="_uaLchvtrCkmkdotETUY-189" target="_uaLchvtrCkmkdotETUY-197" edge="1">
          <mxGeometry width="160" relative="1" as="geometry">
            <mxPoint x="2020" y="-840" as="sourcePoint" />
            <mxPoint x="2115" y="-770" as="targetPoint" />
          </mxGeometry>
        </mxCell>
        <mxCell id="_uaLchvtrCkmkdotETUY-202" value="" style="endArrow=open;startArrow=none;endFill=0;startFill=0;endSize=8;html=1;verticalAlign=bottom;labelBackgroundColor=none;strokeWidth=1;rounded=0;exitX=0.5;exitY=1;exitDx=0;exitDy=0;exitPerimeter=0;entryX=0.5;entryY=0;entryDx=0;entryDy=0;" parent="1" source="_uaLchvtrCkmkdotETUY-197" target="_uaLchvtrCkmkdotETUY-203" edge="1">
          <mxGeometry width="160" relative="1" as="geometry">
            <mxPoint x="2120" y="-942" as="sourcePoint" />
            <mxPoint x="2105" y="-690" as="targetPoint" />
          </mxGeometry>
        </mxCell>
        <mxCell id="_uaLchvtrCkmkdotETUY-203" value="Chọn thanh toán" style="html=1;align=center;verticalAlign=top;rounded=1;absoluteArcSize=1;arcSize=10;dashed=0;whiteSpace=wrap;" parent="1" vertex="1">
          <mxGeometry x="2035" y="-720" width="140" height="40" as="geometry" />
        </mxCell>
        <mxCell id="_uaLchvtrCkmkdotETUY-204" value="" style="ellipse;html=1;shape=endState;fillColor=strokeColor;" parent="1" vertex="1">
          <mxGeometry x="2090" y="-635" width="30" height="30" as="geometry" />
        </mxCell>
        <mxCell id="_uaLchvtrCkmkdotETUY-205" value="" style="endArrow=open;startArrow=none;endFill=0;startFill=0;endSize=8;html=1;verticalAlign=bottom;labelBackgroundColor=none;strokeWidth=1;rounded=0;exitX=0.5;exitY=1;exitDx=0;exitDy=0;entryX=0.5;entryY=0;entryDx=0;entryDy=0;" parent="1" source="_uaLchvtrCkmkdotETUY-203" target="_uaLchvtrCkmkdotETUY-204" edge="1">
          <mxGeometry width="160" relative="1" as="geometry">
            <mxPoint x="1290" y="-605" as="sourcePoint" />
            <mxPoint x="1290" y="-565" as="targetPoint" />
          </mxGeometry>
        </mxCell>
        <mxCell id="_uaLchvtrCkmkdotETUY-206" value="" style="ellipse;fillColor=strokeColor;html=1;" parent="1" vertex="1">
          <mxGeometry x="1720" y="-515" width="30" height="30" as="geometry" />
        </mxCell>
        <mxCell id="_uaLchvtrCkmkdotETUY-207" value="Mở app" style="html=1;align=center;verticalAlign=top;rounded=1;absoluteArcSize=1;arcSize=10;dashed=0;whiteSpace=wrap;" parent="1" vertex="1">
          <mxGeometry x="1785" y="-515" width="70" height="30" as="geometry" />
        </mxCell>
        <mxCell id="_uaLchvtrCkmkdotETUY-208" value="&amp;nbsp;Đăng nhập" style="html=1;align=center;verticalAlign=top;rounded=1;absoluteArcSize=1;arcSize=10;dashed=0;whiteSpace=wrap;" parent="1" vertex="1">
          <mxGeometry x="1910" y="-517.5" width="70" height="35" as="geometry" />
        </mxCell>
        <mxCell id="_uaLchvtrCkmkdotETUY-209" value="Vào giỏ hàng" style="html=1;align=center;verticalAlign=top;rounded=1;absoluteArcSize=1;arcSize=10;dashed=0;whiteSpace=wrap;" parent="1" vertex="1">
          <mxGeometry x="2030" y="-520" width="140" height="40" as="geometry" />
        </mxCell>
        <mxCell id="_uaLchvtrCkmkdotETUY-210" value="Chọn thanh toán" style="html=1;align=center;verticalAlign=top;rounded=1;absoluteArcSize=1;arcSize=10;dashed=0;whiteSpace=wrap;" parent="1" vertex="1">
          <mxGeometry x="2030" y="-452.3" width="140" height="40" as="geometry" />
        </mxCell>
        <mxCell id="_uaLchvtrCkmkdotETUY-211" value="" style="endArrow=open;startArrow=none;endFill=0;startFill=0;endSize=8;html=1;verticalAlign=bottom;labelBackgroundColor=none;strokeWidth=1;rounded=0;exitX=1;exitY=0.5;exitDx=0;exitDy=0;entryX=0;entryY=0.5;entryDx=0;entryDy=0;" parent="1" source="_uaLchvtrCkmkdotETUY-206" target="_uaLchvtrCkmkdotETUY-207" edge="1">
          <mxGeometry width="160" relative="1" as="geometry">
            <mxPoint x="2115" y="-670" as="sourcePoint" />
            <mxPoint x="2115" y="-625" as="targetPoint" />
          </mxGeometry>
        </mxCell>
        <mxCell id="_uaLchvtrCkmkdotETUY-212" value="" style="endArrow=open;startArrow=none;endFill=0;startFill=0;endSize=8;html=1;verticalAlign=bottom;labelBackgroundColor=none;strokeWidth=1;rounded=0;exitX=1;exitY=0.5;exitDx=0;exitDy=0;entryX=0;entryY=0.5;entryDx=0;entryDy=0;" parent="1" source="_uaLchvtrCkmkdotETUY-207" target="_uaLchvtrCkmkdotETUY-208" edge="1">
          <mxGeometry width="160" relative="1" as="geometry">
            <mxPoint x="1760" y="-490" as="sourcePoint" />
            <mxPoint x="1795" y="-490" as="targetPoint" />
          </mxGeometry>
        </mxCell>
        <mxCell id="_uaLchvtrCkmkdotETUY-213" value="" style="endArrow=open;startArrow=none;endFill=0;startFill=0;endSize=8;html=1;verticalAlign=bottom;labelBackgroundColor=none;strokeWidth=1;rounded=0;exitX=1;exitY=0.5;exitDx=0;exitDy=0;entryX=0;entryY=0.5;entryDx=0;entryDy=0;" parent="1" source="_uaLchvtrCkmkdotETUY-208" target="_uaLchvtrCkmkdotETUY-209" edge="1">
          <mxGeometry width="160" relative="1" as="geometry">
            <mxPoint x="1770" y="-480" as="sourcePoint" />
            <mxPoint x="1805" y="-480" as="targetPoint" />
          </mxGeometry>
        </mxCell>
        <mxCell id="_uaLchvtrCkmkdotETUY-214" value="" style="endArrow=open;startArrow=none;endFill=0;startFill=0;endSize=8;html=1;verticalAlign=bottom;labelBackgroundColor=none;strokeWidth=1;rounded=0;exitX=0.5;exitY=1;exitDx=0;exitDy=0;entryX=0.5;entryY=0;entryDx=0;entryDy=0;" parent="1" source="_uaLchvtrCkmkdotETUY-209" target="_uaLchvtrCkmkdotETUY-210" edge="1">
          <mxGeometry width="160" relative="1" as="geometry">
            <mxPoint x="1990" y="-490" as="sourcePoint" />
            <mxPoint x="2040" y="-490" as="targetPoint" />
          </mxGeometry>
        </mxCell>
        <mxCell id="_uaLchvtrCkmkdotETUY-215" value="Use thanh toán" style="text;html=1;strokeColor=none;fillColor=none;align=center;verticalAlign=middle;whiteSpace=wrap;rounded=0;" parent="1" vertex="1">
          <mxGeometry x="1668.75" y="-487.29999999999995" width="132.5" height="30" as="geometry" />
        </mxCell>
        <mxCell id="_uaLchvtrCkmkdotETUY-217" value="" style="endArrow=open;startArrow=none;endFill=0;startFill=0;endSize=8;html=1;verticalAlign=bottom;labelBackgroundColor=none;strokeWidth=1;rounded=0;exitX=0.5;exitY=1;exitDx=0;exitDy=0;entryX=0.5;entryY=0;entryDx=0;entryDy=0;" parent="1" source="_uaLchvtrCkmkdotETUY-210" target="_uaLchvtrCkmkdotETUY-220" edge="1">
          <mxGeometry width="160" relative="1" as="geometry">
            <mxPoint x="1990" y="-490" as="sourcePoint" />
            <mxPoint x="2100" y="-380" as="targetPoint" />
          </mxGeometry>
        </mxCell>
        <mxCell id="_uaLchvtrCkmkdotETUY-220" value="Điền thông tin khách hàng, địa chỉ, v.v" style="html=1;align=center;verticalAlign=top;rounded=1;absoluteArcSize=1;arcSize=10;dashed=0;whiteSpace=wrap;" parent="1" vertex="1">
          <mxGeometry x="2030" y="-360" width="140" height="40" as="geometry" />
        </mxCell>
        <mxCell id="_uaLchvtrCkmkdotETUY-221" value="Phương thức thanh toán" style="html=1;align=center;verticalAlign=top;rounded=1;absoluteArcSize=1;arcSize=10;dashed=0;whiteSpace=wrap;" parent="1" vertex="1">
          <mxGeometry x="2030" y="-277.3" width="140" height="40" as="geometry" />
        </mxCell>
        <mxCell id="_uaLchvtrCkmkdotETUY-222" value="" style="endArrow=open;startArrow=none;endFill=0;startFill=0;endSize=8;html=1;verticalAlign=bottom;labelBackgroundColor=none;strokeWidth=1;rounded=0;entryX=0.5;entryY=0;entryDx=0;entryDy=0;exitX=0.5;exitY=1;exitDx=0;exitDy=0;" parent="1" source="_uaLchvtrCkmkdotETUY-220" target="_uaLchvtrCkmkdotETUY-221" edge="1">
          <mxGeometry width="160" relative="1" as="geometry">
            <mxPoint x="2150" y="-280" as="sourcePoint" />
            <mxPoint x="1970" y="-310" as="targetPoint" />
          </mxGeometry>
        </mxCell>
        <mxCell id="_uaLchvtrCkmkdotETUY-227" value="" style="strokeWidth=2;html=1;shape=mxgraph.flowchart.decision;whiteSpace=wrap;fillColor=#FFFFFF;" parent="1" vertex="1">
          <mxGeometry x="2085" y="-210" width="30" height="30" as="geometry" />
        </mxCell>
        <mxCell id="_uaLchvtrCkmkdotETUY-228" value="" style="endArrow=open;startArrow=none;endFill=0;startFill=0;endSize=8;html=1;verticalAlign=bottom;labelBackgroundColor=none;strokeWidth=1;rounded=0;entryX=0.5;entryY=0;entryDx=0;entryDy=0;exitX=0.5;exitY=1;exitDx=0;exitDy=0;entryPerimeter=0;" parent="1" source="_uaLchvtrCkmkdotETUY-221" target="_uaLchvtrCkmkdotETUY-227" edge="1">
          <mxGeometry width="160" relative="1" as="geometry">
            <mxPoint x="2110" y="-310" as="sourcePoint" />
            <mxPoint x="2110" y="-267" as="targetPoint" />
          </mxGeometry>
        </mxCell>
        <mxCell id="_uaLchvtrCkmkdotETUY-229" value="" style="endArrow=open;startArrow=none;endFill=0;startFill=0;endSize=8;html=1;verticalAlign=bottom;labelBackgroundColor=none;strokeWidth=1;rounded=0;exitX=0;exitY=0.5;exitDx=0;exitDy=0;exitPerimeter=0;entryX=0.5;entryY=0;entryDx=0;entryDy=0;" parent="1" source="_uaLchvtrCkmkdotETUY-227" target="_uaLchvtrCkmkdotETUY-231" edge="1">
          <mxGeometry width="160" relative="1" as="geometry">
            <mxPoint x="2110" y="-227" as="sourcePoint" />
            <mxPoint x="2050" y="-170" as="targetPoint" />
          </mxGeometry>
        </mxCell>
        <mxCell id="_uaLchvtrCkmkdotETUY-230" value="" style="endArrow=open;startArrow=none;endFill=0;startFill=0;endSize=8;html=1;verticalAlign=bottom;labelBackgroundColor=none;strokeWidth=1;rounded=0;exitX=1;exitY=0.5;exitDx=0;exitDy=0;exitPerimeter=0;entryX=0.5;entryY=0;entryDx=0;entryDy=0;" parent="1" source="_uaLchvtrCkmkdotETUY-227" target="_uaLchvtrCkmkdotETUY-232" edge="1">
          <mxGeometry width="160" relative="1" as="geometry">
            <mxPoint x="2220" y="-180" as="sourcePoint" />
            <mxPoint x="2150" y="-160" as="targetPoint" />
          </mxGeometry>
        </mxCell>
        <mxCell id="_uaLchvtrCkmkdotETUY-231" value="Tiền mặt" style="html=1;align=center;verticalAlign=top;rounded=1;absoluteArcSize=1;arcSize=10;dashed=0;whiteSpace=wrap;" parent="1" vertex="1">
          <mxGeometry x="1990" y="-170" width="85" height="40" as="geometry" />
        </mxCell>
        <mxCell id="_uaLchvtrCkmkdotETUY-232" value="Thẻ tín dụng" style="html=1;align=center;verticalAlign=top;rounded=1;absoluteArcSize=1;arcSize=10;dashed=0;whiteSpace=wrap;" parent="1" vertex="1">
          <mxGeometry x="2120" y="-170" width="85" height="40" as="geometry" />
        </mxCell>
        <mxCell id="_uaLchvtrCkmkdotETUY-233" value="Lựa chọn" style="text;html=1;strokeColor=none;fillColor=none;align=center;verticalAlign=middle;whiteSpace=wrap;rounded=0;" parent="1" vertex="1">
          <mxGeometry x="2066.25" y="-190" width="67.5" height="30" as="geometry" />
        </mxCell>
        <mxCell id="_uaLchvtrCkmkdotETUY-234" value="Điền thông tin&amp;nbsp;&lt;br&gt;thẻ tín dụng&amp;nbsp;" style="html=1;align=center;verticalAlign=top;rounded=1;absoluteArcSize=1;arcSize=10;dashed=0;whiteSpace=wrap;" parent="1" vertex="1">
          <mxGeometry x="2240" y="-170" width="85" height="40" as="geometry" />
        </mxCell>
        <mxCell id="_uaLchvtrCkmkdotETUY-235" value="" style="endArrow=open;startArrow=none;endFill=0;startFill=0;endSize=8;html=1;verticalAlign=bottom;labelBackgroundColor=none;strokeWidth=1;rounded=0;exitX=1;exitY=0.5;exitDx=0;exitDy=0;entryX=0;entryY=0.5;entryDx=0;entryDy=0;" parent="1" source="_uaLchvtrCkmkdotETUY-232" target="_uaLchvtrCkmkdotETUY-234" edge="1">
          <mxGeometry width="160" relative="1" as="geometry">
            <mxPoint x="2125" y="-185" as="sourcePoint" />
            <mxPoint x="2173" y="-160" as="targetPoint" />
          </mxGeometry>
        </mxCell>
        <mxCell id="_uaLchvtrCkmkdotETUY-236" value="Xác nhận thông tin" style="html=1;align=center;verticalAlign=top;rounded=1;absoluteArcSize=1;arcSize=10;dashed=0;whiteSpace=wrap;" parent="1" vertex="1">
          <mxGeometry x="2410" y="-170" width="85" height="40" as="geometry" />
        </mxCell>
        <mxCell id="_uaLchvtrCkmkdotETUY-238" value="" style="strokeWidth=2;html=1;shape=mxgraph.flowchart.decision;whiteSpace=wrap;fillColor=#FFFFFF;" parent="1" vertex="1">
          <mxGeometry x="2350" y="-165" width="30" height="30" as="geometry" />
        </mxCell>
        <mxCell id="_uaLchvtrCkmkdotETUY-239" value="" style="endArrow=open;startArrow=none;endFill=0;startFill=0;endSize=8;html=1;verticalAlign=bottom;labelBackgroundColor=none;strokeWidth=1;rounded=0;exitX=1.008;exitY=0.427;exitDx=0;exitDy=0;exitPerimeter=0;entryX=0;entryY=0.5;entryDx=0;entryDy=0;entryPerimeter=0;" parent="1" source="_uaLchvtrCkmkdotETUY-234" target="_uaLchvtrCkmkdotETUY-238" edge="1">
          <mxGeometry width="160" relative="1" as="geometry">
            <mxPoint x="2125" y="-185" as="sourcePoint" />
            <mxPoint x="2172" y="-160" as="targetPoint" />
          </mxGeometry>
        </mxCell>
        <mxCell id="_uaLchvtrCkmkdotETUY-240" value="hủy" style="html=1;align=center;verticalAlign=top;rounded=1;absoluteArcSize=1;arcSize=10;dashed=0;whiteSpace=wrap;" parent="1" vertex="1">
          <mxGeometry x="2410" y="-230" width="85" height="40" as="geometry" />
        </mxCell>
        <mxCell id="_uaLchvtrCkmkdotETUY-241" value="" style="endArrow=open;startArrow=none;endFill=0;startFill=0;endSize=8;html=1;verticalAlign=bottom;labelBackgroundColor=none;strokeWidth=1;rounded=0;exitX=1;exitY=0.5;exitDx=0;exitDy=0;exitPerimeter=0;entryX=0;entryY=0.5;entryDx=0;entryDy=0;" parent="1" source="_uaLchvtrCkmkdotETUY-238" target="_uaLchvtrCkmkdotETUY-236" edge="1">
          <mxGeometry width="160" relative="1" as="geometry">
            <mxPoint x="2336" y="-143" as="sourcePoint" />
            <mxPoint x="2360" y="-145" as="targetPoint" />
          </mxGeometry>
        </mxCell>
        <mxCell id="_uaLchvtrCkmkdotETUY-242" value="" style="endArrow=open;startArrow=none;endFill=0;startFill=0;endSize=8;html=1;verticalAlign=bottom;labelBackgroundColor=none;strokeWidth=1;rounded=0;exitX=0.5;exitY=0;exitDx=0;exitDy=0;exitPerimeter=0;entryX=0;entryY=0.5;entryDx=0;entryDy=0;" parent="1" source="_uaLchvtrCkmkdotETUY-238" target="_uaLchvtrCkmkdotETUY-240" edge="1">
          <mxGeometry width="160" relative="1" as="geometry">
            <mxPoint x="2346" y="-133" as="sourcePoint" />
            <mxPoint x="2370" y="-135" as="targetPoint" />
          </mxGeometry>
        </mxCell>
        <mxCell id="_uaLchvtrCkmkdotETUY-243" value="" style="endArrow=open;startArrow=none;endFill=0;startFill=0;endSize=8;html=1;verticalAlign=bottom;labelBackgroundColor=none;strokeWidth=1;rounded=0;exitX=0.473;exitY=0.004;exitDx=0;exitDy=0;entryX=1;entryY=0.5;entryDx=0;entryDy=0;exitPerimeter=0;" parent="1" source="_uaLchvtrCkmkdotETUY-240" target="_uaLchvtrCkmkdotETUY-221" edge="1">
          <mxGeometry width="160" relative="1" as="geometry">
            <mxPoint x="2356" y="-123" as="sourcePoint" />
            <mxPoint x="2380" y="-125" as="targetPoint" />
            <Array as="points">
              <mxPoint x="2450" y="-257" />
            </Array>
          </mxGeometry>
        </mxCell>
        <mxCell id="_uaLchvtrCkmkdotETUY-244" value="" style="strokeWidth=2;html=1;shape=mxgraph.flowchart.decision;whiteSpace=wrap;fillColor=#FFFFFF;" parent="1" vertex="1">
          <mxGeometry x="2085" y="-90" width="30" height="30" as="geometry" />
        </mxCell>
        <mxCell id="_uaLchvtrCkmkdotETUY-246" value="" style="endArrow=open;startArrow=none;endFill=0;startFill=0;endSize=8;html=1;verticalAlign=bottom;labelBackgroundColor=none;strokeWidth=1;rounded=0;exitX=0.5;exitY=1;exitDx=0;exitDy=0;entryX=0.5;entryY=0;entryDx=0;entryDy=0;entryPerimeter=0;" parent="1" source="_uaLchvtrCkmkdotETUY-232" target="_uaLchvtrCkmkdotETUY-244" edge="1">
          <mxGeometry width="160" relative="1" as="geometry">
            <mxPoint x="2215" y="-140" as="sourcePoint" />
            <mxPoint x="2250" y="-140" as="targetPoint" />
          </mxGeometry>
        </mxCell>
        <mxCell id="_uaLchvtrCkmkdotETUY-247" value="" style="endArrow=open;startArrow=none;endFill=0;startFill=0;endSize=8;html=1;verticalAlign=bottom;labelBackgroundColor=none;strokeWidth=1;rounded=0;exitX=0.5;exitY=1;exitDx=0;exitDy=0;entryX=0.5;entryY=0;entryDx=0;entryDy=0;entryPerimeter=0;" parent="1" source="_uaLchvtrCkmkdotETUY-231" target="_uaLchvtrCkmkdotETUY-244" edge="1">
          <mxGeometry width="160" relative="1" as="geometry">
            <mxPoint x="2225" y="-130" as="sourcePoint" />
            <mxPoint x="2260" y="-130" as="targetPoint" />
          </mxGeometry>
        </mxCell>
        <mxCell id="_uaLchvtrCkmkdotETUY-248" value="xác nhận thanh toán" style="html=1;align=center;verticalAlign=top;rounded=1;absoluteArcSize=1;arcSize=10;dashed=0;whiteSpace=wrap;" parent="1" vertex="1">
          <mxGeometry x="2057.5" y="-30" width="85" height="40" as="geometry" />
        </mxCell>
        <mxCell id="_uaLchvtrCkmkdotETUY-249" value="" style="endArrow=open;startArrow=none;endFill=0;startFill=0;endSize=8;html=1;verticalAlign=bottom;labelBackgroundColor=none;strokeWidth=1;rounded=0;exitX=0.5;exitY=1;exitDx=0;exitDy=0;entryX=0.5;entryY=0;entryDx=0;entryDy=0;exitPerimeter=0;" parent="1" source="_uaLchvtrCkmkdotETUY-244" target="_uaLchvtrCkmkdotETUY-248" edge="1">
          <mxGeometry width="160" relative="1" as="geometry">
            <mxPoint x="2173" y="-120" as="sourcePoint" />
            <mxPoint x="2110" y="-80" as="targetPoint" />
          </mxGeometry>
        </mxCell>
        <mxCell id="_uaLchvtrCkmkdotETUY-250" value="Cập nhật trạng thái đơn hàng" style="html=1;align=center;verticalAlign=top;rounded=1;absoluteArcSize=1;arcSize=10;dashed=0;whiteSpace=wrap;" parent="1" vertex="1">
          <mxGeometry x="2057.5" y="40" width="85" height="40" as="geometry" />
        </mxCell>
        <mxCell id="_uaLchvtrCkmkdotETUY-251" value="" style="endArrow=open;startArrow=none;endFill=0;startFill=0;endSize=8;html=1;verticalAlign=bottom;labelBackgroundColor=none;strokeWidth=1;rounded=0;exitX=0.5;exitY=1;exitDx=0;exitDy=0;entryX=0.5;entryY=0;entryDx=0;entryDy=0;" parent="1" source="_uaLchvtrCkmkdotETUY-248" target="_uaLchvtrCkmkdotETUY-250" edge="1">
          <mxGeometry width="160" relative="1" as="geometry">
            <mxPoint x="2110" y="-50" as="sourcePoint" />
            <mxPoint x="2110" y="-20" as="targetPoint" />
          </mxGeometry>
        </mxCell>
        <mxCell id="_uaLchvtrCkmkdotETUY-252" value="" style="endArrow=open;startArrow=none;endFill=0;startFill=0;endSize=8;html=1;verticalAlign=bottom;labelBackgroundColor=none;strokeWidth=1;rounded=0;exitX=0.5;exitY=1;exitDx=0;exitDy=0;entryX=0.5;entryY=0;entryDx=0;entryDy=0;" parent="1" source="_uaLchvtrCkmkdotETUY-250" target="_uaLchvtrCkmkdotETUY-253" edge="1">
          <mxGeometry width="160" relative="1" as="geometry">
            <mxPoint x="2110" y="20" as="sourcePoint" />
            <mxPoint x="2100" y="110" as="targetPoint" />
          </mxGeometry>
        </mxCell>
        <mxCell id="_uaLchvtrCkmkdotETUY-253" value="" style="ellipse;html=1;shape=endState;fillColor=strokeColor;" parent="1" vertex="1">
          <mxGeometry x="2085" y="120" width="30" height="30" as="geometry" />
        </mxCell>
        <mxCell id="_uaLchvtrCkmkdotETUY-255" value="Thay đổi mật khẩu" style="html=1;align=center;verticalAlign=top;rounded=1;absoluteArcSize=1;arcSize=10;dashed=0;whiteSpace=wrap;" parent="1" vertex="1">
          <mxGeometry x="-445" y="-39.99999999999996" width="140" height="40" as="geometry" />
        </mxCell>
        <mxCell id="_uaLchvtrCkmkdotETUY-256" value="" style="endArrow=open;html=1;rounded=0;align=center;verticalAlign=top;endFill=0;labelBackgroundColor=none;endSize=6;exitX=0.5;exitY=1;exitDx=0;exitDy=0;entryX=0.5;entryY=0;entryDx=0;entryDy=0;" parent="1" source="_uaLchvtrCkmkdotETUY-255" target="_uaLchvtrCkmkdotETUY-257" edge="1">
          <mxGeometry relative="1" as="geometry">
            <mxPoint x="-360" y="100.00000000000004" as="targetPoint" />
            <mxPoint x="-600" y="-74.99999999999996" as="sourcePoint" />
          </mxGeometry>
        </mxCell>
        <mxCell id="_uaLchvtrCkmkdotETUY-257" value="Nhập email" style="html=1;align=center;verticalAlign=top;rounded=1;absoluteArcSize=1;arcSize=10;dashed=0;whiteSpace=wrap;" parent="1" vertex="1">
          <mxGeometry x="-430" y="30.000000000000043" width="110" height="30" as="geometry" />
        </mxCell>
        <mxCell id="_uaLchvtrCkmkdotETUY-258" style="edgeStyle=orthogonalEdgeStyle;rounded=0;orthogonalLoop=1;jettySize=auto;html=1;exitX=0.5;exitY=1;exitDx=0;exitDy=0;" parent="1" source="_uaLchvtrCkmkdotETUY-257" target="_uaLchvtrCkmkdotETUY-257" edge="1">
          <mxGeometry relative="1" as="geometry" />
        </mxCell>
        <mxCell id="_uaLchvtrCkmkdotETUY-259" value="Kiểm tra email hợp lệ" style="html=1;align=center;verticalAlign=top;rounded=1;absoluteArcSize=1;arcSize=10;dashed=0;whiteSpace=wrap;" parent="1" vertex="1">
          <mxGeometry x="-445" y="90.00000000000004" width="140" height="40" as="geometry" />
        </mxCell>
        <mxCell id="_uaLchvtrCkmkdotETUY-260" value="" style="endArrow=open;html=1;rounded=0;align=center;verticalAlign=top;endFill=0;labelBackgroundColor=none;endSize=6;exitX=0.5;exitY=1;exitDx=0;exitDy=0;entryX=0.5;entryY=0;entryDx=0;entryDy=0;" parent="1" source="_uaLchvtrCkmkdotETUY-257" target="_uaLchvtrCkmkdotETUY-259" edge="1">
          <mxGeometry relative="1" as="geometry">
            <mxPoint x="-350" y="110.00000000000004" as="targetPoint" />
            <mxPoint x="-350" y="80.00000000000004" as="sourcePoint" />
          </mxGeometry>
        </mxCell>
        <mxCell id="_uaLchvtrCkmkdotETUY-261" value="" style="strokeWidth=2;html=1;shape=mxgraph.flowchart.decision;whiteSpace=wrap;fillColor=#004C99;" parent="1" vertex="1">
          <mxGeometry x="-390" y="160.00000000000006" width="30" height="30" as="geometry" />
        </mxCell>
        <mxCell id="_uaLchvtrCkmkdotETUY-262" value="" style="endArrow=open;html=1;rounded=0;align=center;verticalAlign=top;endFill=0;labelBackgroundColor=none;endSize=6;exitX=0.5;exitY=1;exitDx=0;exitDy=0;entryX=0.5;entryY=0;entryDx=0;entryDy=0;entryPerimeter=0;" parent="1" source="_uaLchvtrCkmkdotETUY-259" target="_uaLchvtrCkmkdotETUY-261" edge="1">
          <mxGeometry relative="1" as="geometry">
            <mxPoint x="-700" y="110.00000000000004" as="targetPoint" />
            <mxPoint x="-700" y="70.00000000000004" as="sourcePoint" />
          </mxGeometry>
        </mxCell>
        <mxCell id="_uaLchvtrCkmkdotETUY-263" value="[invalid]." style="endArrow=open;html=1;rounded=0;align=center;verticalAlign=bottom;endFill=0;labelBackgroundColor=none;exitX=1;exitY=0.5;exitDx=0;exitDy=0;exitPerimeter=0;entryX=0.519;entryY=0;entryDx=0;entryDy=0;entryPerimeter=0;" parent="1" source="_uaLchvtrCkmkdotETUY-261" target="_uaLchvtrCkmkdotETUY-268" edge="1">
          <mxGeometry x="0.0021" relative="1" as="geometry">
            <mxPoint x="-330" y="240.00000000000006" as="sourcePoint" />
            <mxPoint x="-250" y="280.00000000000006" as="targetPoint" />
            <Array as="points">
              <mxPoint x="-250" y="175.00000000000006" />
            </Array>
            <mxPoint as="offset" />
          </mxGeometry>
        </mxCell>
        <mxCell id="_uaLchvtrCkmkdotETUY-264" value="" style="resizable=0;html=1;align=center;verticalAlign=top;labelBackgroundColor=none;" parent="_uaLchvtrCkmkdotETUY-263" connectable="0" vertex="1">
          <mxGeometry relative="1" as="geometry" />
        </mxCell>
        <mxCell id="_uaLchvtrCkmkdotETUY-265" value="[valid]." style="endArrow=open;html=1;rounded=0;align=center;verticalAlign=bottom;endFill=0;labelBackgroundColor=none;exitX=0;exitY=0.5;exitDx=0;exitDy=0;exitPerimeter=0;entryX=0.5;entryY=0;entryDx=0;entryDy=0;" parent="1" source="_uaLchvtrCkmkdotETUY-261" target="_uaLchvtrCkmkdotETUY-267" edge="1">
          <mxGeometry relative="1" as="geometry">
            <mxPoint x="-565" y="240.00000000000006" as="sourcePoint" />
            <mxPoint x="-640" y="285.00000000000006" as="targetPoint" />
            <Array as="points">
              <mxPoint x="-470" y="175.00000000000006" />
            </Array>
          </mxGeometry>
        </mxCell>
        <mxCell id="_uaLchvtrCkmkdotETUY-266" value="" style="resizable=0;html=1;align=center;verticalAlign=top;labelBackgroundColor=none;" parent="_uaLchvtrCkmkdotETUY-265" connectable="0" vertex="1">
          <mxGeometry relative="1" as="geometry" />
        </mxCell>
        <mxCell id="_uaLchvtrCkmkdotETUY-267" value="Hiển thị form thay đổi mật khẩu&amp;nbsp;" style="html=1;align=center;verticalAlign=top;rounded=1;absoluteArcSize=1;arcSize=10;dashed=0;whiteSpace=wrap;" parent="1" vertex="1">
          <mxGeometry x="-520" y="200.00000000000006" width="100" height="40" as="geometry" />
        </mxCell>
        <mxCell id="_uaLchvtrCkmkdotETUY-268" value="Hiển thị lỗi và màn hình nhập lại email&amp;nbsp;" style="html=1;align=center;verticalAlign=top;rounded=1;absoluteArcSize=1;arcSize=10;dashed=0;whiteSpace=wrap;" parent="1" vertex="1">
          <mxGeometry x="-320" y="200.00000000000006" width="135" height="40" as="geometry" />
        </mxCell>
        <mxCell id="_uaLchvtrCkmkdotETUY-269" value="Điền thông tin&amp;nbsp;" style="html=1;align=center;verticalAlign=top;rounded=1;absoluteArcSize=1;arcSize=10;dashed=0;whiteSpace=wrap;" parent="1" vertex="1">
          <mxGeometry x="-520" y="272.7000000000001" width="100" height="30" as="geometry" />
        </mxCell>
        <mxCell id="_uaLchvtrCkmkdotETUY-270" value="" style="strokeWidth=2;html=1;shape=mxgraph.flowchart.decision;whiteSpace=wrap;fillColor=#004C99;" parent="1" vertex="1">
          <mxGeometry x="-485" y="322.7000000000001" width="30" height="30" as="geometry" />
        </mxCell>
        <mxCell id="_uaLchvtrCkmkdotETUY-271" value="" style="endArrow=open;html=1;rounded=0;align=center;verticalAlign=top;endFill=0;labelBackgroundColor=none;endSize=6;entryX=0.5;entryY=0;entryDx=0;entryDy=0;exitX=0.5;exitY=1;exitDx=0;exitDy=0;" parent="1" source="_uaLchvtrCkmkdotETUY-267" target="_uaLchvtrCkmkdotETUY-269" edge="1">
          <mxGeometry relative="1" as="geometry">
            <mxPoint x="-360" y="240.00000000000006" as="targetPoint" />
            <mxPoint x="-470" y="320.00000000000006" as="sourcePoint" />
          </mxGeometry>
        </mxCell>
        <mxCell id="_uaLchvtrCkmkdotETUY-272" value="" style="endArrow=open;html=1;rounded=0;align=center;verticalAlign=top;endFill=0;labelBackgroundColor=none;endSize=6;exitX=0.5;exitY=1;exitDx=0;exitDy=0;entryX=0.5;entryY=0;entryDx=0;entryDy=0;entryPerimeter=0;" parent="1" source="_uaLchvtrCkmkdotETUY-269" target="_uaLchvtrCkmkdotETUY-270" edge="1">
          <mxGeometry relative="1" as="geometry">
            <mxPoint x="-350" y="172.7000000000001" as="targetPoint" />
            <mxPoint x="-350" y="142.7000000000001" as="sourcePoint" />
          </mxGeometry>
        </mxCell>
        <mxCell id="_uaLchvtrCkmkdotETUY-273" value="[Confirm]." style="endArrow=open;html=1;rounded=0;align=center;verticalAlign=bottom;endFill=0;labelBackgroundColor=none;exitX=1;exitY=0.5;exitDx=0;exitDy=0;exitPerimeter=0;" parent="1" source="_uaLchvtrCkmkdotETUY-270" edge="1">
          <mxGeometry relative="1" as="geometry">
            <mxPoint x="-355" y="372.7000000000001" as="sourcePoint" />
            <mxPoint x="-390" y="337.7000000000001" as="targetPoint" />
            <Array as="points" />
            <mxPoint as="offset" />
          </mxGeometry>
        </mxCell>
        <mxCell id="_uaLchvtrCkmkdotETUY-274" value="" style="resizable=0;html=1;align=center;verticalAlign=top;labelBackgroundColor=none;" parent="_uaLchvtrCkmkdotETUY-273" connectable="0" vertex="1">
          <mxGeometry relative="1" as="geometry" />
        </mxCell>
        <mxCell id="_uaLchvtrCkmkdotETUY-275" value="" style="strokeWidth=2;html=1;shape=mxgraph.flowchart.decision;whiteSpace=wrap;fillColor=#004C99;" parent="1" vertex="1">
          <mxGeometry x="-390" y="322.7000000000001" width="30" height="30" as="geometry" />
        </mxCell>
        <mxCell id="_uaLchvtrCkmkdotETUY-276" value="&lt;font size=&quot;1&quot;&gt;Check?&lt;/font&gt;" style="text;html=1;strokeColor=none;fillColor=none;align=center;verticalAlign=middle;whiteSpace=wrap;rounded=0;" parent="1" vertex="1">
          <mxGeometry x="-365" y="327.7000000000001" width="60" height="20" as="geometry" />
        </mxCell>
        <mxCell id="_uaLchvtrCkmkdotETUY-277" value="[False]." style="endArrow=open;html=1;rounded=0;align=center;verticalAlign=bottom;endFill=0;labelBackgroundColor=none;exitX=0.5;exitY=0;exitDx=0;exitDy=0;exitPerimeter=0;entryX=0.5;entryY=1;entryDx=0;entryDy=0;" parent="1" source="_uaLchvtrCkmkdotETUY-275" target="_uaLchvtrCkmkdotETUY-281" edge="1">
          <mxGeometry relative="1" as="geometry">
            <mxPoint x="-400" y="364.77000000000004" as="sourcePoint" />
            <mxPoint x="-375" y="350.00000000000006" as="targetPoint" />
            <Array as="points" />
            <mxPoint as="offset" />
          </mxGeometry>
        </mxCell>
        <mxCell id="_uaLchvtrCkmkdotETUY-278" value="" style="resizable=0;html=1;align=center;verticalAlign=top;labelBackgroundColor=none;" parent="_uaLchvtrCkmkdotETUY-277" connectable="0" vertex="1">
          <mxGeometry relative="1" as="geometry" />
        </mxCell>
        <mxCell id="_uaLchvtrCkmkdotETUY-279" value="[True]." style="endArrow=open;html=1;rounded=0;align=center;verticalAlign=bottom;endFill=0;labelBackgroundColor=none;exitX=0.5;exitY=1;exitDx=0;exitDy=0;exitPerimeter=0;" parent="1" source="_uaLchvtrCkmkdotETUY-275" edge="1">
          <mxGeometry relative="1" as="geometry">
            <mxPoint x="-365" y="332.7000000000001" as="sourcePoint" />
            <mxPoint x="-375" y="402.7000000000001" as="targetPoint" />
            <Array as="points" />
            <mxPoint as="offset" />
          </mxGeometry>
        </mxCell>
        <mxCell id="_uaLchvtrCkmkdotETUY-280" value="" style="resizable=0;html=1;align=center;verticalAlign=top;labelBackgroundColor=none;" parent="_uaLchvtrCkmkdotETUY-279" connectable="0" vertex="1">
          <mxGeometry relative="1" as="geometry" />
        </mxCell>
        <mxCell id="_uaLchvtrCkmkdotETUY-281" value="Báo lỗi" style="html=1;align=center;verticalAlign=top;rounded=1;absoluteArcSize=1;arcSize=10;dashed=0;whiteSpace=wrap;" parent="1" vertex="1">
          <mxGeometry x="-402.5" y="205.00000000000006" width="55" height="30" as="geometry" />
        </mxCell>
        <mxCell id="_uaLchvtrCkmkdotETUY-282" value="Thay đổi mật khẩu&amp;nbsp;" style="html=1;align=center;verticalAlign=top;rounded=1;absoluteArcSize=1;arcSize=10;dashed=0;whiteSpace=wrap;" parent="1" vertex="1">
          <mxGeometry x="-435" y="402.7000000000001" width="120" height="30" as="geometry" />
        </mxCell>
        <mxCell id="_uaLchvtrCkmkdotETUY-283" value="Báo thành công" style="html=1;align=center;verticalAlign=top;rounded=1;absoluteArcSize=1;arcSize=10;dashed=0;whiteSpace=wrap;" parent="1" vertex="1">
          <mxGeometry x="-435" y="472.7000000000001" width="120" height="30" as="geometry" />
        </mxCell>
        <mxCell id="_uaLchvtrCkmkdotETUY-284" value="" style="endArrow=open;html=1;rounded=0;align=center;verticalAlign=top;endFill=0;labelBackgroundColor=none;endSize=6;exitX=0.5;exitY=1;exitDx=0;exitDy=0;entryX=0.5;entryY=0;entryDx=0;entryDy=0;" parent="1" source="_uaLchvtrCkmkdotETUY-282" target="_uaLchvtrCkmkdotETUY-283" edge="1">
          <mxGeometry relative="1" as="geometry">
            <mxPoint x="-460" y="282.7000000000001" as="targetPoint" />
            <mxPoint x="-460" y="252.7000000000001" as="sourcePoint" />
          </mxGeometry>
        </mxCell>
        <mxCell id="_uaLchvtrCkmkdotETUY-285" value="" style="ellipse;fillColor=strokeColor;html=1;" parent="1" vertex="1">
          <mxGeometry x="-390" y="-372.29999999999995" width="30" height="30" as="geometry" />
        </mxCell>
        <mxCell id="_uaLchvtrCkmkdotETUY-286" value="Vào Cài đặt người dùng" style="html=1;align=center;verticalAlign=top;rounded=1;absoluteArcSize=1;arcSize=10;dashed=0;whiteSpace=wrap;" parent="1" vertex="1">
          <mxGeometry x="-445" y="-177.29999999999995" width="140" height="40" as="geometry" />
        </mxCell>
        <mxCell id="_uaLchvtrCkmkdotETUY-287" value="" style="endArrow=open;startArrow=none;endFill=0;startFill=0;endSize=8;html=1;verticalAlign=bottom;labelBackgroundColor=none;strokeWidth=1;rounded=0;exitX=0.5;exitY=1;exitDx=0;exitDy=0;entryX=0.5;entryY=0;entryDx=0;entryDy=0;" parent="1" source="_uaLchvtrCkmkdotETUY-291" target="_uaLchvtrCkmkdotETUY-286" edge="1">
          <mxGeometry width="160" relative="1" as="geometry">
            <mxPoint x="-347.5" y="-167.29999999999995" as="sourcePoint" />
            <mxPoint x="-377" y="-352.29999999999995" as="targetPoint" />
          </mxGeometry>
        </mxCell>
        <mxCell id="_uaLchvtrCkmkdotETUY-288" value="" style="endArrow=open;startArrow=none;endFill=0;startFill=0;endSize=8;html=1;verticalAlign=bottom;labelBackgroundColor=none;strokeWidth=1;rounded=0;exitX=0.5;exitY=1;exitDx=0;exitDy=0;entryX=0.5;entryY=0;entryDx=0;entryDy=0;" parent="1" source="_uaLchvtrCkmkdotETUY-305" target="_uaLchvtrCkmkdotETUY-255" edge="1">
          <mxGeometry width="160" relative="1" as="geometry">
            <mxPoint x="-385" y="-59.99999999999996" as="sourcePoint" />
            <mxPoint x="-392" y="-264.99999999999994" as="targetPoint" />
          </mxGeometry>
        </mxCell>
        <mxCell id="_uaLchvtrCkmkdotETUY-289" value="User đổi mật khẩu" style="text;html=1;strokeColor=none;fillColor=none;align=center;verticalAlign=middle;whiteSpace=wrap;rounded=0;" parent="1" vertex="1">
          <mxGeometry x="-360" y="-377.29999999999995" width="115" height="30" as="geometry" />
        </mxCell>
        <mxCell id="_uaLchvtrCkmkdotETUY-290" value="Mở app" style="html=1;align=center;verticalAlign=top;rounded=1;absoluteArcSize=1;arcSize=10;dashed=0;whiteSpace=wrap;" parent="1" vertex="1">
          <mxGeometry x="-410" y="-297.29999999999995" width="70" height="30" as="geometry" />
        </mxCell>
        <mxCell id="_uaLchvtrCkmkdotETUY-291" value="đăng nhập" style="html=1;align=center;verticalAlign=top;rounded=1;absoluteArcSize=1;arcSize=10;dashed=0;whiteSpace=wrap;" parent="1" vertex="1">
          <mxGeometry x="-445" y="-237.29999999999995" width="140" height="40" as="geometry" />
        </mxCell>
        <mxCell id="_uaLchvtrCkmkdotETUY-292" value="" style="endArrow=open;startArrow=none;endFill=0;startFill=0;endSize=8;html=1;verticalAlign=bottom;labelBackgroundColor=none;strokeWidth=1;rounded=0;exitX=0.5;exitY=1;exitDx=0;exitDy=0;entryX=0.5;entryY=0;entryDx=0;entryDy=0;" parent="1" source="_uaLchvtrCkmkdotETUY-290" target="_uaLchvtrCkmkdotETUY-291" edge="1">
          <mxGeometry width="160" relative="1" as="geometry">
            <mxPoint x="-350" y="-187.29999999999995" as="sourcePoint" />
            <mxPoint x="-352" y="-117.29999999999995" as="targetPoint" />
          </mxGeometry>
        </mxCell>
        <mxCell id="_uaLchvtrCkmkdotETUY-293" value="" style="endArrow=open;startArrow=none;endFill=0;startFill=0;endSize=8;html=1;verticalAlign=bottom;labelBackgroundColor=none;strokeWidth=1;rounded=0;exitX=0.5;exitY=1;exitDx=0;exitDy=0;entryX=0.5;entryY=0;entryDx=0;entryDy=0;" parent="1" source="_uaLchvtrCkmkdotETUY-285" target="_uaLchvtrCkmkdotETUY-290" edge="1">
          <mxGeometry width="160" relative="1" as="geometry">
            <mxPoint x="-365" y="-257.29999999999995" as="sourcePoint" />
            <mxPoint x="-350" y="-227.29999999999995" as="targetPoint" />
          </mxGeometry>
        </mxCell>
        <mxCell id="_uaLchvtrCkmkdotETUY-294" value="" style="endArrow=open;html=1;rounded=0;align=center;verticalAlign=top;endFill=0;labelBackgroundColor=none;endSize=6;exitX=0;exitY=0.5;exitDx=0;exitDy=0;entryX=1;entryY=0.5;entryDx=0;entryDy=0;" parent="1" source="_uaLchvtrCkmkdotETUY-281" target="_uaLchvtrCkmkdotETUY-267" edge="1">
          <mxGeometry relative="1" as="geometry">
            <mxPoint x="-365" y="170.00000000000006" as="targetPoint" />
            <mxPoint x="-365" y="140.00000000000006" as="sourcePoint" />
          </mxGeometry>
        </mxCell>
        <mxCell id="_uaLchvtrCkmkdotETUY-296" value="Quay lại form đăng nhập" style="html=1;align=center;verticalAlign=top;rounded=1;absoluteArcSize=1;arcSize=10;dashed=0;whiteSpace=wrap;" parent="1" vertex="1">
          <mxGeometry x="685" y="-250" width="140" height="40" as="geometry" />
        </mxCell>
        <mxCell id="_uaLchvtrCkmkdotETUY-297" value="" style="endArrow=open;html=1;rounded=0;align=center;verticalAlign=top;endFill=0;labelBackgroundColor=none;endSize=6;exitX=0.5;exitY=1;exitDx=0;exitDy=0;entryX=0.5;entryY=0;entryDx=0;entryDy=0;" parent="1" source="_uaLchvtrCkmkdotETUY-74" target="_uaLchvtrCkmkdotETUY-296" edge="1">
          <mxGeometry relative="1" as="geometry">
            <mxPoint x="765" y="-297" as="targetPoint" />
            <mxPoint x="765" y="-337" as="sourcePoint" />
          </mxGeometry>
        </mxCell>
        <mxCell id="_uaLchvtrCkmkdotETUY-298" value="" style="ellipse;html=1;shape=endState;fillColor=strokeColor;" parent="1" vertex="1">
          <mxGeometry x="740" y="-180" width="30" height="30" as="geometry" />
        </mxCell>
        <mxCell id="_uaLchvtrCkmkdotETUY-299" value="" style="endArrow=open;html=1;rounded=0;align=center;verticalAlign=top;endFill=0;labelBackgroundColor=none;endSize=6;exitX=0.5;exitY=1;exitDx=0;exitDy=0;entryX=0.5;entryY=0;entryDx=0;entryDy=0;" parent="1" source="_uaLchvtrCkmkdotETUY-296" target="_uaLchvtrCkmkdotETUY-298" edge="1">
          <mxGeometry relative="1" as="geometry">
            <mxPoint x="765" y="-240" as="targetPoint" />
            <mxPoint x="765" y="-267" as="sourcePoint" />
          </mxGeometry>
        </mxCell>
        <mxCell id="_uaLchvtrCkmkdotETUY-300" value="user kết thúc quên MK" style="text;html=1;strokeColor=none;fillColor=none;align=center;verticalAlign=middle;whiteSpace=wrap;rounded=0;" parent="1" vertex="1">
          <mxGeometry x="685" y="-150" width="132.5" height="30" as="geometry" />
        </mxCell>
        <mxCell id="_uaLchvtrCkmkdotETUY-301" value="" style="ellipse;html=1;shape=endState;fillColor=strokeColor;" parent="1" vertex="1">
          <mxGeometry x="-390" y="590" width="30" height="30" as="geometry" />
        </mxCell>
        <mxCell id="_uaLchvtrCkmkdotETUY-302" value="Quay về form đăng nhập" style="html=1;align=center;verticalAlign=top;rounded=1;absoluteArcSize=1;arcSize=10;dashed=0;whiteSpace=wrap;" parent="1" vertex="1">
          <mxGeometry x="-447.5" y="527.3" width="145" height="30" as="geometry" />
        </mxCell>
        <mxCell id="_uaLchvtrCkmkdotETUY-303" value="" style="endArrow=open;html=1;rounded=0;align=center;verticalAlign=top;endFill=0;labelBackgroundColor=none;endSize=6;exitX=0.5;exitY=1;exitDx=0;exitDy=0;entryX=0.5;entryY=0;entryDx=0;entryDy=0;" parent="1" source="_uaLchvtrCkmkdotETUY-283" target="_uaLchvtrCkmkdotETUY-302" edge="1">
          <mxGeometry relative="1" as="geometry">
            <mxPoint x="-365" y="482.3" as="targetPoint" />
            <mxPoint x="-365" y="442.3" as="sourcePoint" />
          </mxGeometry>
        </mxCell>
        <mxCell id="_uaLchvtrCkmkdotETUY-304" value="" style="endArrow=open;html=1;rounded=0;align=center;verticalAlign=top;endFill=0;labelBackgroundColor=none;endSize=6;exitX=0.5;exitY=1;exitDx=0;exitDy=0;entryX=0.5;entryY=0;entryDx=0;entryDy=0;" parent="1" source="_uaLchvtrCkmkdotETUY-302" target="_uaLchvtrCkmkdotETUY-301" edge="1">
          <mxGeometry relative="1" as="geometry">
            <mxPoint x="-375" y="587.3000000000002" as="targetPoint" />
            <mxPoint x="-355" y="452.3" as="sourcePoint" />
          </mxGeometry>
        </mxCell>
        <mxCell id="_uaLchvtrCkmkdotETUY-305" value="Vào bảo mật" style="html=1;align=center;verticalAlign=top;rounded=1;absoluteArcSize=1;arcSize=10;dashed=0;whiteSpace=wrap;" parent="1" vertex="1">
          <mxGeometry x="-445" y="-109.99999999999996" width="140" height="40" as="geometry" />
        </mxCell>
        <mxCell id="_uaLchvtrCkmkdotETUY-314" value="" style="endArrow=open;startArrow=none;endFill=0;startFill=0;endSize=8;html=1;verticalAlign=bottom;labelBackgroundColor=none;strokeWidth=1;rounded=0;exitX=0.5;exitY=1;exitDx=0;exitDy=0;entryX=0.5;entryY=0;entryDx=0;entryDy=0;" parent="1" source="_uaLchvtrCkmkdotETUY-286" target="_uaLchvtrCkmkdotETUY-305" edge="1">
          <mxGeometry width="160" relative="1" as="geometry">
            <mxPoint x="-365" y="-187" as="sourcePoint" />
            <mxPoint x="-365" y="-167" as="targetPoint" />
          </mxGeometry>
        </mxCell>
        <mxCell id="_uaLchvtrCkmkdotETUY-351" value="[Cannel]." style="endArrow=open;html=1;rounded=0;align=center;verticalAlign=bottom;endFill=0;labelBackgroundColor=none;exitX=0;exitY=0.5;exitDx=0;exitDy=0;exitPerimeter=0;entryX=0;entryY=0.5;entryDx=0;entryDy=0;" parent="1" source="_uaLchvtrCkmkdotETUY-270" target="_uaLchvtrCkmkdotETUY-255" edge="1">
          <mxGeometry relative="1" as="geometry">
            <mxPoint x="-445" y="348" as="sourcePoint" />
            <mxPoint x="-590" y="338" as="targetPoint" />
            <Array as="points">
              <mxPoint x="-600" y="338" />
              <mxPoint x="-600" y="-20" />
            </Array>
            <mxPoint as="offset" />
          </mxGeometry>
        </mxCell>
        <mxCell id="_uaLchvtrCkmkdotETUY-352" value="" style="resizable=0;html=1;align=center;verticalAlign=top;labelBackgroundColor=none;" parent="_uaLchvtrCkmkdotETUY-351" connectable="0" vertex="1">
          <mxGeometry relative="1" as="geometry" />
        </mxCell>
        <mxCell id="GccZXw1EaHlf11D4LePe-5" value="" style="ellipse;fillColor=strokeColor;html=1;" parent="1" vertex="1">
          <mxGeometry x="1118.75" y="-349.99999999999994" width="30" height="30" as="geometry" />
        </mxCell>
        <mxCell id="GccZXw1EaHlf11D4LePe-6" value="Vào Cài đặt người dùng" style="html=1;align=center;verticalAlign=top;rounded=1;absoluteArcSize=1;arcSize=10;dashed=0;whiteSpace=wrap;" parent="1" vertex="1">
          <mxGeometry x="1063.75" y="-154.99999999999994" width="140" height="40" as="geometry" />
        </mxCell>
        <mxCell id="GccZXw1EaHlf11D4LePe-7" value="" style="endArrow=open;startArrow=none;endFill=0;startFill=0;endSize=8;html=1;verticalAlign=bottom;labelBackgroundColor=none;strokeWidth=1;rounded=0;exitX=0.5;exitY=1;exitDx=0;exitDy=0;entryX=0.5;entryY=0;entryDx=0;entryDy=0;" parent="1" source="GccZXw1EaHlf11D4LePe-10" target="GccZXw1EaHlf11D4LePe-6" edge="1">
          <mxGeometry width="160" relative="1" as="geometry">
            <mxPoint x="1161.25" y="-144.99999999999994" as="sourcePoint" />
            <mxPoint x="1131.75" y="-329.99999999999994" as="targetPoint" />
          </mxGeometry>
        </mxCell>
        <mxCell id="GccZXw1EaHlf11D4LePe-8" value="user xóa thông tin thẻ tín dụng đã lưu" style="text;html=1;strokeColor=none;fillColor=none;align=center;verticalAlign=middle;whiteSpace=wrap;rounded=0;" parent="1" vertex="1">
          <mxGeometry x="1175" y="-355" width="88.75" height="30" as="geometry" />
        </mxCell>
        <mxCell id="GccZXw1EaHlf11D4LePe-9" value="Mở app" style="html=1;align=center;verticalAlign=top;rounded=1;absoluteArcSize=1;arcSize=10;dashed=0;whiteSpace=wrap;" parent="1" vertex="1">
          <mxGeometry x="1098.75" y="-274.99999999999994" width="70" height="30" as="geometry" />
        </mxCell>
        <mxCell id="GccZXw1EaHlf11D4LePe-10" value="đăng nhập" style="html=1;align=center;verticalAlign=top;rounded=1;absoluteArcSize=1;arcSize=10;dashed=0;whiteSpace=wrap;" parent="1" vertex="1">
          <mxGeometry x="1063.75" y="-214.99999999999994" width="140" height="40" as="geometry" />
        </mxCell>
        <mxCell id="GccZXw1EaHlf11D4LePe-11" value="" style="endArrow=open;startArrow=none;endFill=0;startFill=0;endSize=8;html=1;verticalAlign=bottom;labelBackgroundColor=none;strokeWidth=1;rounded=0;exitX=0.5;exitY=1;exitDx=0;exitDy=0;entryX=0.5;entryY=0;entryDx=0;entryDy=0;" parent="1" source="GccZXw1EaHlf11D4LePe-9" target="GccZXw1EaHlf11D4LePe-10" edge="1">
          <mxGeometry width="160" relative="1" as="geometry">
            <mxPoint x="1158.75" y="-164.99999999999994" as="sourcePoint" />
            <mxPoint x="1156.75" y="-94.99999999999994" as="targetPoint" />
          </mxGeometry>
        </mxCell>
        <mxCell id="GccZXw1EaHlf11D4LePe-12" value="" style="endArrow=open;startArrow=none;endFill=0;startFill=0;endSize=8;html=1;verticalAlign=bottom;labelBackgroundColor=none;strokeWidth=1;rounded=0;exitX=0.5;exitY=1;exitDx=0;exitDy=0;entryX=0.5;entryY=0;entryDx=0;entryDy=0;" parent="1" source="GccZXw1EaHlf11D4LePe-5" target="GccZXw1EaHlf11D4LePe-9" edge="1">
          <mxGeometry width="160" relative="1" as="geometry">
            <mxPoint x="1143.75" y="-234.99999999999994" as="sourcePoint" />
            <mxPoint x="1158.75" y="-204.99999999999994" as="targetPoint" />
          </mxGeometry>
        </mxCell>
        <mxCell id="GccZXw1EaHlf11D4LePe-13" value="Vào thẻ tín dụng" style="html=1;align=center;verticalAlign=top;rounded=1;absoluteArcSize=1;arcSize=10;dashed=0;whiteSpace=wrap;" parent="1" vertex="1">
          <mxGeometry x="1063.75" y="-87.69999999999996" width="140" height="40" as="geometry" />
        </mxCell>
        <mxCell id="GccZXw1EaHlf11D4LePe-14" value="" style="endArrow=open;startArrow=none;endFill=0;startFill=0;endSize=8;html=1;verticalAlign=bottom;labelBackgroundColor=none;strokeWidth=1;rounded=0;exitX=0.5;exitY=1;exitDx=0;exitDy=0;entryX=0.5;entryY=0;entryDx=0;entryDy=0;" parent="1" source="GccZXw1EaHlf11D4LePe-6" target="GccZXw1EaHlf11D4LePe-13" edge="1">
          <mxGeometry width="160" relative="1" as="geometry">
            <mxPoint x="788.75" y="-104.69999999999999" as="sourcePoint" />
            <mxPoint x="788.75" y="-77.7" as="targetPoint" />
          </mxGeometry>
        </mxCell>
        <mxCell id="GccZXw1EaHlf11D4LePe-17" value="Xóa thông tin thẻ tín dụng" style="html=1;align=center;verticalAlign=top;rounded=1;absoluteArcSize=1;arcSize=10;dashed=0;whiteSpace=wrap;" parent="1" vertex="1">
          <mxGeometry x="1088.87" width="87.5" height="40" as="geometry" />
        </mxCell>
        <mxCell id="GccZXw1EaHlf11D4LePe-18" value="Quay lại màn hình thông tin thẻ tín dụng" style="html=1;align=center;verticalAlign=top;rounded=1;absoluteArcSize=1;arcSize=10;dashed=0;whiteSpace=wrap;" parent="1" vertex="1">
          <mxGeometry x="1052.31" y="212.3" width="161.13" height="40" as="geometry" />
        </mxCell>
        <mxCell id="GccZXw1EaHlf11D4LePe-19" value="" style="ellipse;html=1;shape=endState;fillColor=strokeColor;" parent="1" vertex="1">
          <mxGeometry x="1117.87" y="277.7" width="30" height="30" as="geometry" />
        </mxCell>
        <mxCell id="GccZXw1EaHlf11D4LePe-20" value="" style="endArrow=open;startArrow=none;endFill=0;startFill=0;endSize=8;html=1;verticalAlign=bottom;labelBackgroundColor=none;strokeWidth=1;rounded=0;exitX=0.5;exitY=1;exitDx=0;exitDy=0;entryX=0.5;entryY=0;entryDx=0;entryDy=0;" parent="1" source="GccZXw1EaHlf11D4LePe-18" target="GccZXw1EaHlf11D4LePe-19" edge="1">
          <mxGeometry width="160" relative="1" as="geometry">
            <mxPoint x="1142.87" y="192.7" as="sourcePoint" />
            <mxPoint x="1142.87" y="217.7" as="targetPoint" />
          </mxGeometry>
        </mxCell>
        <mxCell id="GccZXw1EaHlf11D4LePe-21" value="" style="strokeWidth=2;html=1;shape=mxgraph.flowchart.decision;whiteSpace=wrap;fillColor=#FFFFFF;" parent="1" vertex="1">
          <mxGeometry x="1117.62" y="62.30000000000001" width="30" height="30" as="geometry" />
        </mxCell>
        <mxCell id="GccZXw1EaHlf11D4LePe-22" value="" style="endArrow=open;startArrow=none;endFill=0;startFill=0;endSize=8;html=1;verticalAlign=bottom;labelBackgroundColor=none;strokeWidth=1;rounded=0;exitX=0.5;exitY=1;exitDx=0;exitDy=0;entryX=0.5;entryY=0;entryDx=0;entryDy=0;entryPerimeter=0;" parent="1" source="GccZXw1EaHlf11D4LePe-17" target="GccZXw1EaHlf11D4LePe-21" edge="1">
          <mxGeometry width="160" relative="1" as="geometry">
            <mxPoint x="1142.12" y="-14.700000000000003" as="sourcePoint" />
            <mxPoint x="1142.12" y="10.300000000000011" as="targetPoint" />
          </mxGeometry>
        </mxCell>
        <mxCell id="GccZXw1EaHlf11D4LePe-23" value="Xác nhận" style="html=1;align=center;verticalAlign=top;rounded=1;absoluteArcSize=1;arcSize=10;dashed=0;whiteSpace=wrap;" parent="1" vertex="1">
          <mxGeometry x="1011.62" y="112.30000000000001" width="87.5" height="40" as="geometry" />
        </mxCell>
        <mxCell id="GccZXw1EaHlf11D4LePe-24" value="hủy&amp;nbsp;" style="html=1;align=center;verticalAlign=top;rounded=1;absoluteArcSize=1;arcSize=10;dashed=0;whiteSpace=wrap;" parent="1" vertex="1">
          <mxGeometry x="1168.37" y="112.30000000000001" width="87.5" height="40" as="geometry" />
        </mxCell>
        <mxCell id="GccZXw1EaHlf11D4LePe-25" value="" style="endArrow=open;startArrow=none;endFill=0;startFill=0;endSize=8;html=1;verticalAlign=bottom;labelBackgroundColor=none;strokeWidth=1;rounded=0;exitX=0;exitY=0.5;exitDx=0;exitDy=0;entryX=0.75;entryY=0;entryDx=0;entryDy=0;exitPerimeter=0;" parent="1" source="GccZXw1EaHlf11D4LePe-21" target="GccZXw1EaHlf11D4LePe-23" edge="1">
          <mxGeometry width="160" relative="1" as="geometry">
            <mxPoint x="888.12" y="212.3" as="sourcePoint" />
            <mxPoint x="888.12" y="235.3" as="targetPoint" />
          </mxGeometry>
        </mxCell>
        <mxCell id="GccZXw1EaHlf11D4LePe-26" value="" style="endArrow=open;startArrow=none;endFill=0;startFill=0;endSize=8;html=1;verticalAlign=bottom;labelBackgroundColor=none;strokeWidth=1;rounded=0;exitX=1;exitY=0.5;exitDx=0;exitDy=0;entryX=0.25;entryY=0;entryDx=0;entryDy=0;exitPerimeter=0;" parent="1" source="GccZXw1EaHlf11D4LePe-21" target="GccZXw1EaHlf11D4LePe-24" edge="1">
          <mxGeometry width="160" relative="1" as="geometry">
            <mxPoint x="1127.12" y="87.30000000000001" as="sourcePoint" />
            <mxPoint x="1087.12" y="122.30000000000001" as="targetPoint" />
          </mxGeometry>
        </mxCell>
        <mxCell id="GccZXw1EaHlf11D4LePe-27" value="" style="strokeWidth=2;html=1;shape=mxgraph.flowchart.decision;whiteSpace=wrap;fillColor=#FFFFFF;" parent="1" vertex="1">
          <mxGeometry x="1117.62" y="167.3" width="30" height="30" as="geometry" />
        </mxCell>
        <mxCell id="GccZXw1EaHlf11D4LePe-28" value="" style="endArrow=open;startArrow=none;endFill=0;startFill=0;endSize=8;html=1;verticalAlign=bottom;labelBackgroundColor=none;strokeWidth=1;rounded=0;exitX=0.25;exitY=1;exitDx=0;exitDy=0;entryX=0.5;entryY=0;entryDx=0;entryDy=0;entryPerimeter=0;" parent="1" source="GccZXw1EaHlf11D4LePe-24" target="GccZXw1EaHlf11D4LePe-27" edge="1">
          <mxGeometry width="160" relative="1" as="geometry">
            <mxPoint x="1158.12" y="87.30000000000001" as="sourcePoint" />
            <mxPoint x="1199.12" y="122.30000000000001" as="targetPoint" />
          </mxGeometry>
        </mxCell>
        <mxCell id="GccZXw1EaHlf11D4LePe-29" value="" style="endArrow=open;startArrow=none;endFill=0;startFill=0;endSize=8;html=1;verticalAlign=bottom;labelBackgroundColor=none;strokeWidth=1;rounded=0;exitX=0.75;exitY=1;exitDx=0;exitDy=0;entryX=0.5;entryY=0;entryDx=0;entryDy=0;entryPerimeter=0;" parent="1" source="GccZXw1EaHlf11D4LePe-23" target="GccZXw1EaHlf11D4LePe-27" edge="1">
          <mxGeometry width="160" relative="1" as="geometry">
            <mxPoint x="1168.12" y="97.30000000000001" as="sourcePoint" />
            <mxPoint x="1209.12" y="132.3" as="targetPoint" />
          </mxGeometry>
        </mxCell>
        <mxCell id="GccZXw1EaHlf11D4LePe-30" value="" style="endArrow=open;startArrow=none;endFill=0;startFill=0;endSize=8;html=1;verticalAlign=bottom;labelBackgroundColor=none;strokeWidth=1;rounded=0;exitX=0.5;exitY=1;exitDx=0;exitDy=0;entryX=0.5;entryY=0;entryDx=0;entryDy=0;exitPerimeter=0;" parent="1" source="GccZXw1EaHlf11D4LePe-27" target="GccZXw1EaHlf11D4LePe-18" edge="1">
          <mxGeometry width="160" relative="1" as="geometry">
            <mxPoint x="1178.12" y="107.30000000000001" as="sourcePoint" />
            <mxPoint x="1219.12" y="142.3" as="targetPoint" />
          </mxGeometry>
        </mxCell>
        <mxCell id="GccZXw1EaHlf11D4LePe-34" value="" style="endArrow=open;startArrow=none;endFill=0;startFill=0;endSize=8;html=1;verticalAlign=bottom;labelBackgroundColor=none;strokeWidth=1;rounded=0;exitX=0.5;exitY=1;exitDx=0;exitDy=0;entryX=0.5;entryY=0;entryDx=0;entryDy=0;" parent="1" source="GccZXw1EaHlf11D4LePe-13" target="GccZXw1EaHlf11D4LePe-17" edge="1">
          <mxGeometry width="160" relative="1" as="geometry">
            <mxPoint x="1132.37" y="-30" as="sourcePoint" />
            <mxPoint x="1153.87" y="-110" as="targetPoint" />
          </mxGeometry>
        </mxCell>
        <mxCell id="GccZXw1EaHlf11D4LePe-37" value="" style="endArrow=open;startArrow=none;endFill=0;startFill=0;endSize=8;html=1;verticalAlign=bottom;labelBackgroundColor=none;strokeWidth=1;rounded=0;entryX=1;entryY=0.5;entryDx=0;entryDy=0;exitX=1;exitY=0.5;exitDx=0;exitDy=0;" parent="1" source="GccZXw1EaHlf11D4LePe-24" target="GccZXw1EaHlf11D4LePe-13" edge="1">
          <mxGeometry width="160" relative="1" as="geometry">
            <mxPoint x="1310" y="20" as="sourcePoint" />
            <mxPoint x="1200" y="122" as="targetPoint" />
            <Array as="points">
              <mxPoint x="1280" y="132" />
              <mxPoint x="1280" y="-70" />
            </Array>
          </mxGeometry>
        </mxCell>
      </root>
    </mxGraphModel>
  </diagram>
  <diagram id="TXSMxtGWWTIs8RIKlDmt" name="Trang-4">
    <mxGraphModel dx="1276" dy="654" grid="1" gridSize="10" guides="1" tooltips="1" connect="1" arrows="1" fold="1" page="1" pageScale="1" pageWidth="850" pageHeight="1100" math="0" shadow="0">
      <root>
        <mxCell id="0" />
        <mxCell id="1" parent="0" />
        <mxCell id="LCVaRdQoyfI-7VZ6_GcE-1" value="Drinks" style="shape=table;startSize=30;container=1;collapsible=1;childLayout=tableLayout;fixedRows=1;rowLines=0;fontStyle=1;align=center;resizeLast=1;html=1;" parent="1" vertex="1">
          <mxGeometry x="820" y="210" width="180" height="180" as="geometry" />
        </mxCell>
        <mxCell id="LCVaRdQoyfI-7VZ6_GcE-2" value="" style="shape=tableRow;horizontal=0;startSize=0;swimlaneHead=0;swimlaneBody=0;fillColor=none;collapsible=0;dropTarget=0;points=[[0,0.5],[1,0.5]];portConstraint=eastwest;top=0;left=0;right=0;bottom=1;" parent="LCVaRdQoyfI-7VZ6_GcE-1" vertex="1">
          <mxGeometry y="30" width="180" height="30" as="geometry" />
        </mxCell>
        <mxCell id="LCVaRdQoyfI-7VZ6_GcE-3" value="PK" style="shape=partialRectangle;connectable=0;fillColor=none;top=0;left=0;bottom=0;right=0;fontStyle=1;overflow=hidden;whiteSpace=wrap;html=1;" parent="LCVaRdQoyfI-7VZ6_GcE-2" vertex="1">
          <mxGeometry width="30" height="30" as="geometry">
            <mxRectangle width="30" height="30" as="alternateBounds" />
          </mxGeometry>
        </mxCell>
        <mxCell id="LCVaRdQoyfI-7VZ6_GcE-4" value="DrinksID" style="shape=partialRectangle;connectable=0;fillColor=none;top=0;left=0;bottom=0;right=0;align=left;spacingLeft=6;fontStyle=5;overflow=hidden;whiteSpace=wrap;html=1;" parent="LCVaRdQoyfI-7VZ6_GcE-2" vertex="1">
          <mxGeometry x="30" width="150" height="30" as="geometry">
            <mxRectangle width="150" height="30" as="alternateBounds" />
          </mxGeometry>
        </mxCell>
        <mxCell id="LCVaRdQoyfI-7VZ6_GcE-5" value="" style="shape=tableRow;horizontal=0;startSize=0;swimlaneHead=0;swimlaneBody=0;fillColor=none;collapsible=0;dropTarget=0;points=[[0,0.5],[1,0.5]];portConstraint=eastwest;top=0;left=0;right=0;bottom=0;" parent="LCVaRdQoyfI-7VZ6_GcE-1" vertex="1">
          <mxGeometry y="60" width="180" height="30" as="geometry" />
        </mxCell>
        <mxCell id="LCVaRdQoyfI-7VZ6_GcE-6" value="" style="shape=partialRectangle;connectable=0;fillColor=none;top=0;left=0;bottom=0;right=0;editable=1;overflow=hidden;whiteSpace=wrap;html=1;" parent="LCVaRdQoyfI-7VZ6_GcE-5" vertex="1">
          <mxGeometry width="30" height="30" as="geometry">
            <mxRectangle width="30" height="30" as="alternateBounds" />
          </mxGeometry>
        </mxCell>
        <mxCell id="LCVaRdQoyfI-7VZ6_GcE-7" value="DrinksName" style="shape=partialRectangle;connectable=0;fillColor=none;top=0;left=0;bottom=0;right=0;align=left;spacingLeft=6;overflow=hidden;whiteSpace=wrap;html=1;" parent="LCVaRdQoyfI-7VZ6_GcE-5" vertex="1">
          <mxGeometry x="30" width="150" height="30" as="geometry">
            <mxRectangle width="150" height="30" as="alternateBounds" />
          </mxGeometry>
        </mxCell>
        <mxCell id="LCVaRdQoyfI-7VZ6_GcE-8" value="" style="shape=tableRow;horizontal=0;startSize=0;swimlaneHead=0;swimlaneBody=0;fillColor=none;collapsible=0;dropTarget=0;points=[[0,0.5],[1,0.5]];portConstraint=eastwest;top=0;left=0;right=0;bottom=0;" parent="LCVaRdQoyfI-7VZ6_GcE-1" vertex="1">
          <mxGeometry y="90" width="180" height="30" as="geometry" />
        </mxCell>
        <mxCell id="LCVaRdQoyfI-7VZ6_GcE-9" value="" style="shape=partialRectangle;connectable=0;fillColor=none;top=0;left=0;bottom=0;right=0;editable=1;overflow=hidden;whiteSpace=wrap;html=1;" parent="LCVaRdQoyfI-7VZ6_GcE-8" vertex="1">
          <mxGeometry width="30" height="30" as="geometry">
            <mxRectangle width="30" height="30" as="alternateBounds" />
          </mxGeometry>
        </mxCell>
        <mxCell id="LCVaRdQoyfI-7VZ6_GcE-10" value="Price" style="shape=partialRectangle;connectable=0;fillColor=none;top=0;left=0;bottom=0;right=0;align=left;spacingLeft=6;overflow=hidden;whiteSpace=wrap;html=1;" parent="LCVaRdQoyfI-7VZ6_GcE-8" vertex="1">
          <mxGeometry x="30" width="150" height="30" as="geometry">
            <mxRectangle width="150" height="30" as="alternateBounds" />
          </mxGeometry>
        </mxCell>
        <mxCell id="LCVaRdQoyfI-7VZ6_GcE-11" value="" style="shape=tableRow;horizontal=0;startSize=0;swimlaneHead=0;swimlaneBody=0;fillColor=none;collapsible=0;dropTarget=0;points=[[0,0.5],[1,0.5]];portConstraint=eastwest;top=0;left=0;right=0;bottom=0;" parent="LCVaRdQoyfI-7VZ6_GcE-1" vertex="1">
          <mxGeometry y="120" width="180" height="30" as="geometry" />
        </mxCell>
        <mxCell id="LCVaRdQoyfI-7VZ6_GcE-12" value="" style="shape=partialRectangle;connectable=0;fillColor=none;top=0;left=0;bottom=0;right=0;editable=1;overflow=hidden;whiteSpace=wrap;html=1;" parent="LCVaRdQoyfI-7VZ6_GcE-11" vertex="1">
          <mxGeometry width="30" height="30" as="geometry">
            <mxRectangle width="30" height="30" as="alternateBounds" />
          </mxGeometry>
        </mxCell>
        <mxCell id="LCVaRdQoyfI-7VZ6_GcE-13" value="Size" style="shape=partialRectangle;connectable=0;fillColor=none;top=0;left=0;bottom=0;right=0;align=left;spacingLeft=6;overflow=hidden;whiteSpace=wrap;html=1;" parent="LCVaRdQoyfI-7VZ6_GcE-11" vertex="1">
          <mxGeometry x="30" width="150" height="30" as="geometry">
            <mxRectangle width="150" height="30" as="alternateBounds" />
          </mxGeometry>
        </mxCell>
        <mxCell id="LCVaRdQoyfI-7VZ6_GcE-14" value="" style="shape=tableRow;horizontal=0;startSize=0;swimlaneHead=0;swimlaneBody=0;fillColor=none;collapsible=0;dropTarget=0;points=[[0,0.5],[1,0.5]];portConstraint=eastwest;top=0;left=0;right=0;bottom=0;" parent="LCVaRdQoyfI-7VZ6_GcE-1" vertex="1">
          <mxGeometry y="150" width="180" height="30" as="geometry" />
        </mxCell>
        <mxCell id="LCVaRdQoyfI-7VZ6_GcE-15" value="" style="shape=partialRectangle;connectable=0;fillColor=none;top=0;left=0;bottom=0;right=0;editable=1;overflow=hidden;whiteSpace=wrap;html=1;" parent="LCVaRdQoyfI-7VZ6_GcE-14" vertex="1">
          <mxGeometry width="30" height="30" as="geometry">
            <mxRectangle width="30" height="30" as="alternateBounds" />
          </mxGeometry>
        </mxCell>
        <mxCell id="LCVaRdQoyfI-7VZ6_GcE-16" value="DrinksType" style="shape=partialRectangle;connectable=0;fillColor=none;top=0;left=0;bottom=0;right=0;align=left;spacingLeft=6;overflow=hidden;whiteSpace=wrap;html=1;" parent="LCVaRdQoyfI-7VZ6_GcE-14" vertex="1">
          <mxGeometry x="30" width="150" height="30" as="geometry">
            <mxRectangle width="150" height="30" as="alternateBounds" />
          </mxGeometry>
        </mxCell>
        <mxCell id="LCVaRdQoyfI-7VZ6_GcE-17" value="User" style="shape=table;startSize=30;container=1;collapsible=1;childLayout=tableLayout;fixedRows=1;rowLines=0;fontStyle=1;align=center;resizeLast=1;html=1;" parent="1" vertex="1">
          <mxGeometry x="340" y="180" width="180" height="150" as="geometry" />
        </mxCell>
        <mxCell id="LCVaRdQoyfI-7VZ6_GcE-18" value="" style="shape=tableRow;horizontal=0;startSize=0;swimlaneHead=0;swimlaneBody=0;fillColor=none;collapsible=0;dropTarget=0;points=[[0,0.5],[1,0.5]];portConstraint=eastwest;top=0;left=0;right=0;bottom=1;" parent="LCVaRdQoyfI-7VZ6_GcE-17" vertex="1">
          <mxGeometry y="30" width="180" height="30" as="geometry" />
        </mxCell>
        <mxCell id="LCVaRdQoyfI-7VZ6_GcE-19" value="PK" style="shape=partialRectangle;connectable=0;fillColor=none;top=0;left=0;bottom=0;right=0;fontStyle=1;overflow=hidden;whiteSpace=wrap;html=1;" parent="LCVaRdQoyfI-7VZ6_GcE-18" vertex="1">
          <mxGeometry width="30" height="30" as="geometry">
            <mxRectangle width="30" height="30" as="alternateBounds" />
          </mxGeometry>
        </mxCell>
        <mxCell id="LCVaRdQoyfI-7VZ6_GcE-20" value="UserID" style="shape=partialRectangle;connectable=0;fillColor=none;top=0;left=0;bottom=0;right=0;align=left;spacingLeft=6;fontStyle=5;overflow=hidden;whiteSpace=wrap;html=1;" parent="LCVaRdQoyfI-7VZ6_GcE-18" vertex="1">
          <mxGeometry x="30" width="150" height="30" as="geometry">
            <mxRectangle width="150" height="30" as="alternateBounds" />
          </mxGeometry>
        </mxCell>
        <mxCell id="LCVaRdQoyfI-7VZ6_GcE-21" value="" style="shape=tableRow;horizontal=0;startSize=0;swimlaneHead=0;swimlaneBody=0;fillColor=none;collapsible=0;dropTarget=0;points=[[0,0.5],[1,0.5]];portConstraint=eastwest;top=0;left=0;right=0;bottom=0;" parent="LCVaRdQoyfI-7VZ6_GcE-17" vertex="1">
          <mxGeometry y="60" width="180" height="30" as="geometry" />
        </mxCell>
        <mxCell id="LCVaRdQoyfI-7VZ6_GcE-22" value="" style="shape=partialRectangle;connectable=0;fillColor=none;top=0;left=0;bottom=0;right=0;editable=1;overflow=hidden;whiteSpace=wrap;html=1;" parent="LCVaRdQoyfI-7VZ6_GcE-21" vertex="1">
          <mxGeometry width="30" height="30" as="geometry">
            <mxRectangle width="30" height="30" as="alternateBounds" />
          </mxGeometry>
        </mxCell>
        <mxCell id="LCVaRdQoyfI-7VZ6_GcE-23" value="&lt;u&gt;User&lt;/u&gt;Name" style="shape=partialRectangle;connectable=0;fillColor=none;top=0;left=0;bottom=0;right=0;align=left;spacingLeft=6;overflow=hidden;whiteSpace=wrap;html=1;" parent="LCVaRdQoyfI-7VZ6_GcE-21" vertex="1">
          <mxGeometry x="30" width="150" height="30" as="geometry">
            <mxRectangle width="150" height="30" as="alternateBounds" />
          </mxGeometry>
        </mxCell>
        <mxCell id="LCVaRdQoyfI-7VZ6_GcE-24" value="" style="shape=tableRow;horizontal=0;startSize=0;swimlaneHead=0;swimlaneBody=0;fillColor=none;collapsible=0;dropTarget=0;points=[[0,0.5],[1,0.5]];portConstraint=eastwest;top=0;left=0;right=0;bottom=0;" parent="LCVaRdQoyfI-7VZ6_GcE-17" vertex="1">
          <mxGeometry y="90" width="180" height="30" as="geometry" />
        </mxCell>
        <mxCell id="LCVaRdQoyfI-7VZ6_GcE-25" value="" style="shape=partialRectangle;connectable=0;fillColor=none;top=0;left=0;bottom=0;right=0;editable=1;overflow=hidden;whiteSpace=wrap;html=1;" parent="LCVaRdQoyfI-7VZ6_GcE-24" vertex="1">
          <mxGeometry width="30" height="30" as="geometry">
            <mxRectangle width="30" height="30" as="alternateBounds" />
          </mxGeometry>
        </mxCell>
        <mxCell id="LCVaRdQoyfI-7VZ6_GcE-26" value="Address" style="shape=partialRectangle;connectable=0;fillColor=none;top=0;left=0;bottom=0;right=0;align=left;spacingLeft=6;overflow=hidden;whiteSpace=wrap;html=1;" parent="LCVaRdQoyfI-7VZ6_GcE-24" vertex="1">
          <mxGeometry x="30" width="150" height="30" as="geometry">
            <mxRectangle width="150" height="30" as="alternateBounds" />
          </mxGeometry>
        </mxCell>
        <mxCell id="LCVaRdQoyfI-7VZ6_GcE-27" value="" style="shape=tableRow;horizontal=0;startSize=0;swimlaneHead=0;swimlaneBody=0;fillColor=none;collapsible=0;dropTarget=0;points=[[0,0.5],[1,0.5]];portConstraint=eastwest;top=0;left=0;right=0;bottom=0;" parent="LCVaRdQoyfI-7VZ6_GcE-17" vertex="1">
          <mxGeometry y="120" width="180" height="30" as="geometry" />
        </mxCell>
        <mxCell id="LCVaRdQoyfI-7VZ6_GcE-28" value="" style="shape=partialRectangle;connectable=0;fillColor=none;top=0;left=0;bottom=0;right=0;editable=1;overflow=hidden;whiteSpace=wrap;html=1;" parent="LCVaRdQoyfI-7VZ6_GcE-27" vertex="1">
          <mxGeometry width="30" height="30" as="geometry">
            <mxRectangle width="30" height="30" as="alternateBounds" />
          </mxGeometry>
        </mxCell>
        <mxCell id="LCVaRdQoyfI-7VZ6_GcE-29" value="&lt;span style=&quot;font-weight: normal;&quot;&gt;UserType&lt;/span&gt;" style="shape=partialRectangle;connectable=0;fillColor=none;top=0;left=0;bottom=0;right=0;align=left;spacingLeft=6;overflow=hidden;whiteSpace=wrap;html=1;fontStyle=1" parent="LCVaRdQoyfI-7VZ6_GcE-27" vertex="1">
          <mxGeometry x="30" width="150" height="30" as="geometry">
            <mxRectangle width="150" height="30" as="alternateBounds" />
          </mxGeometry>
        </mxCell>
        <mxCell id="LCVaRdQoyfI-7VZ6_GcE-30" value="Order" style="shape=table;startSize=30;container=1;collapsible=1;childLayout=tableLayout;fixedRows=1;rowLines=0;fontStyle=1;align=center;resizeLast=1;html=1;" parent="1" vertex="1">
          <mxGeometry x="340" y="380" width="180" height="150" as="geometry" />
        </mxCell>
        <mxCell id="LCVaRdQoyfI-7VZ6_GcE-31" value="" style="shape=tableRow;horizontal=0;startSize=0;swimlaneHead=0;swimlaneBody=0;fillColor=none;collapsible=0;dropTarget=0;points=[[0,0.5],[1,0.5]];portConstraint=eastwest;top=0;left=0;right=0;bottom=1;" parent="LCVaRdQoyfI-7VZ6_GcE-30" vertex="1">
          <mxGeometry y="30" width="180" height="30" as="geometry" />
        </mxCell>
        <mxCell id="LCVaRdQoyfI-7VZ6_GcE-32" value="PK" style="shape=partialRectangle;connectable=0;fillColor=none;top=0;left=0;bottom=0;right=0;fontStyle=1;overflow=hidden;whiteSpace=wrap;html=1;" parent="LCVaRdQoyfI-7VZ6_GcE-31" vertex="1">
          <mxGeometry width="30" height="30" as="geometry">
            <mxRectangle width="30" height="30" as="alternateBounds" />
          </mxGeometry>
        </mxCell>
        <mxCell id="LCVaRdQoyfI-7VZ6_GcE-33" value="OrderID" style="shape=partialRectangle;connectable=0;fillColor=none;top=0;left=0;bottom=0;right=0;align=left;spacingLeft=6;fontStyle=5;overflow=hidden;whiteSpace=wrap;html=1;" parent="LCVaRdQoyfI-7VZ6_GcE-31" vertex="1">
          <mxGeometry x="30" width="150" height="30" as="geometry">
            <mxRectangle width="150" height="30" as="alternateBounds" />
          </mxGeometry>
        </mxCell>
        <mxCell id="LCVaRdQoyfI-7VZ6_GcE-34" value="" style="shape=tableRow;horizontal=0;startSize=0;swimlaneHead=0;swimlaneBody=0;fillColor=none;collapsible=0;dropTarget=0;points=[[0,0.5],[1,0.5]];portConstraint=eastwest;top=0;left=0;right=0;bottom=0;" parent="LCVaRdQoyfI-7VZ6_GcE-30" vertex="1">
          <mxGeometry y="60" width="180" height="30" as="geometry" />
        </mxCell>
        <mxCell id="LCVaRdQoyfI-7VZ6_GcE-35" value="" style="shape=partialRectangle;connectable=0;fillColor=none;top=0;left=0;bottom=0;right=0;editable=1;overflow=hidden;whiteSpace=wrap;html=1;" parent="LCVaRdQoyfI-7VZ6_GcE-34" vertex="1">
          <mxGeometry width="30" height="30" as="geometry">
            <mxRectangle width="30" height="30" as="alternateBounds" />
          </mxGeometry>
        </mxCell>
        <mxCell id="LCVaRdQoyfI-7VZ6_GcE-36" value="ShipStatus" style="shape=partialRectangle;connectable=0;fillColor=none;top=0;left=0;bottom=0;right=0;align=left;spacingLeft=6;overflow=hidden;whiteSpace=wrap;html=1;" parent="LCVaRdQoyfI-7VZ6_GcE-34" vertex="1">
          <mxGeometry x="30" width="150" height="30" as="geometry">
            <mxRectangle width="150" height="30" as="alternateBounds" />
          </mxGeometry>
        </mxCell>
        <mxCell id="LCVaRdQoyfI-7VZ6_GcE-37" value="" style="shape=tableRow;horizontal=0;startSize=0;swimlaneHead=0;swimlaneBody=0;fillColor=none;collapsible=0;dropTarget=0;points=[[0,0.5],[1,0.5]];portConstraint=eastwest;top=0;left=0;right=0;bottom=0;" parent="LCVaRdQoyfI-7VZ6_GcE-30" vertex="1">
          <mxGeometry y="90" width="180" height="30" as="geometry" />
        </mxCell>
        <mxCell id="LCVaRdQoyfI-7VZ6_GcE-38" value="" style="shape=partialRectangle;connectable=0;fillColor=none;top=0;left=0;bottom=0;right=0;editable=1;overflow=hidden;whiteSpace=wrap;html=1;" parent="LCVaRdQoyfI-7VZ6_GcE-37" vertex="1">
          <mxGeometry width="30" height="30" as="geometry">
            <mxRectangle width="30" height="30" as="alternateBounds" />
          </mxGeometry>
        </mxCell>
        <mxCell id="LCVaRdQoyfI-7VZ6_GcE-39" value="PaymentMethod" style="shape=partialRectangle;connectable=0;fillColor=none;top=0;left=0;bottom=0;right=0;align=left;spacingLeft=6;overflow=hidden;whiteSpace=wrap;html=1;" parent="LCVaRdQoyfI-7VZ6_GcE-37" vertex="1">
          <mxGeometry x="30" width="150" height="30" as="geometry">
            <mxRectangle width="150" height="30" as="alternateBounds" />
          </mxGeometry>
        </mxCell>
        <mxCell id="LCVaRdQoyfI-7VZ6_GcE-40" value="" style="shape=tableRow;horizontal=0;startSize=0;swimlaneHead=0;swimlaneBody=0;fillColor=none;collapsible=0;dropTarget=0;points=[[0,0.5],[1,0.5]];portConstraint=eastwest;top=0;left=0;right=0;bottom=0;" parent="LCVaRdQoyfI-7VZ6_GcE-30" vertex="1">
          <mxGeometry y="120" width="180" height="30" as="geometry" />
        </mxCell>
        <mxCell id="LCVaRdQoyfI-7VZ6_GcE-41" value="FK" style="shape=partialRectangle;connectable=0;fillColor=none;top=0;left=0;bottom=0;right=0;editable=1;overflow=hidden;whiteSpace=wrap;html=1;" parent="LCVaRdQoyfI-7VZ6_GcE-40" vertex="1">
          <mxGeometry width="30" height="30" as="geometry">
            <mxRectangle width="30" height="30" as="alternateBounds" />
          </mxGeometry>
        </mxCell>
        <mxCell id="LCVaRdQoyfI-7VZ6_GcE-42" value="&lt;b&gt;UserID&lt;/b&gt;" style="shape=partialRectangle;connectable=0;fillColor=none;top=0;left=0;bottom=0;right=0;align=left;spacingLeft=6;overflow=hidden;whiteSpace=wrap;html=1;" parent="LCVaRdQoyfI-7VZ6_GcE-40" vertex="1">
          <mxGeometry x="30" width="150" height="30" as="geometry">
            <mxRectangle width="150" height="30" as="alternateBounds" />
          </mxGeometry>
        </mxCell>
        <mxCell id="LCVaRdQoyfI-7VZ6_GcE-43" value="OrderItems" style="shape=table;startSize=30;container=1;collapsible=1;childLayout=tableLayout;fixedRows=1;rowLines=0;fontStyle=1;align=center;resizeLast=1;html=1;" parent="1" vertex="1">
          <mxGeometry x="580" y="380" width="180" height="90" as="geometry" />
        </mxCell>
        <mxCell id="LCVaRdQoyfI-7VZ6_GcE-44" value="" style="shape=tableRow;horizontal=0;startSize=0;swimlaneHead=0;swimlaneBody=0;fillColor=none;collapsible=0;dropTarget=0;points=[[0,0.5],[1,0.5]];portConstraint=eastwest;top=0;left=0;right=0;bottom=1;" parent="LCVaRdQoyfI-7VZ6_GcE-43" vertex="1">
          <mxGeometry y="30" width="180" height="30" as="geometry" />
        </mxCell>
        <mxCell id="LCVaRdQoyfI-7VZ6_GcE-45" value="PK" style="shape=partialRectangle;connectable=0;fillColor=none;top=0;left=0;bottom=0;right=0;fontStyle=1;overflow=hidden;whiteSpace=wrap;html=1;" parent="LCVaRdQoyfI-7VZ6_GcE-44" vertex="1">
          <mxGeometry width="30" height="30" as="geometry">
            <mxRectangle width="30" height="30" as="alternateBounds" />
          </mxGeometry>
        </mxCell>
        <mxCell id="LCVaRdQoyfI-7VZ6_GcE-46" value="OrderID" style="shape=partialRectangle;connectable=0;fillColor=none;top=0;left=0;bottom=0;right=0;align=left;spacingLeft=6;fontStyle=5;overflow=hidden;whiteSpace=wrap;html=1;" parent="LCVaRdQoyfI-7VZ6_GcE-44" vertex="1">
          <mxGeometry x="30" width="150" height="30" as="geometry">
            <mxRectangle width="150" height="30" as="alternateBounds" />
          </mxGeometry>
        </mxCell>
        <mxCell id="LCVaRdQoyfI-7VZ6_GcE-47" style="shape=tableRow;horizontal=0;startSize=0;swimlaneHead=0;swimlaneBody=0;fillColor=none;collapsible=0;dropTarget=0;points=[[0,0.5],[1,0.5]];portConstraint=eastwest;top=0;left=0;right=0;bottom=1;" parent="LCVaRdQoyfI-7VZ6_GcE-43" vertex="1">
          <mxGeometry y="60" width="180" height="30" as="geometry" />
        </mxCell>
        <mxCell id="LCVaRdQoyfI-7VZ6_GcE-48" value="PK" style="shape=partialRectangle;connectable=0;fillColor=none;top=0;left=0;bottom=0;right=0;fontStyle=1;overflow=hidden;whiteSpace=wrap;html=1;" parent="LCVaRdQoyfI-7VZ6_GcE-47" vertex="1">
          <mxGeometry width="30" height="30" as="geometry">
            <mxRectangle width="30" height="30" as="alternateBounds" />
          </mxGeometry>
        </mxCell>
        <mxCell id="LCVaRdQoyfI-7VZ6_GcE-49" value="DrinksID" style="shape=partialRectangle;connectable=0;fillColor=none;top=0;left=0;bottom=0;right=0;align=left;spacingLeft=6;fontStyle=5;overflow=hidden;whiteSpace=wrap;html=1;" parent="LCVaRdQoyfI-7VZ6_GcE-47" vertex="1">
          <mxGeometry x="30" width="150" height="30" as="geometry">
            <mxRectangle width="150" height="30" as="alternateBounds" />
          </mxGeometry>
        </mxCell>
        <mxCell id="LCVaRdQoyfI-7VZ6_GcE-50" value="Cart" style="shape=table;startSize=30;container=1;collapsible=1;childLayout=tableLayout;fixedRows=1;rowLines=0;fontStyle=1;align=center;resizeLast=1;html=1;" parent="1" vertex="1">
          <mxGeometry x="580" y="180" width="180" height="90" as="geometry" />
        </mxCell>
        <mxCell id="LCVaRdQoyfI-7VZ6_GcE-51" value="" style="shape=tableRow;horizontal=0;startSize=0;swimlaneHead=0;swimlaneBody=0;fillColor=none;collapsible=0;dropTarget=0;points=[[0,0.5],[1,0.5]];portConstraint=eastwest;top=0;left=0;right=0;bottom=1;" parent="LCVaRdQoyfI-7VZ6_GcE-50" vertex="1">
          <mxGeometry y="30" width="180" height="30" as="geometry" />
        </mxCell>
        <mxCell id="LCVaRdQoyfI-7VZ6_GcE-52" value="PK" style="shape=partialRectangle;connectable=0;fillColor=none;top=0;left=0;bottom=0;right=0;fontStyle=1;overflow=hidden;whiteSpace=wrap;html=1;" parent="LCVaRdQoyfI-7VZ6_GcE-51" vertex="1">
          <mxGeometry width="30" height="30" as="geometry">
            <mxRectangle width="30" height="30" as="alternateBounds" />
          </mxGeometry>
        </mxCell>
        <mxCell id="LCVaRdQoyfI-7VZ6_GcE-53" value="UserID" style="shape=partialRectangle;connectable=0;fillColor=none;top=0;left=0;bottom=0;right=0;align=left;spacingLeft=6;fontStyle=5;overflow=hidden;whiteSpace=wrap;html=1;" parent="LCVaRdQoyfI-7VZ6_GcE-51" vertex="1">
          <mxGeometry x="30" width="150" height="30" as="geometry">
            <mxRectangle width="150" height="30" as="alternateBounds" />
          </mxGeometry>
        </mxCell>
        <mxCell id="LCVaRdQoyfI-7VZ6_GcE-54" style="shape=tableRow;horizontal=0;startSize=0;swimlaneHead=0;swimlaneBody=0;fillColor=none;collapsible=0;dropTarget=0;points=[[0,0.5],[1,0.5]];portConstraint=eastwest;top=0;left=0;right=0;bottom=1;" parent="LCVaRdQoyfI-7VZ6_GcE-50" vertex="1">
          <mxGeometry y="60" width="180" height="30" as="geometry" />
        </mxCell>
        <mxCell id="LCVaRdQoyfI-7VZ6_GcE-55" value="PK" style="shape=partialRectangle;connectable=0;fillColor=none;top=0;left=0;bottom=0;right=0;fontStyle=1;overflow=hidden;whiteSpace=wrap;html=1;" parent="LCVaRdQoyfI-7VZ6_GcE-54" vertex="1">
          <mxGeometry width="30" height="30" as="geometry">
            <mxRectangle width="30" height="30" as="alternateBounds" />
          </mxGeometry>
        </mxCell>
        <mxCell id="LCVaRdQoyfI-7VZ6_GcE-56" value="DrinksID" style="shape=partialRectangle;connectable=0;fillColor=none;top=0;left=0;bottom=0;right=0;align=left;spacingLeft=6;fontStyle=5;overflow=hidden;whiteSpace=wrap;html=1;" parent="LCVaRdQoyfI-7VZ6_GcE-54" vertex="1">
          <mxGeometry x="30" width="150" height="30" as="geometry">
            <mxRectangle width="150" height="30" as="alternateBounds" />
          </mxGeometry>
        </mxCell>
        <mxCell id="LCVaRdQoyfI-7VZ6_GcE-57" value="" style="edgeStyle=entityRelationEdgeStyle;fontSize=12;html=1;endArrow=ERzeroToMany;startArrow=ERmandOne;rounded=0;entryX=1;entryY=0.5;entryDx=0;entryDy=0;exitX=0;exitY=0.5;exitDx=0;exitDy=0;" parent="1" source="LCVaRdQoyfI-7VZ6_GcE-2" target="LCVaRdQoyfI-7VZ6_GcE-54" edge="1">
          <mxGeometry width="100" height="100" relative="1" as="geometry">
            <mxPoint x="490" y="400" as="sourcePoint" />
            <mxPoint x="590" y="300" as="targetPoint" />
          </mxGeometry>
        </mxCell>
        <mxCell id="LCVaRdQoyfI-7VZ6_GcE-58" value="" style="edgeStyle=elbowEdgeStyle;fontSize=12;html=1;endArrow=ERoneToMany;startArrow=ERmandOne;rounded=0;entryX=0;entryY=0.5;entryDx=0;entryDy=0;" parent="1" source="LCVaRdQoyfI-7VZ6_GcE-31" target="LCVaRdQoyfI-7VZ6_GcE-44" edge="1">
          <mxGeometry width="100" height="100" relative="1" as="geometry">
            <mxPoint x="560" y="470" as="sourcePoint" />
            <mxPoint x="560" y="370" as="targetPoint" />
          </mxGeometry>
        </mxCell>
        <mxCell id="LCVaRdQoyfI-7VZ6_GcE-59" value="" style="edgeStyle=elbowEdgeStyle;fontSize=12;html=1;endArrow=ERzeroToMany;startArrow=ERmandOne;rounded=0;entryX=0;entryY=0.5;entryDx=0;entryDy=0;elbow=vertical;exitX=0;exitY=0.5;exitDx=0;exitDy=0;" parent="1" source="LCVaRdQoyfI-7VZ6_GcE-18" target="LCVaRdQoyfI-7VZ6_GcE-40" edge="1">
          <mxGeometry width="100" height="100" relative="1" as="geometry">
            <mxPoint x="280" y="250" as="sourcePoint" />
            <mxPoint x="210" y="380" as="targetPoint" />
            <Array as="points">
              <mxPoint x="290" y="370" />
            </Array>
          </mxGeometry>
        </mxCell>
        <mxCell id="LCVaRdQoyfI-7VZ6_GcE-60" value="" style="edgeStyle=entityRelationEdgeStyle;fontSize=12;html=1;endArrow=ERzeroToMany;startArrow=ERmandOne;rounded=0;" parent="1" source="LCVaRdQoyfI-7VZ6_GcE-18" target="LCVaRdQoyfI-7VZ6_GcE-51" edge="1">
          <mxGeometry width="100" height="100" relative="1" as="geometry">
            <mxPoint x="830" y="235" as="sourcePoint" />
            <mxPoint x="770" y="265" as="targetPoint" />
          </mxGeometry>
        </mxCell>
        <mxCell id="LCVaRdQoyfI-7VZ6_GcE-61" value="" style="edgeStyle=entityRelationEdgeStyle;fontSize=12;html=1;endArrow=ERzeroToMany;startArrow=ERmandOne;rounded=0;exitX=0;exitY=0.5;exitDx=0;exitDy=0;" parent="1" source="LCVaRdQoyfI-7VZ6_GcE-5" target="LCVaRdQoyfI-7VZ6_GcE-47" edge="1">
          <mxGeometry width="100" height="100" relative="1" as="geometry">
            <mxPoint x="920" y="480" as="sourcePoint" />
            <mxPoint x="770" y="340" as="targetPoint" />
          </mxGeometry>
        </mxCell>
        <mxCell id="LCVaRdQoyfI-7VZ6_GcE-62" value="SizePrice" style="shape=table;startSize=30;container=1;collapsible=1;childLayout=tableLayout;fixedRows=1;rowLines=0;fontStyle=1;align=center;resizeLast=1;html=1;" parent="1" vertex="1">
          <mxGeometry x="1080" y="210" width="180" height="120" as="geometry" />
        </mxCell>
        <mxCell id="LCVaRdQoyfI-7VZ6_GcE-63" value="" style="shape=tableRow;horizontal=0;startSize=0;swimlaneHead=0;swimlaneBody=0;fillColor=none;collapsible=0;dropTarget=0;points=[[0,0.5],[1,0.5]];portConstraint=eastwest;top=0;left=0;right=0;bottom=1;" parent="LCVaRdQoyfI-7VZ6_GcE-62" vertex="1">
          <mxGeometry y="30" width="180" height="30" as="geometry" />
        </mxCell>
        <mxCell id="LCVaRdQoyfI-7VZ6_GcE-64" value="PK" style="shape=partialRectangle;connectable=0;fillColor=none;top=0;left=0;bottom=0;right=0;fontStyle=1;overflow=hidden;whiteSpace=wrap;html=1;" parent="LCVaRdQoyfI-7VZ6_GcE-63" vertex="1">
          <mxGeometry width="30" height="30" as="geometry">
            <mxRectangle width="30" height="30" as="alternateBounds" />
          </mxGeometry>
        </mxCell>
        <mxCell id="LCVaRdQoyfI-7VZ6_GcE-65" value="Size" style="shape=partialRectangle;connectable=0;fillColor=none;top=0;left=0;bottom=0;right=0;align=left;spacingLeft=6;fontStyle=5;overflow=hidden;whiteSpace=wrap;html=1;" parent="LCVaRdQoyfI-7VZ6_GcE-63" vertex="1">
          <mxGeometry x="30" width="150" height="30" as="geometry">
            <mxRectangle width="150" height="30" as="alternateBounds" />
          </mxGeometry>
        </mxCell>
        <mxCell id="LCVaRdQoyfI-7VZ6_GcE-66" value="" style="shape=tableRow;horizontal=0;startSize=0;swimlaneHead=0;swimlaneBody=0;fillColor=none;collapsible=0;dropTarget=0;points=[[0,0.5],[1,0.5]];portConstraint=eastwest;top=0;left=0;right=0;bottom=0;" parent="LCVaRdQoyfI-7VZ6_GcE-62" vertex="1">
          <mxGeometry y="60" width="180" height="30" as="geometry" />
        </mxCell>
        <mxCell id="LCVaRdQoyfI-7VZ6_GcE-67" value="FK" style="shape=partialRectangle;connectable=0;fillColor=none;top=0;left=0;bottom=0;right=0;editable=1;overflow=hidden;whiteSpace=wrap;html=1;" parent="LCVaRdQoyfI-7VZ6_GcE-66" vertex="1">
          <mxGeometry width="30" height="30" as="geometry">
            <mxRectangle width="30" height="30" as="alternateBounds" />
          </mxGeometry>
        </mxCell>
        <mxCell id="LCVaRdQoyfI-7VZ6_GcE-68" value="&lt;b&gt;DrinkID&lt;/b&gt;" style="shape=partialRectangle;connectable=0;fillColor=none;top=0;left=0;bottom=0;right=0;align=left;spacingLeft=6;overflow=hidden;whiteSpace=wrap;html=1;" parent="LCVaRdQoyfI-7VZ6_GcE-66" vertex="1">
          <mxGeometry x="30" width="150" height="30" as="geometry">
            <mxRectangle width="150" height="30" as="alternateBounds" />
          </mxGeometry>
        </mxCell>
        <mxCell id="LCVaRdQoyfI-7VZ6_GcE-69" value="" style="shape=tableRow;horizontal=0;startSize=0;swimlaneHead=0;swimlaneBody=0;fillColor=none;collapsible=0;dropTarget=0;points=[[0,0.5],[1,0.5]];portConstraint=eastwest;top=0;left=0;right=0;bottom=0;" parent="LCVaRdQoyfI-7VZ6_GcE-62" vertex="1">
          <mxGeometry y="90" width="180" height="30" as="geometry" />
        </mxCell>
        <mxCell id="LCVaRdQoyfI-7VZ6_GcE-70" value="" style="shape=partialRectangle;connectable=0;fillColor=none;top=0;left=0;bottom=0;right=0;editable=1;overflow=hidden;whiteSpace=wrap;html=1;" parent="LCVaRdQoyfI-7VZ6_GcE-69" vertex="1">
          <mxGeometry width="30" height="30" as="geometry">
            <mxRectangle width="30" height="30" as="alternateBounds" />
          </mxGeometry>
        </mxCell>
        <mxCell id="LCVaRdQoyfI-7VZ6_GcE-71" value="Price" style="shape=partialRectangle;connectable=0;fillColor=none;top=0;left=0;bottom=0;right=0;align=left;spacingLeft=6;overflow=hidden;whiteSpace=wrap;html=1;" parent="LCVaRdQoyfI-7VZ6_GcE-69" vertex="1">
          <mxGeometry x="30" width="150" height="30" as="geometry">
            <mxRectangle width="150" height="30" as="alternateBounds" />
          </mxGeometry>
        </mxCell>
        <mxCell id="LCVaRdQoyfI-7VZ6_GcE-72" value="" style="edgeStyle=elbowEdgeStyle;fontSize=12;html=1;endArrow=ERoneToMany;startArrow=ERmandOne;rounded=0;exitX=1;exitY=0.5;exitDx=0;exitDy=0;entryX=0;entryY=0.5;entryDx=0;entryDy=0;" parent="1" source="LCVaRdQoyfI-7VZ6_GcE-2" target="LCVaRdQoyfI-7VZ6_GcE-63" edge="1">
          <mxGeometry width="100" height="100" relative="1" as="geometry">
            <mxPoint x="530" y="435" as="sourcePoint" />
            <mxPoint x="590" y="435" as="targetPoint" />
          </mxGeometry>
        </mxCell>
      </root>
    </mxGraphModel>
  </diagram>
</mxfile>
